NotoSansDevanagari-CondensedBold.ufo
<glyph name="quotedbl.deva" format="2">
  <advance width="545"/>
  <unicode hex="0022"/>
  <outline>
    <contour>
      <point x="109" y="471" type="line"/>
      <point x="239" y="471" type="line"/>
      <point x="259" y="729" type="line"/>
      <point x="89" y="729" type="line"/>
    </contour>
    <contour>
      <point x="322" y="471" type="line"/>
      <point x="452" y="471" type="line"/>
      <point x="472" y="729" type="line"/>
      <point x="302" y="729" type="line"/>
    </contour>
  </outline>
</glyph>
<glyph name="plus.deva" format="2">
  <advance width="490"/>
  <unicode hex="002B"/>
  <outline>
    <contour>
      <point x="180" y="260" type="line"/>
      <point x="180" y="91" type="line"/>
      <point x="310" y="91" type="line"/>
      <point x="310" y="260" type="line"/>
      <point x="457" y="260" type="line"/>
      <point x="457" y="386" type="line"/>
      <point x="310" y="386" type="line"/>
      <point x="310" y="557" type="line"/>
      <point x="180" y="557" type="line"/>
      <point x="180" y="386" type="line"/>
      <point x="33" y="386" type="line"/>
      <point x="33" y="260" type="line"/>
    </contour>
  </outline>
</glyph>
<glyph name="less.deva" format="2">
  <advance width="490"/>
  <unicode hex="003C"/>
  <outline>
    <contour>
      <point x="33" y="280" type="line"/>
      <point x="457" y="49" type="line"/>
      <point x="457" y="193" type="line"/>
      <point x="203" y="322" type="line"/>
      <point x="457" y="451" type="line"/>
      <point x="457" y="595" type="line"/>
      <point x="33" y="364" type="line"/>
    </contour>
  </outline>
</glyph>
<glyph name="equal.deva" format="2">
  <advance width="490"/>
  <unicode hex="003D"/>
  <outline>
    <contour>
      <point x="38" y="479" type="line"/>
      <point x="38" y="353" type="line"/>
      <point x="452" y="353" type="line"/>
      <point x="452" y="479" type="line"/>
    </contour>
    <contour>
      <point x="38" y="291" type="line"/>
      <point x="38" y="165" type="line"/>
      <point x="452" y="165" type="line"/>
      <point x="452" y="291" type="line"/>
    </contour>
  </outline>
</glyph>
<glyph name="bracketleft.deva" format="2">
  <advance width="355"/>
  <unicode hex="005B"/>
  <outline>
    <contour>
      <point x="85" y="832" type="line"/>
      <point x="85" y="-165" type="line"/>
      <point x="307" y="-165" type="line"/>
      <point x="307" y="-43" type="line"/>
      <point x="227" y="-43" type="line"/>
      <point x="227" y="710" type="line"/>
      <point x="307" y="710" type="line"/>
      <point x="307" y="832" type="line"/>
    </contour>
  </outline>
</glyph>
<glyph name="bracketright.deva" format="2">
  <advance width="355"/>
  <unicode hex="005D"/>
  <outline>
    <contour>
      <point x="48" y="-43" type="line"/>
      <point x="48" y="-165" type="line"/>
      <point x="270" y="-165" type="line"/>
      <point x="270" y="832" type="line"/>
      <point x="48" y="832" type="line"/>
      <point x="48" y="710" type="line"/>
      <point x="128" y="710" type="line"/>
      <point x="128" y="-43" type="line"/>
    </contour>
  </outline>
</glyph>
<glyph name="bar.deva" format="2">
  <advance width="424"/>
  <unicode hex="007C"/>
  <outline>
    <contour>
      <point x="148" y="832" type="line"/>
      <point x="148" y="-165" type="line"/>
      <point x="276" y="-165" type="line"/>
      <point x="276" y="832" type="line"/>
    </contour>
  </outline>
</glyph>
<glyph name="multiply.deva" format="2">
  <advance width="490"/>
  <unicode hex="00D7"/>
  <outline>
    <contour>
      <point x="245" y="236" type="line"/>
      <point x="367" y="110" type="line"/>
      <point x="457" y="200" type="line"/>
      <point x="331" y="323" type="line"/>
      <point x="457" y="446" type="line"/>
      <point x="367" y="536" type="line"/>
      <point x="245" y="408" type="line"/>
      <point x="122" y="536" type="line"/>
      <point x="32" y="446" type="line"/>
      <point x="158" y="323" type="line"/>
      <point x="32" y="200" type="line"/>
      <point x="122" y="110" type="line"/>
    </contour>
  </outline>
</glyph>
<glyph name="binducandradeva" format="2">
  <unicode hex="0900"/>
  <outline>
    <contour>
      <point x="-341" y="671" type="curve"/>
      <point x="-238" y="646" type="line"/>
      <point x="-229" y="750"/>
      <point x="-209" y="794"/>
      <point x="-150" y="794" type="curve" smooth="yes"/>
      <point x="-99" y="794"/>
      <point x="-74" y="751"/>
      <point x="-48" y="646" type="curve"/>
      <point x="47" y="677" type="line"/>
      <point x="12" y="826"/>
      <point x="-47" y="896"/>
      <point x="-150" y="896" type="curve" smooth="yes"/>
      <point x="-261" y="896"/>
      <point x="-324" y="836"/>
    </contour>
    <contour>
      <point x="-95" y="702" type="curve" smooth="yes"/>
      <point x="-95" y="739"/>
      <point x="-117" y="764"/>
      <point x="-151" y="764" type="curve" smooth="yes"/>
      <point x="-187" y="764"/>
      <point x="-208" y="741"/>
      <point x="-208" y="704" type="curve" smooth="yes"/>
      <point x="-208" y="669"/>
      <point x="-187" y="646"/>
      <point x="-151" y="646" type="curve" smooth="yes"/>
      <point x="-115" y="646"/>
      <point x="-95" y="669"/>
    </contour>
  </outline>
</glyph>
<glyph name="candrabindudeva" format="2">
  <unicode hex="0901"/>
  <outline>
    <contour>
      <point x="-199" y="840" type="curve" smooth="yes"/>
      <point x="-199" y="803"/>
      <point x="-177" y="778"/>
      <point x="-143" y="778" type="curve" smooth="yes"/>
      <point x="-107" y="778"/>
      <point x="-86" y="801"/>
      <point x="-86" y="838" type="curve" smooth="yes"/>
      <point x="-86" y="873"/>
      <point x="-107" y="896"/>
      <point x="-143" y="896" type="curve" smooth="yes"/>
      <point x="-179" y="896"/>
      <point x="-199" y="873"/>
    </contour>
    <contour>
      <point x="48" y="871" type="curve"/>
      <point x="-55" y="896" type="line"/>
      <point x="-64" y="792"/>
      <point x="-84" y="748"/>
      <point x="-143" y="748" type="curve" smooth="yes"/>
      <point x="-194" y="748"/>
      <point x="-219" y="793"/>
      <point x="-245" y="896" type="curve"/>
      <point x="-341" y="865" type="line"/>
      <point x="-305" y="716"/>
      <point x="-244" y="646"/>
      <point x="-143" y="646" type="curve" smooth="yes"/>
      <point x="-32" y="646"/>
      <point x="31" y="706"/>
    </contour>
  </outline>
</glyph>
<glyph name="anusvaradeva" format="2">
  <unicode hex="0902"/>
  <outline>
    <contour>
      <point x="-202" y="774" type="curve" smooth="yes"/>
      <point x="-202" y="728"/>
      <point x="-175" y="696"/>
      <point x="-129" y="696" type="curve" smooth="yes"/>
      <point x="-84" y="696"/>
      <point x="-57" y="728"/>
      <point x="-57" y="774" type="curve" smooth="yes"/>
      <point x="-57" y="819"/>
      <point x="-84" y="852"/>
      <point x="-129" y="852" type="curve" smooth="yes"/>
      <point x="-175" y="852"/>
      <point x="-202" y="819"/>
    </contour>
  </outline>
</glyph>
<glyph name="visargadeva" format="2">
  <advance width="248"/>
  <unicode hex="0903"/>
  <outline>
    <contour>
      <point x="55" y="118" type="curve" smooth="yes"/>
      <point x="55" y="70"/>
      <point x="83" y="36"/>
      <point x="132" y="36" type="curve" smooth="yes"/>
      <point x="180" y="36"/>
      <point x="208" y="70"/>
      <point x="208" y="118" type="curve" smooth="yes"/>
      <point x="208" y="165"/>
      <point x="180" y="200"/>
      <point x="132" y="200" type="curve" smooth="yes"/>
      <point x="83" y="200"/>
      <point x="55" y="165"/>
    </contour>
    <contour>
      <point x="55" y="437" type="curve" smooth="yes"/>
      <point x="55" y="389"/>
      <point x="83" y="355"/>
      <point x="132" y="355" type="curve" smooth="yes"/>
      <point x="180" y="355"/>
      <point x="208" y="389"/>
      <point x="208" y="437" type="curve" smooth="yes"/>
      <point x="208" y="484"/>
      <point x="180" y="519"/>
      <point x="132" y="519" type="curve" smooth="yes"/>
      <point x="83" y="519"/>
      <point x="55" y="484"/>
    </contour>
  </outline>
</glyph>
<glyph name="adeva" format="2">
  <advance width="709"/>
  <unicode hex="0905"/>
  <outline>
    <contour>
      <point x="655" y="489" type="line"/>
      <point x="721" y="489" type="line"/>
      <point x="721" y="622" type="line"/>
      <point x="467" y="622" type="line"/>
      <point x="467" y="489" type="line"/>
      <point x="505" y="489" type="line"/>
      <point x="505" y="0" type="line"/>
      <point x="655" y="0" type="line"/>
    </contour>
    <contour>
      <point x="262" y="632" type="curve" smooth="yes"/>
      <point x="205" y="632"/>
      <point x="164" y="619"/>
      <point x="121" y="602" type="curve"/>
      <point x="167" y="478" type="line"/>
      <point x="192" y="492"/>
      <point x="217" y="498"/>
      <point x="237" y="498" type="curve" smooth="yes"/>
      <point x="268" y="498"/>
      <point x="281" y="482"/>
      <point x="281" y="459" type="curve" smooth="yes"/>
      <point x="281" y="432"/>
      <point x="259" y="416"/>
      <point x="213" y="412" type="curve"/>
      <point x="229" y="286" type="line"/>
      <point x="350" y="301"/>
      <point x="430" y="354"/>
      <point x="430" y="468" type="curve" smooth="yes"/>
      <point x="430" y="563"/>
      <point x="367" y="632"/>
    </contour>
    <contour>
      <point x="441" y="209" type="curve" smooth="yes"/>
      <point x="441" y="242"/>
      <point x="435" y="274"/>
      <point x="424" y="299" type="curve"/>
      <point x="416" y="318" type="line"/>
      <point x="404" y="340"/>
      <point x="384" y="360"/>
      <point x="368" y="372" type="curve"/>
      <point x="307" y="379" type="line"/>
      <point x="241" y="326" type="line"/>
      <point x="270" y="294"/>
      <point x="292" y="266"/>
      <point x="292" y="222" type="curve" smooth="yes"/>
      <point x="292" y="204"/>
      <point x="284" y="188"/>
      <point x="260" y="188" type="curve" smooth="yes"/>
      <point x="218" y="188"/>
      <point x="183" y="243"/>
      <point x="151" y="381" type="curve"/>
      <point x="15" y="346" type="line"/>
      <point x="71" y="124"/>
      <point x="146" y="53"/>
      <point x="271" y="53" type="curve" smooth="yes"/>
      <point x="382" y="53"/>
      <point x="441" y="109"/>
    </contour>
    <contour>
      <point x="435" y="348" type="curve" smooth="yes"/>
      <point x="410" y="348"/>
      <point x="385" y="352"/>
      <point x="368" y="357" type="curve"/>
      <point x="357" y="344" type="line"/>
      <point x="366" y="234" type="line"/>
      <point x="386" y="228"/>
      <point x="420" y="223"/>
      <point x="447" y="223" type="curve" smooth="yes"/>
      <point x="480" y="223"/>
      <point x="515" y="228"/>
      <point x="542" y="252" type="curve"/>
      <point x="541" y="378" type="line"/>
      <point x="499" y="352"/>
      <point x="468" y="348"/>
    </contour>
  </outline>
</glyph>
<glyph name="ideva" format="2">
  <advance width="420"/>
  <unicode hex="0907"/>
  <outline>
    <contour>
      <point x="197" y="185" type="curve" smooth="yes"/>
      <point x="235" y="185"/>
      <point x="247" y="175"/>
      <point x="247" y="156" type="curve" smooth="yes"/>
      <point x="247" y="135"/>
      <point x="234" y="123"/>
      <point x="190" y="123" type="curve" smooth="yes"/>
      <point x="168" y="123"/>
      <point x="138" y="126"/>
      <point x="99" y="141" type="curve"/>
      <point x="123" y="18" type="line"/>
      <point x="191" y="-37"/>
      <point x="257" y="-88"/>
      <point x="324" y="-130" type="curve"/>
      <point x="383" y="-23" type="line"/>
      <point x="334" y="-6"/>
      <point x="245" y="31"/>
      <point x="206" y="53" type="curve"/>
      <point x="181" y="122"/>
      <point x="139" y="160"/>
      <point x="92" y="160" type="curve" smooth="yes"/>
      <point x="54" y="160"/>
      <point x="24" y="136"/>
      <point x="24" y="90" type="curve" smooth="yes"/>
      <point x="24" y="17"/>
      <point x="84" y="0"/>
      <point x="180" y="0" type="curve" smooth="yes"/>
      <point x="198" y="0"/>
      <point x="201" y="4"/>
      <point x="205" y="4" type="curve" smooth="yes"/>
      <point x="352" y="4"/>
      <point x="397" y="72"/>
      <point x="397" y="158" type="curve" smooth="yes"/>
      <point x="397" y="236"/>
      <point x="348" y="300"/>
      <point x="235" y="300" type="curve" smooth="yes"/>
      <point x="213" y="300"/>
      <point x="196" y="298"/>
      <point x="177" y="294" type="curve"/>
      <point x="171" y="303"/>
      <point x="168" y="310"/>
      <point x="168" y="320" type="curve" smooth="yes"/>
      <point x="168" y="325"/>
      <point x="170" y="329"/>
      <point x="172" y="331" type="curve"/>
      <point x="177" y="336"/>
      <point x="182" y="337"/>
      <point x="200" y="337" type="curve" smooth="yes"/>
      <point x="357" y="337" type="line"/>
      <point x="357" y="489" type="line"/>
      <point x="432" y="489" type="line"/>
      <point x="432" y="622" type="line"/>
      <point x="0" y="622" type="line"/>
      <point x="0" y="489" type="line"/>
      <point x="210" y="489" type="line"/>
      <point x="210" y="446" type="line"/>
      <point x="186" y="446" type="line" smooth="yes"/>
      <point x="111" y="446"/>
      <point x="80" y="431"/>
      <point x="59" y="412" type="curve" smooth="yes"/>
      <point x="35" y="391"/>
      <point x="24" y="361"/>
      <point x="24" y="326" type="curve" smooth="yes"/>
      <point x="24" y="266"/>
      <point x="62" y="215"/>
      <point x="113" y="174" type="curve"/>
      <point x="136" y="180"/>
      <point x="166" y="185"/>
    </contour>
  </outline>
</glyph>
<glyph name="udeva" format="2">
  <advance width="472"/>
  <unicode hex="0909"/>
  <outline>
    <contour>
      <point x="0" y="622" type="line"/>
      <point x="0" y="489" type="line"/>
      <point x="484" y="489" type="line"/>
      <point x="484" y="622" type="line"/>
    </contour>
    <contour>
      <point x="248" y="608" type="curve"/>
      <point x="219" y="511" type="line"/>
      <point x="258" y="493"/>
      <point x="282" y="481"/>
      <point x="282" y="440" type="curve" smooth="yes"/>
      <point x="282" y="402"/>
      <point x="255" y="388"/>
      <point x="205" y="385" type="curve"/>
      <point x="219" y="258" type="line"/>
      <point x="366" y="277"/>
      <point x="432" y="328"/>
      <point x="432" y="430" type="curve" smooth="yes"/>
      <point x="432" y="540"/>
      <point x="311" y="598"/>
    </contour>
    <contour>
      <point x="371" y="329" type="curve"/>
      <point x="243" y="278" type="line"/>
      <point x="278" y="244"/>
      <point x="301" y="211"/>
      <point x="301" y="170" type="curve" smooth="yes"/>
      <point x="301" y="152"/>
      <point x="293" y="136"/>
      <point x="269" y="136" type="curve" smooth="yes"/>
      <point x="220" y="136"/>
      <point x="188" y="193"/>
      <point x="150" y="342" type="curve"/>
      <point x="15" y="307" type="line"/>
      <point x="75" y="74"/>
      <point x="152" y="0"/>
      <point x="281" y="0" type="curve" smooth="yes"/>
      <point x="385" y="0"/>
      <point x="452" y="56"/>
      <point x="452" y="156" type="curve" smooth="yes"/>
      <point x="452" y="237"/>
      <point x="414" y="289"/>
    </contour>
  </outline>
</glyph>
<glyph name="uudeva" format="2">
  <advance width="677"/>
  <unicode hex="090A"/>
  <outline>
    <contour>
      <point x="0" y="622" type="line"/>
      <point x="0" y="489" type="line"/>
      <point x="689" y="489" type="line"/>
      <point x="689" y="622" type="line"/>
    </contour>
    <contour>
      <point x="248" y="608" type="curve"/>
      <point x="219" y="511" type="line"/>
      <point x="258" y="493"/>
      <point x="282" y="481"/>
      <point x="282" y="440" type="curve" smooth="yes"/>
      <point x="282" y="402"/>
      <point x="255" y="388"/>
      <point x="205" y="385" type="curve"/>
      <point x="219" y="258" type="line"/>
      <point x="366" y="277"/>
      <point x="432" y="328"/>
      <point x="432" y="430" type="curve" smooth="yes"/>
      <point x="432" y="540"/>
      <point x="311" y="598"/>
    </contour>
    <contour>
      <point x="371" y="329" type="curve"/>
      <point x="243" y="278" type="line"/>
      <point x="278" y="244"/>
      <point x="301" y="211"/>
      <point x="301" y="170" type="curve" smooth="yes"/>
      <point x="301" y="152"/>
      <point x="293" y="136"/>
      <point x="269" y="136" type="curve" smooth="yes"/>
      <point x="220" y="136"/>
      <point x="188" y="193"/>
      <point x="150" y="342" type="curve"/>
      <point x="15" y="307" type="line"/>
      <point x="75" y="74"/>
      <point x="152" y="0"/>
      <point x="281" y="0" type="curve" smooth="yes"/>
      <point x="385" y="0"/>
      <point x="452" y="56"/>
      <point x="452" y="156" type="curve" smooth="yes"/>
      <point x="452" y="237"/>
      <point x="414" y="289"/>
    </contour>
    <contour>
      <point x="369" y="288" type="curve"/>
      <point x="435" y="180" type="line"/>
      <point x="448" y="202"/>
      <point x="462" y="223"/>
      <point x="484" y="223" type="curve" smooth="yes"/>
      <point x="494" y="223"/>
      <point x="506" y="217"/>
      <point x="506" y="184" type="curve" smooth="yes"/>
      <point x="506" y="147"/>
      <point x="490" y="102"/>
      <point x="470" y="62" type="curve"/>
      <point x="601" y="-1" type="line"/>
      <point x="637" y="68"/>
      <point x="656" y="136"/>
      <point x="656" y="195" type="curve" smooth="yes"/>
      <point x="656" y="299"/>
      <point x="602" y="355"/>
      <point x="522" y="355" type="curve" smooth="yes"/>
      <point x="458" y="355"/>
      <point x="418" y="328"/>
    </contour>
  </outline>
</glyph>
<glyph name="rvocalicdeva" format="2">
  <advance width="757"/>
  <unicode hex="090B"/>
  <outline>
    <contour>
      <point x="444" y="489" type="line"/>
      <point x="769" y="489" type="line"/>
      <point x="769" y="622" type="line"/>
      <point x="0" y="622" type="line"/>
      <point x="0" y="489" type="line"/>
      <point x="295" y="489" type="line"/>
      <point x="295" y="0" type="line"/>
      <point x="444" y="0" type="line"/>
    </contour>
    <contour>
      <point x="16" y="395" type="curve"/>
      <point x="62" y="266" type="line"/>
      <point x="91" y="282"/>
      <point x="118" y="294"/>
      <point x="147" y="294" type="curve" smooth="yes"/>
      <point x="173" y="294"/>
      <point x="189" y="287"/>
      <point x="220" y="239" type="curve"/>
      <point x="315" y="268" type="line"/>
      <point x="311" y="301" type="line"/>
      <point x="257" y="391"/>
      <point x="224" y="431"/>
      <point x="147" y="431" type="curve" smooth="yes"/>
      <point x="102" y="431"/>
      <point x="60" y="417"/>
    </contour>
    <contour>
      <point x="118" y="26" type="line"/>
      <point x="363" y="219" type="line"/>
      <point x="268" y="290" type="line"/>
      <point x="34" y="135" type="line"/>
    </contour>
    <contour>
      <point x="419" y="326" type="curve"/>
      <point x="413" y="203" type="line"/>
      <point x="468" y="206"/>
      <point x="502" y="211"/>
      <point x="543" y="227" type="curve"/>
      <point x="552" y="203"/>
      <point x="569" y="168"/>
      <point x="584" y="136" type="curve"/>
      <point x="663" y="134" type="line"/>
      <point x="689" y="175" type="line"/>
      <point x="670" y="209"/>
      <point x="655" y="241"/>
      <point x="642" y="269" type="curve"/>
      <point x="660" y="283"/>
      <point x="671" y="311"/>
      <point x="671" y="343" type="curve" smooth="yes"/>
      <point x="671" y="388"/>
      <point x="647" y="436"/>
      <point x="583" y="436" type="curve" smooth="yes"/>
      <point x="543" y="436"/>
      <point x="504" y="408"/>
      <point x="504" y="352" type="curve" smooth="yes"/>
      <point x="504" y="337"/>
      <point x="507" y="322"/>
      <point x="510" y="312" type="curve"/>
      <point x="529" y="349" type="line"/>
      <point x="499" y="333"/>
      <point x="450" y="328"/>
    </contour>
    <contour>
      <point x="773" y="-36" type="curve"/>
      <point x="727" y="71" type="line"/>
      <point x="699" y="56"/>
      <point x="677" y="51"/>
      <point x="656" y="51" type="curve" smooth="yes"/>
      <point x="639" y="51"/>
      <point x="616" y="57"/>
      <point x="616" y="85" type="curve" smooth="yes"/>
      <point x="616" y="111"/>
      <point x="639" y="126"/>
      <point x="663" y="134" type="curve"/>
      <point x="596" y="242" type="line"/>
      <point x="545" y="224"/>
      <point x="481" y="182"/>
      <point x="481" y="88" type="curve" smooth="yes"/>
      <point x="481" y="-7"/>
      <point x="544" y="-68"/>
      <point x="635" y="-68" type="curve" smooth="yes"/>
      <point x="691" y="-68"/>
      <point x="736" y="-53"/>
    </contour>
  </outline>
</glyph>
<glyph name="lvocalicdeva" format="2">
  <advance width="618"/>
  <unicode hex="090C"/>
  <outline>
    <contour>
      <point x="630" y="489" type="line"/>
      <point x="630" y="622" type="line"/>
      <point x="0" y="622" type="line"/>
      <point x="0" y="489" type="line"/>
      <point x="357" y="489" type="line"/>
      <point x="357" y="404" type="line"/>
      <point x="504" y="366" type="line"/>
      <point x="504" y="489" type="line"/>
    </contour>
    <contour>
      <point x="176" y="424" type="curve" smooth="yes"/>
      <point x="111" y="424"/>
      <point x="23" y="383"/>
      <point x="23" y="255" type="curve" smooth="yes"/>
      <point x="23" y="174"/>
      <point x="75" y="77"/>
      <point x="156" y="-19" type="curve"/>
      <point x="272" y="61" type="line"/>
      <point x="216" y="129"/>
      <point x="173" y="189"/>
      <point x="173" y="248" type="curve" smooth="yes"/>
      <point x="173" y="269"/>
      <point x="180" y="290"/>
      <point x="202" y="290" type="curve" smooth="yes"/>
      <point x="220" y="290"/>
      <point x="236" y="272"/>
      <point x="258" y="236" type="curve"/>
      <point x="331" y="354" type="line"/>
      <point x="278" y="402"/>
      <point x="242" y="424"/>
    </contour>
    <contour>
      <point x="349" y="31" type="curve" smooth="yes"/>
      <point x="349" y="-64"/>
      <point x="412" y="-125"/>
      <point x="503" y="-125" type="curve" smooth="yes"/>
      <point x="559" y="-125"/>
      <point x="604" y="-110"/>
      <point x="641" y="-93" type="curve"/>
      <point x="595" y="14" type="line"/>
      <point x="567" y="-1"/>
      <point x="545" y="-6"/>
      <point x="524" y="-6" type="curve" smooth="yes"/>
      <point x="507" y="-6"/>
      <point x="484" y="0"/>
      <point x="484" y="28" type="curve" smooth="yes"/>
      <point x="484" y="54"/>
      <point x="506" y="73"/>
      <point x="551" y="83" type="curve"/>
      <point x="539" y="202" type="line"/>
      <point x="421" y="187"/>
      <point x="349" y="131"/>
    </contour>
    <contour>
      <point x="422" y="422" type="curve" smooth="yes"/>
      <point x="315" y="422"/>
      <point x="243" y="357"/>
      <point x="216" y="211" type="curve"/>
      <point x="348" y="175" type="line"/>
      <point x="365" y="276"/>
      <point x="392" y="292"/>
      <point x="411" y="292" type="curve" smooth="yes"/>
      <point x="425" y="292"/>
      <point x="441" y="282"/>
      <point x="441" y="250" type="curve" smooth="yes"/>
      <point x="441" y="207"/>
      <point x="427" y="171"/>
      <point x="414" y="133" type="curve"/>
      <point x="551" y="83" type="line"/>
      <point x="570" y="136"/>
      <point x="588" y="185"/>
      <point x="588" y="257" type="curve" smooth="yes"/>
      <point x="588" y="351"/>
      <point x="541" y="422"/>
    </contour>
  </outline>
</glyph>
<glyph name="edeva" format="2">
  <advance width="499"/>
  <unicode hex="090F"/>
  <outline>
    <contour>
      <point x="511" y="489" type="line"/>
      <point x="511" y="622" type="line"/>
      <point x="0" y="622" type="line"/>
      <point x="0" y="489" type="line"/>
      <point x="50" y="489" type="line"/>
      <point x="50" y="292" type="line" smooth="yes"/>
      <point x="50" y="229"/>
      <point x="55" y="197"/>
      <point x="75" y="160" type="curve" smooth="yes"/>
      <point x="92" y="130"/>
      <point x="117" y="107"/>
      <point x="180" y="67" type="curve" smooth="yes"/>
      <point x="266" y="13" type="line" smooth="yes"/>
      <point x="305" y="-11"/>
      <point x="313" y="-34"/>
      <point x="313" y="-58" type="curve" smooth="yes"/>
      <point x="313" y="-89"/>
      <point x="300" y="-112"/>
      <point x="286" y="-132" type="curve"/>
      <point x="408" y="-204" type="line"/>
      <point x="439" y="-159"/>
      <point x="466" y="-113"/>
      <point x="466" y="-46" type="curve" smooth="yes"/>
      <point x="466" y="7"/>
      <point x="448" y="61"/>
      <point x="363" y="115" type="curve"/>
      <point x="251" y="188" type="line" smooth="yes"/>
      <point x="205" y="218"/>
      <point x="200" y="246"/>
      <point x="200" y="305" type="curve" smooth="yes"/>
      <point x="200" y="489" type="line"/>
      <point x="305" y="489" type="line"/>
      <point x="305" y="392" type="line" smooth="yes"/>
      <point x="305" y="368"/>
      <point x="302" y="355"/>
      <point x="292" y="346" type="curve" smooth="yes"/>
      <point x="285" y="339"/>
      <point x="272" y="334"/>
      <point x="257" y="330" type="curve"/>
      <point x="301" y="197" type="line"/>
      <point x="350" y="209"/>
      <point x="390" y="227"/>
      <point x="416" y="251" type="curve" smooth="yes"/>
      <point x="446" y="279"/>
      <point x="455" y="317"/>
      <point x="455" y="386" type="curve" smooth="yes"/>
      <point x="455" y="489" type="line"/>
    </contour>
  </outline>
</glyph>
<glyph name="kadeva" format="2">
  <advance width="672"/>
  <unicode hex="0915"/>
  <outline>
    <contour>
      <point x="684" y="489" type="line"/>
      <point x="684" y="622" type="line"/>
      <point x="0" y="622" type="line"/>
      <point x="0" y="489" type="line"/>
      <point x="287" y="489" type="line"/>
      <point x="287" y="192" type="line"/>
      <point x="314" y="302" type="line"/>
      <point x="288" y="254"/>
      <point x="262" y="209"/>
      <point x="216" y="209" type="curve" smooth="yes"/>
      <point x="193" y="209"/>
      <point x="173" y="217"/>
      <point x="173" y="259" type="curve" smooth="yes"/>
      <point x="173" y="290"/>
      <point x="190" y="308"/>
      <point x="218" y="308" type="curve" smooth="yes"/>
      <point x="232" y="308"/>
      <point x="244" y="306"/>
      <point x="254" y="303" type="curve"/>
      <point x="266" y="434" type="line"/>
      <point x="241" y="440"/>
      <point x="222" y="442"/>
      <point x="196" y="442" type="curve" smooth="yes"/>
      <point x="81" y="442"/>
      <point x="23" y="371"/>
      <point x="23" y="260" type="curve" smooth="yes"/>
      <point x="23" y="135"/>
      <point x="92" y="76"/>
      <point x="194" y="76" type="curve" smooth="yes"/>
      <point x="253" y="76"/>
      <point x="285" y="94"/>
      <point x="333" y="143" type="curve"/>
      <point x="287" y="177" type="line"/>
      <point x="287" y="0" type="line"/>
      <point x="437" y="0" type="line"/>
      <point x="437" y="245" type="line"/>
      <point x="429" y="221" type="line"/>
      <point x="442" y="250"/>
      <point x="458" y="267"/>
      <point x="475" y="267" type="curve" smooth="yes"/>
      <point x="489" y="267"/>
      <point x="499" y="256"/>
      <point x="499" y="224" type="curve" smooth="yes"/>
      <point x="499" y="179"/>
      <point x="483" y="131"/>
      <point x="463" y="88" type="curve"/>
      <point x="594" y="25" type="line"/>
      <point x="634" y="103"/>
      <point x="649" y="169"/>
      <point x="649" y="233" type="curve" smooth="yes"/>
      <point x="649" y="341"/>
      <point x="595" y="400"/>
      <point x="515" y="400" type="curve" smooth="yes"/>
      <point x="475" y="400"/>
      <point x="448" y="387"/>
      <point x="420" y="362" type="curve"/>
      <point x="437" y="330" type="line"/>
      <point x="437" y="489" type="line"/>
    </contour>
  </outline>
</glyph>
<glyph name="khadeva" format="2">
  <advance width="709"/>
  <unicode hex="0916"/>
  <outline>
    <contour>
      <point x="258" y="489" type="line"/>
      <point x="336" y="489" type="line"/>
      <point x="336" y="622" type="line"/>
      <point x="0" y="622" type="line"/>
      <point x="0" y="489" type="line"/>
      <point x="205" y="489" type="line"/>
      <point x="119" y="534" type="line"/>
      <point x="134" y="512"/>
      <point x="143" y="474"/>
      <point x="143" y="437" type="curve" smooth="yes"/>
      <point x="143" y="397"/>
      <point x="132" y="360"/>
      <point x="113" y="325" type="curve"/>
      <point x="214" y="290" type="line"/>
      <point x="174" y="351"/>
      <point x="145" y="399"/>
      <point x="92" y="399" type="curve" smooth="yes"/>
      <point x="42" y="399"/>
      <point x="20" y="362"/>
      <point x="20" y="319" type="curve" smooth="yes"/>
      <point x="20" y="285"/>
      <point x="33" y="246"/>
      <point x="59" y="204" type="curve" smooth="yes"/>
      <point x="117" y="109"/>
      <point x="224" y="2"/>
      <point x="378" y="2" type="curve" smooth="yes"/>
      <point x="455" y="2"/>
      <point x="512" y="18"/>
      <point x="569" y="60" type="curve"/>
      <point x="532" y="171" type="line"/>
      <point x="477" y="140"/>
      <point x="443" y="133"/>
      <point x="390" y="133" type="curve" smooth="yes"/>
      <point x="302" y="133"/>
      <point x="249" y="170"/>
      <point x="192" y="249" type="curve"/>
      <point x="177" y="222" type="line"/>
      <point x="244" y="260"/>
      <point x="291" y="324"/>
      <point x="291" y="416" type="curve" smooth="yes"/>
      <point x="291" y="467"/>
      <point x="279" y="501"/>
      <point x="269" y="530" type="curve"/>
    </contour>
    <contour>
      <point x="655" y="489" type="line"/>
      <point x="721" y="489" type="line"/>
      <point x="721" y="622" type="line"/>
      <point x="307" y="622" type="line"/>
      <point x="307" y="489" type="line"/>
      <point x="505" y="489" type="line"/>
      <point x="505" y="0" type="line"/>
      <point x="655" y="0" type="line"/>
    </contour>
    <contour>
      <point x="544" y="218" type="curve"/>
      <point x="521" y="328" type="line"/>
      <point x="496" y="294"/>
      <point x="478" y="284"/>
      <point x="456" y="284" type="curve" smooth="yes"/>
      <point x="440" y="284"/>
      <point x="428" y="292"/>
      <point x="428" y="317" type="curve" smooth="yes"/>
      <point x="428" y="338"/>
      <point x="435" y="351"/>
      <point x="456" y="351" type="curve" smooth="yes"/>
      <point x="462" y="351"/>
      <point x="469" y="350"/>
      <point x="476" y="348" type="curve"/>
      <point x="484" y="458" type="line"/>
      <point x="471" y="462"/>
      <point x="448" y="464"/>
      <point x="432" y="464" type="curve" smooth="yes"/>
      <point x="340" y="464"/>
      <point x="298" y="406"/>
      <point x="298" y="318" type="curve" smooth="yes"/>
      <point x="298" y="217"/>
      <point x="358" y="169"/>
      <point x="434" y="169" type="curve" smooth="yes"/>
      <point x="481" y="169"/>
      <point x="513" y="186"/>
    </contour>
  </outline>
</glyph>
<glyph name="gadeva" format="2">
  <advance width="511"/>
  <unicode hex="0917"/>
  <outline>
    <contour>
      <point x="228" y="489" type="line"/>
      <point x="307" y="489" type="line"/>
      <point x="307" y="0" type="line"/>
      <point x="457" y="0" type="line"/>
      <point x="457" y="489" type="line"/>
      <point x="523" y="489" type="line"/>
      <point x="523" y="622" type="line"/>
      <point x="0" y="622" type="line"/>
      <point x="0" y="489" type="line"/>
      <point x="78" y="489" type="line"/>
      <point x="78" y="365" type="line"/>
      <point x="95" y="368" type="line" smooth="yes"/>
      <point x="38" y="368"/>
      <point x="22" y="337"/>
      <point x="22" y="295" type="curve" smooth="yes"/>
      <point x="22" y="225"/>
      <point x="88" y="128"/>
      <point x="163" y="128" type="curve" smooth="yes"/>
      <point x="208" y="128"/>
      <point x="228" y="156"/>
      <point x="228" y="211" type="curve" smooth="yes"/>
    </contour>
  </outline>
</glyph>
<glyph name="cadeva" format="2">
  <advance width="568"/>
  <unicode hex="091A"/>
  <outline>
    <contour>
      <point x="580" y="489" type="line"/>
      <point x="580" y="622" type="line"/>
      <point x="0" y="622" type="line"/>
      <point x="0" y="489" type="line"/>
      <point x="364" y="489" type="line"/>
      <point x="364" y="210" type="line"/>
      <point x="394" y="292" type="line"/>
      <point x="373" y="246"/>
      <point x="343" y="209"/>
      <point x="296" y="209" type="curve" smooth="yes"/>
      <point x="263" y="209"/>
      <point x="250" y="228"/>
      <point x="250" y="253" type="curve" smooth="yes"/>
      <point x="250" y="283"/>
      <point x="265" y="302"/>
      <point x="302" y="302" type="curve" smooth="yes"/>
      <point x="314" y="302" type="line"/>
      <point x="323" y="431" type="line"/>
      <point x="307" y="433"/>
      <point x="290" y="434"/>
      <point x="278" y="434" type="curve" smooth="yes"/>
      <point x="30" y="434" type="line"/>
      <point x="30" y="301" type="line"/>
      <point x="125" y="306" type="line"/>
      <point x="111" y="289"/>
      <point x="100" y="261"/>
      <point x="100" y="227" type="curve" smooth="yes"/>
      <point x="100" y="133"/>
      <point x="161" y="76"/>
      <point x="268" y="76" type="curve" smooth="yes"/>
      <point x="335" y="76"/>
      <point x="374" y="91"/>
      <point x="419" y="138" type="curve"/>
      <point x="364" y="177" type="line"/>
      <point x="364" y="0" type="line"/>
      <point x="514" y="0" type="line"/>
      <point x="514" y="489" type="line"/>
    </contour>
  </outline>
</glyph>
<glyph name="chadeva" format="2">
  <advance width="613"/>
  <unicode hex="091B"/>
  <outline>
    <contour>
      <point x="498" y="489" type="line"/>
      <point x="625" y="489" type="line"/>
      <point x="625" y="622" type="line"/>
      <point x="0" y="622" type="line"/>
      <point x="0" y="489" type="line"/>
      <point x="354" y="489" type="line"/>
      <point x="354" y="398" type="line"/>
      <point x="498" y="398" type="line"/>
    </contour>
    <contour>
      <point x="261" y="131" type="curve" smooth="yes"/>
      <point x="226" y="131"/>
      <point x="202" y="141"/>
      <point x="202" y="165" type="curve" smooth="yes"/>
      <point x="202" y="179"/>
      <point x="210" y="188"/>
      <point x="230" y="188" type="curve" smooth="yes"/>
      <point x="239" y="188"/>
      <point x="247" y="187"/>
      <point x="252" y="186" type="curve"/>
      <point x="261" y="298" type="line"/>
      <point x="247" y="301"/>
      <point x="233" y="303"/>
      <point x="213" y="303" type="curve" smooth="yes"/>
      <point x="183" y="303"/>
      <point x="150" y="297"/>
      <point x="123" y="274" type="curve" smooth="yes"/>
      <point x="120" y="273"/>
      <point x="118" y="267"/>
      <point x="115" y="262" type="curve"/>
      <point x="79" y="234"/>
      <point x="64" y="197"/>
      <point x="64" y="161" type="curve" smooth="yes"/>
      <point x="64" y="64"/>
      <point x="130" y="0"/>
      <point x="268" y="0" type="curve" smooth="yes"/>
      <point x="472" y="0"/>
      <point x="591" y="128"/>
      <point x="591" y="283" type="curve" smooth="yes"/>
      <point x="591" y="391"/>
      <point x="532" y="462"/>
      <point x="417" y="462" type="curve" smooth="yes"/>
      <point x="310" y="462"/>
      <point x="262" y="408"/>
      <point x="262" y="330" type="curve" smooth="yes"/>
      <point x="262" y="263"/>
      <point x="299" y="211"/>
      <point x="379" y="180" type="curve"/>
      <point x="427" y="284" type="line"/>
      <point x="391" y="296"/>
      <point x="385" y="310"/>
      <point x="385" y="328" type="curve" smooth="yes"/>
      <point x="385" y="345"/>
      <point x="398" y="355"/>
      <point x="411" y="355" type="curve" smooth="yes"/>
      <point x="436" y="355"/>
      <point x="445" y="331"/>
      <point x="445" y="292" type="curve" smooth="yes"/>
      <point x="445" y="200"/>
      <point x="369" y="131"/>
    </contour>
    <contour>
      <point x="182" y="181" type="curve"/>
      <point x="206" y="291" type="line"/>
      <point x="181" y="296"/>
      <point x="163" y="306"/>
      <point x="163" y="324" type="curve" smooth="yes"/>
      <point x="163" y="341"/>
      <point x="172" y="349"/>
      <point x="197" y="349" type="curve" smooth="yes"/>
      <point x="207" y="349"/>
      <point x="223" y="348"/>
      <point x="240" y="343" type="curve"/>
      <point x="249" y="456" type="line"/>
      <point x="228" y="462"/>
      <point x="199" y="464"/>
      <point x="181" y="464" type="curve" smooth="yes"/>
      <point x="79" y="464"/>
      <point x="22" y="418"/>
      <point x="22" y="337" type="curve" smooth="yes"/>
      <point x="22" y="252"/>
      <point x="90" y="202"/>
    </contour>
  </outline>
</glyph>
<glyph name="jhadeva" format="2">
  <advance width="653"/>
  <unicode hex="091D"/>
  <outline>
    <contour>
      <point x="599" y="489" type="line"/>
      <point x="665" y="489" type="line"/>
      <point x="665" y="622" type="line"/>
      <point x="397" y="622" type="line"/>
      <point x="397" y="489" type="line"/>
      <point x="449" y="489" type="line"/>
      <point x="449" y="0" type="line"/>
      <point x="599" y="0" type="line"/>
    </contour>
    <contour>
      <point x="196" y="185" type="curve" smooth="yes"/>
      <point x="235" y="185"/>
      <point x="247" y="175"/>
      <point x="247" y="156" type="curve" smooth="yes"/>
      <point x="247" y="135"/>
      <point x="234" y="123"/>
      <point x="190" y="123" type="curve" smooth="yes"/>
      <point x="168" y="123"/>
      <point x="138" y="126"/>
      <point x="99" y="141" type="curve"/>
      <point x="123" y="18" type="line"/>
      <point x="191" y="-37"/>
      <point x="257" y="-88"/>
      <point x="324" y="-130" type="curve"/>
      <point x="383" y="-23" type="line"/>
      <point x="334" y="-6"/>
      <point x="245" y="31"/>
      <point x="206" y="53" type="curve"/>
      <point x="181" y="122"/>
      <point x="139" y="160"/>
      <point x="92" y="160" type="curve" smooth="yes"/>
      <point x="54" y="160"/>
      <point x="24" y="136"/>
      <point x="24" y="90" type="curve" smooth="yes"/>
      <point x="24" y="17"/>
      <point x="84" y="0"/>
      <point x="180" y="0" type="curve" smooth="yes"/>
      <point x="198" y="0"/>
      <point x="201" y="4"/>
      <point x="205" y="4" type="curve" smooth="yes"/>
      <point x="352" y="4"/>
      <point x="395" y="71"/>
      <point x="395" y="158" type="curve" smooth="yes"/>
      <point x="395" y="234"/>
      <point x="349" y="300"/>
      <point x="235" y="300" type="curve" smooth="yes"/>
      <point x="213" y="300"/>
      <point x="196" y="298"/>
      <point x="177" y="294" type="curve"/>
      <point x="171" y="303"/>
      <point x="168" y="310"/>
      <point x="168" y="320" type="curve" smooth="yes"/>
      <point x="168" y="325"/>
      <point x="170" y="329"/>
      <point x="172" y="331" type="curve" smooth="yes"/>
      <point x="177" y="336"/>
      <point x="182" y="337"/>
      <point x="200" y="337" type="curve" smooth="yes"/>
      <point x="357" y="337" type="line"/>
      <point x="357" y="489" type="line"/>
      <point x="432" y="489" type="line"/>
      <point x="432" y="622" type="line"/>
      <point x="0" y="622" type="line"/>
      <point x="0" y="489" type="line"/>
      <point x="210" y="489" type="line"/>
      <point x="210" y="446" type="line"/>
      <point x="186" y="446" type="line" smooth="yes"/>
      <point x="111" y="446"/>
      <point x="80" y="431"/>
      <point x="59" y="412" type="curve" smooth="yes"/>
      <point x="35" y="391"/>
      <point x="24" y="361"/>
      <point x="24" y="326" type="curve" smooth="yes"/>
      <point x="24" y="266"/>
      <point x="62" y="215"/>
      <point x="113" y="174" type="curve"/>
      <point x="136" y="180"/>
      <point x="166" y="185"/>
    </contour>
    <contour>
      <point x="378" y="281" type="curve" smooth="yes"/>
      <point x="332" y="281"/>
      <point x="312" y="287"/>
      <point x="292" y="293" type="curve"/>
      <point x="291" y="261" type="line"/>
      <point x="314" y="164" type="line"/>
      <point x="325" y="159"/>
      <point x="349" y="154"/>
      <point x="399" y="154" type="curve" smooth="yes"/>
      <point x="420" y="154"/>
      <point x="449" y="157"/>
      <point x="487" y="178" type="curve"/>
      <point x="489" y="314" type="line"/>
      <point x="460" y="291"/>
      <point x="416" y="281"/>
    </contour>
  </outline>
</glyph>
<glyph name="ttadeva" format="2">
  <advance width="432"/>
  <unicode hex="091F"/>
  <outline>
    <contour>
      <point x="444" y="489" type="line"/>
      <point x="444" y="622" type="line"/>
      <point x="0" y="622" type="line"/>
      <point x="0" y="489" type="line"/>
      <point x="198" y="489" type="line"/>
      <point x="198" y="422" type="line"/>
      <point x="257" y="434" type="line"/>
      <point x="244" y="434" type="line"/>
      <point x="132" y="434"/>
      <point x="25" y="366"/>
      <point x="25" y="220" type="curve" smooth="yes"/>
      <point x="25" y="82"/>
      <point x="113" y="0"/>
      <point x="246" y="0" type="curve" smooth="yes"/>
      <point x="311" y="0"/>
      <point x="365" y="12"/>
      <point x="422" y="40" type="curve"/>
      <point x="375" y="169" type="line"/>
      <point x="333" y="146"/>
      <point x="302" y="135"/>
      <point x="260" y="135" type="curve" smooth="yes"/>
      <point x="212" y="135"/>
      <point x="177" y="160"/>
      <point x="177" y="216" type="curve" smooth="yes"/>
      <point x="177" y="248"/>
      <point x="190" y="269"/>
      <point x="209" y="282" type="curve" smooth="yes"/>
      <point x="234" y="299"/>
      <point x="269" y="303"/>
      <point x="321" y="303" type="curve" smooth="yes"/>
      <point x="346" y="303" type="line"/>
      <point x="346" y="489" type="line"/>
    </contour>
  </outline>
</glyph>
<glyph name="tthadeva" format="2">
  <advance width="482"/>
  <unicode hex="0920"/>
  <outline>
    <contour>
      <point x="494" y="489" type="line"/>
      <point x="494" y="622" type="line"/>
      <point x="0" y="622" type="line"/>
      <point x="0" y="489" type="line"/>
      <point x="197" y="489" type="line"/>
      <point x="197" y="411" type="line"/>
      <point x="270" y="434" type="line"/>
      <point x="244" y="434" type="line"/>
      <point x="132" y="434"/>
      <point x="25" y="365"/>
      <point x="25" y="221" type="curve" smooth="yes"/>
      <point x="25" y="83"/>
      <point x="110" y="0"/>
      <point x="249" y="0" type="curve" smooth="yes"/>
      <point x="375" y="0"/>
      <point x="460" y="64"/>
      <point x="460" y="204" type="curve" smooth="yes"/>
      <point x="460" y="293"/>
      <point x="424" y="371"/>
      <point x="345" y="423" type="curve"/>
      <point x="345" y="489" type="line"/>
    </contour>
    <contour>
      <point x="245" y="133" type="curve" smooth="yes"/>
      <point x="210" y="133"/>
      <point x="175" y="154"/>
      <point x="175" y="211" type="curve" smooth="yes"/>
      <point x="175" y="250"/>
      <point x="188" y="271"/>
      <point x="210" y="285" type="curve" smooth="yes"/>
      <point x="227" y="296"/>
      <point x="249" y="303"/>
      <point x="285" y="304" type="curve"/>
      <point x="272" y="304" type="line"/>
      <point x="295" y="283"/>
      <point x="313" y="248"/>
      <point x="313" y="208" type="curve" smooth="yes"/>
      <point x="313" y="158"/>
      <point x="287" y="133"/>
    </contour>
  </outline>
</glyph>
<glyph name="ddadeva" format="2">
  <advance width="508"/>
  <unicode hex="0921"/>
  <outline>
    <contour>
      <point x="285" y="185" type="curve" smooth="yes"/>
      <point x="323" y="185"/>
      <point x="335" y="175"/>
      <point x="335" y="157" type="curve" smooth="yes"/>
      <point x="335" y="136"/>
      <point x="320" y="129"/>
      <point x="284" y="129" type="curve" smooth="yes"/>
      <point x="218" y="129"/>
      <point x="169" y="163"/>
      <point x="105" y="218" type="curve"/>
      <point x="10" y="110" type="line"/>
      <point x="79" y="54"/>
      <point x="167" y="0"/>
      <point x="290" y="0" type="curve" smooth="yes"/>
      <point x="428" y="0"/>
      <point x="485" y="67"/>
      <point x="485" y="154" type="curve" smooth="yes"/>
      <point x="485" y="236"/>
      <point x="436" y="300"/>
      <point x="323" y="300" type="curve" smooth="yes"/>
      <point x="301" y="300"/>
      <point x="284" y="298"/>
      <point x="265" y="294" type="curve"/>
      <point x="259" y="303"/>
      <point x="256" y="310"/>
      <point x="256" y="320" type="curve" smooth="yes"/>
      <point x="256" y="325"/>
      <point x="258" y="329"/>
      <point x="260" y="331" type="curve" smooth="yes"/>
      <point x="265" y="336"/>
      <point x="270" y="337"/>
      <point x="288" y="337" type="curve" smooth="yes"/>
      <point x="444" y="337" type="line"/>
      <point x="444" y="489" type="line"/>
      <point x="520" y="489" type="line"/>
      <point x="520" y="622" type="line"/>
      <point x="0" y="622" type="line"/>
      <point x="0" y="489" type="line"/>
      <point x="298" y="489" type="line"/>
      <point x="298" y="446" type="line"/>
      <point x="273" y="446" type="line" smooth="yes"/>
      <point x="199" y="446"/>
      <point x="168" y="431"/>
      <point x="147" y="412" type="curve" smooth="yes"/>
      <point x="123" y="391"/>
      <point x="112" y="361"/>
      <point x="112" y="326" type="curve" smooth="yes"/>
      <point x="112" y="266"/>
      <point x="150" y="215"/>
      <point x="201" y="174" type="curve"/>
      <point x="224" y="180"/>
      <point x="254" y="185"/>
    </contour>
  </outline>
</glyph>
<glyph name="ddhadeva" format="2">
  <advance width="488"/>
  <unicode hex="0922"/>
  <outline>
    <contour>
      <point x="272" y="0" type="curve" smooth="yes"/>
      <point x="394" y="0"/>
      <point x="472" y="60"/>
      <point x="472" y="163" type="curve" smooth="yes"/>
      <point x="472" y="235"/>
      <point x="432" y="305"/>
      <point x="334" y="305" type="curve" smooth="yes"/>
      <point x="245" y="305"/>
      <point x="204" y="248"/>
      <point x="204" y="183" type="curve" smooth="yes"/>
      <point x="204" y="117"/>
      <point x="234" y="59"/>
      <point x="257" y="20" type="curve"/>
      <point x="362" y="49" type="line"/>
      <point x="332" y="78"/>
      <point x="303" y="117"/>
      <point x="303" y="158" type="curve" smooth="yes"/>
      <point x="303" y="175"/>
      <point x="310" y="193"/>
      <point x="331" y="193" type="curve" smooth="yes"/>
      <point x="346" y="193"/>
      <point x="354" y="182"/>
      <point x="354" y="164" type="curve" smooth="yes"/>
      <point x="354" y="137"/>
      <point x="330" y="123"/>
      <point x="300" y="123" type="curve" smooth="yes"/>
      <point x="280" y="123"/>
      <point x="265" y="120"/>
      <point x="258" y="121" type="curve"/>
      <point x="209" y="126"/>
      <point x="171" y="156"/>
      <point x="171" y="223" type="curve" smooth="yes"/>
      <point x="171" y="260"/>
      <point x="184" y="279"/>
      <point x="203" y="295" type="curve" smooth="yes"/>
      <point x="229" y="316"/>
      <point x="267" y="323"/>
      <point x="318" y="323" type="curve" smooth="yes"/>
      <point x="393" y="323" type="line"/>
      <point x="393" y="489" type="line"/>
      <point x="500" y="489" type="line"/>
      <point x="500" y="622" type="line"/>
      <point x="0" y="622" type="line"/>
      <point x="0" y="489" type="line"/>
      <point x="246" y="489" type="line"/>
      <point x="246" y="411" type="line"/>
      <point x="283" y="450" type="line"/>
      <point x="263" y="450" type="line"/>
      <point x="131" y="449"/>
      <point x="25" y="377"/>
      <point x="25" y="232" type="curve" smooth="yes"/>
      <point x="25" y="93"/>
      <point x="121" y="0"/>
    </contour>
  </outline>
</glyph>
<glyph name="nnadeva" format="2">
  <advance width="669"/>
  <unicode hex="0923"/>
  <outline>
    <contour>
      <point x="615" y="489" type="line"/>
      <point x="681" y="489" type="line"/>
      <point x="681" y="622" type="line"/>
      <point x="0" y="622" type="line"/>
      <point x="0" y="489" type="line"/>
      <point x="47" y="489" type="line"/>
      <point x="47" y="317" type="line" smooth="yes"/>
      <point x="47" y="243"/>
      <point x="61" y="200"/>
      <point x="93" y="163" type="curve" smooth="yes"/>
      <point x="122" y="130"/>
      <point x="167" y="111"/>
      <point x="228" y="111" type="curve" smooth="yes"/>
      <point x="298" y="111"/>
      <point x="342" y="130"/>
      <point x="370" y="164" type="curve" smooth="yes"/>
      <point x="397" y="197"/>
      <point x="406" y="242"/>
      <point x="406" y="314" type="curve" smooth="yes"/>
      <point x="406" y="489" type="line"/>
      <point x="465" y="489" type="line"/>
      <point x="465" y="0" type="line"/>
      <point x="615" y="0" type="line"/>
    </contour>
    <contour>
      <point x="226" y="243" type="curve" smooth="yes"/>
      <point x="216" y="243"/>
      <point x="209" y="247"/>
      <point x="205" y="253" type="curve" smooth="yes"/>
      <point x="197" y="264"/>
      <point x="197" y="282"/>
      <point x="197" y="304" type="curve" smooth="yes"/>
      <point x="197" y="489" type="line"/>
      <point x="256" y="489" type="line"/>
      <point x="256" y="303" type="line" smooth="yes"/>
      <point x="256" y="280"/>
      <point x="254" y="263"/>
      <point x="247" y="253" type="curve" smooth="yes"/>
      <point x="243" y="247"/>
      <point x="236" y="243"/>
    </contour>
  </outline>
</glyph>
<glyph name="tadeva" format="2">
  <advance width="505"/>
  <unicode hex="0924"/>
  <outline>
    <contour>
      <point x="451" y="489" type="line"/>
      <point x="517" y="489" type="line"/>
      <point x="517" y="622" type="line"/>
      <point x="0" y="622" type="line"/>
      <point x="0" y="489" type="line"/>
      <point x="301" y="489" type="line"/>
      <point x="301" y="406" type="line"/>
      <point x="256" y="406" type="line" smooth="yes"/>
      <point x="150" y="406"/>
      <point x="103" y="390"/>
      <point x="67" y="355" type="curve" smooth="yes"/>
      <point x="39" y="328"/>
      <point x="23" y="290"/>
      <point x="23" y="236" type="curve" smooth="yes"/>
      <point x="23" y="150"/>
      <point x="74" y="60"/>
      <point x="139" y="-22" type="curve"/>
      <point x="255" y="58" type="line"/>
      <point x="205" y="117"/>
      <point x="173" y="167"/>
      <point x="173" y="218" type="curve" smooth="yes"/>
      <point x="173" y="233"/>
      <point x="177" y="246"/>
      <point x="184" y="255" type="curve" smooth="yes"/>
      <point x="195" y="268"/>
      <point x="209" y="273"/>
      <point x="247" y="273" type="curve" smooth="yes"/>
      <point x="301" y="273" type="line"/>
      <point x="301" y="0" type="line"/>
      <point x="451" y="0" type="line"/>
    </contour>
  </outline>
</glyph>
<glyph name="thadeva" format="2">
  <advance width="611"/>
  <unicode hex="0925"/>
  <outline>
    <contour>
      <point x="407" y="204" type="line"/>
      <point x="407" y="0" type="line"/>
      <point x="557" y="0" type="line"/>
      <point x="557" y="489" type="line"/>
      <point x="623" y="489" type="line"/>
      <point x="623" y="622" type="line"/>
      <point x="380" y="622" type="line"/>
      <point x="380" y="489" type="line"/>
      <point x="407" y="489" type="line"/>
      <point x="407" y="234" type="line"/>
      <point x="420" y="299" type="line"/>
      <point x="396" y="255"/>
      <point x="366" y="230"/>
      <point x="317" y="230" type="curve" smooth="yes"/>
      <point x="276" y="230"/>
      <point x="250" y="265"/>
      <point x="245" y="311" type="curve"/>
      <point x="233" y="244" type="line"/>
      <point x="329" y="299"/>
      <point x="363" y="365"/>
      <point x="363" y="451" type="curve" smooth="yes"/>
      <point x="363" y="560"/>
      <point x="301" y="632"/>
      <point x="185" y="632" type="curve" smooth="yes"/>
      <point x="102" y="632"/>
      <point x="34" y="586"/>
      <point x="34" y="499" type="curve" smooth="yes"/>
      <point x="34" y="420"/>
      <point x="83" y="379"/>
      <point x="150" y="361" type="curve"/>
      <point x="188" y="461" type="line"/>
      <point x="164" y="466"/>
      <point x="152" y="476"/>
      <point x="152" y="496" type="curve" smooth="yes"/>
      <point x="152" y="513"/>
      <point x="164" y="523"/>
      <point x="178" y="523" type="curve" smooth="yes"/>
      <point x="206" y="523"/>
      <point x="216" y="494"/>
      <point x="216" y="464" type="curve" smooth="yes"/>
      <point x="216" y="401"/>
      <point x="181" y="348"/>
      <point x="94" y="322" type="curve"/>
      <point x="122" y="179"/>
      <point x="183" y="97"/>
      <point x="305" y="97" type="curve" smooth="yes"/>
      <point x="364" y="97"/>
      <point x="397" y="107"/>
      <point x="450" y="155" type="curve"/>
    </contour>
  </outline>
</glyph>
<glyph name="dhadeva" format="2">
  <advance width="584"/>
  <unicode hex="0927"/>
  <outline>
    <contour>
      <point x="596" y="489" type="line"/>
      <point x="596" y="622" type="line"/>
      <point x="348" y="622" type="line"/>
      <point x="348" y="489" type="line"/>
      <point x="380" y="489" type="line"/>
      <point x="380" y="208" type="line"/>
      <point x="395" y="286" type="line"/>
      <point x="374" y="240"/>
      <point x="339" y="208"/>
      <point x="294" y="208" type="curve" smooth="yes"/>
      <point x="268" y="208"/>
      <point x="251" y="217"/>
      <point x="251" y="243" type="curve" smooth="yes"/>
      <point x="251" y="268"/>
      <point x="267" y="279"/>
      <point x="289" y="279" type="curve" smooth="yes"/>
      <point x="295" y="279"/>
      <point x="301" y="279"/>
      <point x="307" y="278" type="curve"/>
      <point x="319" y="408" type="line"/>
      <point x="306" y="411"/>
      <point x="282" y="412"/>
      <point x="275" y="412" type="curve" smooth="yes"/>
      <point x="230" y="412"/>
      <point x="187" y="401"/>
      <point x="162" y="380" type="curve" smooth="yes"/>
      <point x="158" y="377"/>
      <point x="159" y="369"/>
      <point x="155" y="365" type="curve" smooth="yes"/>
      <point x="119" y="335"/>
      <point x="101" y="289"/>
      <point x="101" y="243" type="curve" smooth="yes"/>
      <point x="101" y="142"/>
      <point x="162" y="75"/>
      <point x="272" y="75" type="curve" smooth="yes"/>
      <point x="341" y="75"/>
      <point x="369" y="92"/>
      <point x="413" y="128" type="curve"/>
      <point x="380" y="149" type="line"/>
      <point x="380" y="0" type="line"/>
      <point x="530" y="0" type="line"/>
      <point x="530" y="489" type="line"/>
    </contour>
    <contour>
      <point x="232" y="295" type="curve"/>
      <point x="250" y="403" type="line"/>
      <point x="208" y="409"/>
      <point x="156" y="430"/>
      <point x="156" y="474" type="curve" smooth="yes"/>
      <point x="156" y="498"/>
      <point x="171" y="516"/>
      <point x="190" y="516" type="curve" smooth="yes"/>
      <point x="207" y="516"/>
      <point x="213" y="506"/>
      <point x="213" y="494" type="curve" smooth="yes"/>
      <point x="213" y="480"/>
      <point x="206" y="467"/>
      <point x="202" y="461" type="curve"/>
      <point x="296" y="419" type="line"/>
      <point x="311" y="444"/>
      <point x="324" y="466"/>
      <point x="324" y="512" type="curve" smooth="yes"/>
      <point x="324" y="579"/>
      <point x="270" y="632"/>
      <point x="190" y="632" type="curve" smooth="yes"/>
      <point x="92" y="632"/>
      <point x="29" y="565"/>
      <point x="29" y="477" type="curve" smooth="yes"/>
      <point x="29" y="360"/>
      <point x="128" y="303"/>
    </contour>
  </outline>
</glyph>
<glyph name="nadeva" format="2">
  <advance width="510"/>
  <unicode hex="0928"/>
  <outline>
    <contour>
      <point x="0" y="622" type="line"/>
      <point x="0" y="489" type="line"/>
      <point x="306" y="489" type="line"/>
      <point x="306" y="376" type="line"/>
      <point x="99" y="376" type="line" smooth="yes"/>
      <point x="38" y="376"/>
      <point x="22" y="345"/>
      <point x="22" y="303" type="curve" smooth="yes"/>
      <point x="22" y="233"/>
      <point x="88" y="136"/>
      <point x="163" y="136" type="curve" smooth="yes"/>
      <point x="208" y="136"/>
      <point x="228" y="164"/>
      <point x="228" y="219" type="curve" smooth="yes"/>
      <point x="228" y="243" type="line"/>
      <point x="306" y="243" type="line"/>
      <point x="306" y="0" type="line"/>
      <point x="456" y="0" type="line"/>
      <point x="456" y="489" type="line"/>
      <point x="522" y="489" type="line"/>
      <point x="522" y="622" type="line"/>
    </contour>
  </outline>
</glyph>
<glyph name="padeva" format="2">
  <advance width="502"/>
  <unicode hex="092A"/>
  <outline>
    <contour>
      <point x="448" y="489" type="line"/>
      <point x="514" y="489" type="line"/>
      <point x="514" y="622" type="line"/>
      <point x="0" y="622" type="line"/>
      <point x="0" y="489" type="line"/>
      <point x="44" y="489" type="line"/>
      <point x="44" y="325" type="line" smooth="yes"/>
      <point x="44" y="238"/>
      <point x="57" y="200"/>
      <point x="81" y="171" type="curve" smooth="yes"/>
      <point x="107" y="139"/>
      <point x="147" y="116"/>
      <point x="213" y="116" type="curve" smooth="yes"/>
      <point x="276" y="116"/>
      <point x="315" y="136"/>
      <point x="362" y="184" type="curve"/>
      <point x="298" y="216" type="line"/>
      <point x="298" y="0" type="line"/>
      <point x="448" y="0" type="line"/>
    </contour>
    <contour>
      <point x="298" y="489" type="line"/>
      <point x="298" y="224" type="line"/>
      <point x="326" y="315" type="line"/>
      <point x="302" y="272"/>
      <point x="270" y="248"/>
      <point x="234" y="248" type="curve" smooth="yes"/>
      <point x="220" y="248"/>
      <point x="211" y="252"/>
      <point x="205" y="260" type="curve" smooth="yes"/>
      <point x="195" y="273"/>
      <point x="194" y="287"/>
      <point x="194" y="322" type="curve" smooth="yes"/>
      <point x="194" y="489" type="line"/>
    </contour>
  </outline>
</glyph>
<glyph name="phadeva" format="2">
  <advance width="673"/>
  <unicode hex="092B"/>
  <outline>
    <contour>
      <point x="437" y="489" type="line"/>
      <point x="685" y="489" type="line"/>
      <point x="685" y="622" type="line"/>
      <point x="0" y="622" type="line"/>
      <point x="0" y="489" type="line"/>
      <point x="44" y="489" type="line"/>
      <point x="44" y="325" type="line" smooth="yes"/>
      <point x="44" y="238"/>
      <point x="57" y="200"/>
      <point x="81" y="171" type="curve" smooth="yes"/>
      <point x="107" y="139"/>
      <point x="147" y="116"/>
      <point x="206" y="116" type="curve" smooth="yes"/>
      <point x="250" y="116"/>
      <point x="287" y="124"/>
      <point x="333" y="166" type="curve"/>
      <point x="287" y="197" type="line"/>
      <point x="287" y="0" type="line"/>
      <point x="437" y="0" type="line"/>
      <point x="437" y="258" type="line"/>
      <point x="429" y="221" type="line"/>
      <point x="442" y="250"/>
      <point x="458" y="267"/>
      <point x="475" y="267" type="curve" smooth="yes"/>
      <point x="489" y="267"/>
      <point x="499" y="256"/>
      <point x="499" y="224" type="curve" smooth="yes"/>
      <point x="499" y="179"/>
      <point x="483" y="131"/>
      <point x="463" y="88" type="curve"/>
      <point x="594" y="25" type="line"/>
      <point x="634" y="103"/>
      <point x="649" y="169"/>
      <point x="649" y="233" type="curve" smooth="yes"/>
      <point x="649" y="341"/>
      <point x="595" y="400"/>
      <point x="515" y="400" type="curve" smooth="yes"/>
      <point x="478" y="400"/>
      <point x="448" y="387"/>
      <point x="420" y="362" type="curve"/>
      <point x="437" y="329" type="line"/>
    </contour>
    <contour>
      <point x="194" y="489" type="line"/>
      <point x="287" y="489" type="line"/>
      <point x="287" y="220" type="line"/>
      <point x="311" y="306" type="line"/>
      <point x="298" y="281"/>
      <point x="271" y="248"/>
      <point x="233" y="248" type="curve" smooth="yes"/>
      <point x="220" y="248"/>
      <point x="211" y="252"/>
      <point x="205" y="260" type="curve" smooth="yes"/>
      <point x="195" y="273"/>
      <point x="194" y="287"/>
      <point x="194" y="322" type="curve" smooth="yes"/>
    </contour>
  </outline>
</glyph>
<glyph name="badeva" format="2">
  <advance width="503"/>
  <unicode hex="092C"/>
  <outline>
    <contour>
      <point x="515" y="489" type="line"/>
      <point x="515" y="622" type="line"/>
      <point x="0" y="622" type="line"/>
      <point x="0" y="489" type="line"/>
      <point x="299" y="489" type="line"/>
      <point x="299" y="193" type="line"/>
      <point x="327" y="287" type="line"/>
      <point x="303" y="233"/>
      <point x="267" y="197"/>
      <point x="216" y="197" type="curve" smooth="yes"/>
      <point x="181" y="197"/>
      <point x="156" y="212"/>
      <point x="156" y="259" type="curve" smooth="yes"/>
      <point x="156" y="300"/>
      <point x="186" y="320"/>
      <point x="220" y="320" type="curve" smooth="yes"/>
      <point x="240" y="320"/>
      <point x="254" y="318"/>
      <point x="266" y="315" type="curve"/>
      <point x="277" y="434" type="line"/>
      <point x="252" y="440"/>
      <point x="230" y="442"/>
      <point x="203" y="442" type="curve" smooth="yes"/>
      <point x="82" y="442"/>
      <point x="23" y="371"/>
      <point x="23" y="263" type="curve" smooth="yes"/>
      <point x="23" y="139"/>
      <point x="91" y="76"/>
      <point x="207" y="76" type="curve" smooth="yes"/>
      <point x="260" y="76"/>
      <point x="309" y="91"/>
      <point x="354" y="138" type="curve"/>
      <point x="299" y="176" type="line"/>
      <point x="299" y="0" type="line"/>
      <point x="449" y="0" type="line"/>
      <point x="449" y="489" type="line"/>
    </contour>
    <contour>
      <point x="185" y="397" type="line"/>
      <point x="114" y="371" type="line"/>
      <point x="253" y="138" type="line"/>
      <point x="311" y="182" type="line"/>
    </contour>
  </outline>
</glyph>
<glyph name="bhadeva" format="2">
  <advance width="650"/>
  <unicode hex="092D"/>
  <outline>
    <contour>
      <point x="185" y="632" type="curve" smooth="yes"/>
      <point x="99" y="632"/>
      <point x="34" y="591"/>
      <point x="34" y="500" type="curve" smooth="yes"/>
      <point x="34" y="410"/>
      <point x="98" y="366"/>
      <point x="176" y="357" type="curve"/>
      <point x="184" y="461" type="line"/>
      <point x="163" y="465"/>
      <point x="152" y="476"/>
      <point x="152" y="495" type="curve" smooth="yes"/>
      <point x="152" y="513"/>
      <point x="164" y="523"/>
      <point x="178" y="523" type="curve" smooth="yes"/>
      <point x="188" y="523"/>
      <point x="195" y="520"/>
      <point x="200" y="514" type="curve" smooth="yes"/>
      <point x="208" y="504"/>
      <point x="210" y="487"/>
      <point x="210" y="456" type="curve" smooth="yes"/>
      <point x="210" y="332" type="line"/>
      <point x="220" y="333" type="line"/>
      <point x="167" y="333"/>
      <point x="151" y="302"/>
      <point x="151" y="265" type="curve" smooth="yes"/>
      <point x="151" y="199"/>
      <point x="216" y="105"/>
      <point x="291" y="105" type="curve" smooth="yes"/>
      <point x="336" y="105"/>
      <point x="356" y="132"/>
      <point x="356" y="188" type="curve" smooth="yes"/>
      <point x="356" y="200" type="line"/>
      <point x="446" y="200" type="line"/>
      <point x="446" y="0" type="line"/>
      <point x="596" y="0" type="line"/>
      <point x="596" y="489" type="line"/>
      <point x="662" y="489" type="line"/>
      <point x="662" y="622" type="line"/>
      <point x="403" y="622" type="line"/>
      <point x="403" y="489" type="line"/>
      <point x="446" y="489" type="line"/>
      <point x="446" y="333" type="line"/>
      <point x="356" y="333" type="line"/>
      <point x="356" y="436" type="line" smooth="yes"/>
      <point x="356" y="523"/>
      <point x="338" y="563"/>
      <point x="304" y="593" type="curve" smooth="yes"/>
      <point x="275" y="619"/>
      <point x="236" y="632"/>
    </contour>
  </outline>
</glyph>
<glyph name="madeva" format="2">
  <advance width="535"/>
  <unicode hex="092E"/>
  <outline>
    <contour>
      <point x="481" y="489" type="line"/>
      <point x="547" y="489" type="line"/>
      <point x="547" y="622" type="line"/>
      <point x="0" y="622" type="line"/>
      <point x="0" y="489" type="line"/>
      <point x="78" y="489" type="line"/>
      <point x="78" y="332" type="line"/>
      <point x="91" y="333" type="line"/>
      <point x="38" y="333"/>
      <point x="22" y="302"/>
      <point x="22" y="265" type="curve" smooth="yes"/>
      <point x="22" y="199"/>
      <point x="88" y="105"/>
      <point x="163" y="105" type="curve" smooth="yes"/>
      <point x="208" y="105"/>
      <point x="228" y="132"/>
      <point x="228" y="188" type="curve" smooth="yes"/>
      <point x="228" y="200" type="line"/>
      <point x="332" y="200" type="line"/>
      <point x="332" y="0" type="line"/>
      <point x="481" y="0" type="line"/>
    </contour>
    <contour>
      <point x="331" y="489" type="line"/>
      <point x="331" y="333" type="line"/>
      <point x="228" y="333" type="line"/>
      <point x="228" y="489" type="line"/>
    </contour>
  </outline>
</glyph>
<glyph name="yadeva" format="2">
  <advance width="522"/>
  <unicode hex="092F"/>
  <outline>
    <contour>
      <point x="534" y="622" type="line"/>
      <point x="0" y="622" type="line"/>
      <point x="0" y="489" type="line"/>
      <point x="161" y="489" type="line"/>
      <point x="68" y="526" type="line"/>
      <point x="81" y="509"/>
      <point x="94" y="470"/>
      <point x="94" y="444" type="curve" smooth="yes"/>
      <point x="94" y="395"/>
      <point x="74" y="366"/>
      <point x="17" y="349" type="curve"/>
      <point x="41" y="190"/>
      <point x="101" y="97"/>
      <point x="220" y="97" type="curve" smooth="yes"/>
      <point x="283" y="97"/>
      <point x="317" y="107"/>
      <point x="368" y="156" type="curve"/>
      <point x="318" y="209" type="line"/>
      <point x="318" y="0" type="line"/>
      <point x="468" y="0" type="line"/>
      <point x="468" y="489" type="line"/>
      <point x="534" y="489" type="line"/>
    </contour>
    <contour>
      <point x="161" y="489" type="line"/>
      <point x="318" y="489" type="line"/>
      <point x="318" y="228" type="line"/>
      <point x="338" y="304" type="line"/>
      <point x="315" y="256"/>
      <point x="287" y="230"/>
      <point x="238" y="230" type="curve" smooth="yes"/>
      <point x="205" y="230"/>
      <point x="186" y="253"/>
      <point x="175" y="291" type="curve"/>
      <point x="216" y="315"/>
      <point x="244" y="354"/>
      <point x="244" y="420" type="curve" smooth="yes"/>
      <point x="244" y="469"/>
      <point x="226" y="506"/>
      <point x="209" y="540" type="curve"/>
    </contour>
  </outline>
</glyph>
<glyph name="radeva" format="2">
  <advance width="364"/>
  <unicode hex="0930"/>
  <outline>
    <contour>
      <point x="306" y="489" type="line"/>
      <point x="376" y="489" type="line"/>
      <point x="376" y="622" type="line"/>
      <point x="0" y="622" type="line"/>
      <point x="0" y="489" type="line"/>
      <point x="205" y="489" type="line"/>
      <point x="156" y="531" type="line"/>
      <point x="170" y="505"/>
      <point x="177" y="475"/>
      <point x="177" y="437" type="curve" smooth="yes"/>
      <point x="177" y="391"/>
      <point x="163" y="359"/>
      <point x="139" y="338" type="curve"/>
      <point x="219" y="299" type="line"/>
      <point x="183" y="367"/>
      <point x="145" y="399"/>
      <point x="99" y="399" type="curve" smooth="yes"/>
      <point x="42" y="399"/>
      <point x="20" y="361"/>
      <point x="20" y="319" type="curve" smooth="yes"/>
      <point x="20" y="283"/>
      <point x="35" y="246"/>
      <point x="62" y="204" type="curve" smooth="yes"/>
      <point x="104" y="139"/>
      <point x="148" y="78"/>
      <point x="227" y="-19" type="curve"/>
      <point x="347" y="68" type="line"/>
      <point x="286" y="133"/>
      <point x="227" y="204"/>
      <point x="195" y="247" type="curve"/>
      <point x="199" y="212" type="line"/>
      <point x="277" y="247"/>
      <point x="327" y="313"/>
      <point x="327" y="412" type="curve" smooth="yes"/>
      <point x="327" y="466"/>
      <point x="317" y="499"/>
      <point x="308" y="527" type="curve"/>
    </contour>
  </outline>
</glyph>
<glyph name="ladeva" format="2">
  <advance width="601"/>
  <unicode hex="0932"/>
  <outline>
    <contour>
      <point x="0" y="489" type="line"/>
      <point x="397" y="489" type="line"/>
      <point x="397" y="409" type="line"/>
      <point x="478" y="389" type="line"/>
      <point x="477" y="412" type="line"/>
      <point x="466" y="417"/>
      <point x="442" y="422"/>
      <point x="420" y="422" type="curve" smooth="yes"/>
      <point x="315" y="422"/>
      <point x="243" y="357"/>
      <point x="216" y="211" type="curve"/>
      <point x="348" y="175" type="line"/>
      <point x="364" y="277"/>
      <point x="392" y="299"/>
      <point x="426" y="299" type="curve" smooth="yes"/>
      <point x="449" y="299"/>
      <point x="459" y="293"/>
      <point x="473" y="287" type="curve"/>
      <point x="397" y="345" type="line"/>
      <point x="397" y="0" type="line"/>
      <point x="547" y="0" type="line"/>
      <point x="547" y="489" type="line"/>
      <point x="613" y="489" type="line"/>
      <point x="613" y="622" type="line"/>
      <point x="0" y="622" type="line"/>
    </contour>
    <contour>
      <point x="258" y="236" type="curve"/>
      <point x="331" y="354" type="line"/>
      <point x="278" y="402"/>
      <point x="242" y="424"/>
      <point x="176" y="424" type="curve" smooth="yes"/>
      <point x="111" y="424"/>
      <point x="23" y="383"/>
      <point x="23" y="255" type="curve" smooth="yes"/>
      <point x="23" y="174"/>
      <point x="75" y="77"/>
      <point x="156" y="-19" type="curve"/>
      <point x="272" y="61" type="line"/>
      <point x="216" y="129"/>
      <point x="173" y="189"/>
      <point x="173" y="248" type="curve" smooth="yes"/>
      <point x="173" y="269"/>
      <point x="180" y="290"/>
      <point x="202" y="290" type="curve" smooth="yes"/>
      <point x="220" y="290"/>
      <point x="236" y="272"/>
    </contour>
  </outline>
</glyph>
<glyph name="lladeva" format="2">
  <advance width="648"/>
  <unicode hex="0933"/>
  <outline>
    <contour>
      <point x="0" y="489" type="line"/>
      <point x="371" y="489" type="line"/>
      <point x="371" y="399" type="line"/>
      <point x="515" y="399" type="line"/>
      <point x="515" y="489" type="line"/>
      <point x="660" y="489" type="line"/>
      <point x="660" y="622" type="line"/>
      <point x="0" y="622" type="line"/>
    </contour>
    <contour>
      <point x="309" y="235" type="curve"/>
      <point x="365" y="353" type="line"/>
      <point x="302" y="423"/>
      <point x="261" y="445"/>
      <point x="198" y="445" type="curve" smooth="yes"/>
      <point x="91" y="445"/>
      <point x="26" y="370"/>
      <point x="26" y="237" type="curve" smooth="yes"/>
      <point x="26" y="92"/>
      <point x="105" y="24"/>
      <point x="208" y="24" type="curve" smooth="yes"/>
      <point x="268" y="24"/>
      <point x="340" y="41"/>
      <point x="381" y="179" type="curve" smooth="yes"/>
      <point x="406" y="265" type="line" smooth="yes"/>
      <point x="416" y="299"/>
      <point x="425" y="311"/>
      <point x="441" y="311" type="curve" smooth="yes"/>
      <point x="461" y="311"/>
      <point x="474" y="294"/>
      <point x="474" y="249" type="curve" smooth="yes"/>
      <point x="474" y="182"/>
      <point x="451" y="158"/>
      <point x="419" y="158" type="curve" smooth="yes"/>
      <point x="390" y="158"/>
      <point x="372" y="180"/>
      <point x="338" y="234" type="curve"/>
      <point x="283" y="117" type="line"/>
      <point x="339" y="50"/>
      <point x="386" y="24"/>
      <point x="450" y="24" type="curve" smooth="yes"/>
      <point x="557" y="24"/>
      <point x="622" y="98"/>
      <point x="622" y="230" type="curve" smooth="yes"/>
      <point x="622" y="366"/>
      <point x="556" y="444"/>
      <point x="442" y="444" type="curve" smooth="yes"/>
      <point x="378" y="444"/>
      <point x="305" y="427"/>
      <point x="266" y="290" type="curve" smooth="yes"/>
      <point x="242" y="204" type="line" smooth="yes"/>
      <point x="232" y="170"/>
      <point x="223" y="158"/>
      <point x="208" y="158" type="curve" smooth="yes"/>
      <point x="187" y="158"/>
      <point x="174" y="175"/>
      <point x="174" y="219" type="curve" smooth="yes"/>
      <point x="174" y="287"/>
      <point x="197" y="311"/>
      <point x="229" y="311" type="curve" smooth="yes"/>
      <point x="258" y="311"/>
      <point x="275" y="289"/>
    </contour>
  </outline>
</glyph>
<glyph name="vadeva" format="2">
  <advance width="492"/>
  <unicode hex="0935"/>
  <outline>
    <contour>
      <point x="504" y="489" type="line"/>
      <point x="504" y="622" type="line"/>
      <point x="0" y="622" type="line"/>
      <point x="0" y="489" type="line"/>
      <point x="288" y="489" type="line"/>
      <point x="288" y="188" type="line"/>
      <point x="316" y="292" type="line"/>
      <point x="295" y="246"/>
      <point x="262" y="209"/>
      <point x="216" y="209" type="curve" smooth="yes"/>
      <point x="193" y="209"/>
      <point x="173" y="218"/>
      <point x="173" y="258" type="curve" smooth="yes"/>
      <point x="173" y="290"/>
      <point x="190" y="308"/>
      <point x="218" y="308" type="curve" smooth="yes"/>
      <point x="233" y="308"/>
      <point x="243" y="306"/>
      <point x="254" y="303" type="curve"/>
      <point x="266" y="434" type="line"/>
      <point x="241" y="440"/>
      <point x="222" y="442"/>
      <point x="196" y="442" type="curve" smooth="yes"/>
      <point x="81" y="442"/>
      <point x="23" y="371"/>
      <point x="23" y="263" type="curve" smooth="yes"/>
      <point x="23" y="135"/>
      <point x="91" y="76"/>
      <point x="202" y="76" type="curve" smooth="yes"/>
      <point x="259" y="76"/>
      <point x="298" y="91"/>
      <point x="343" y="138" type="curve"/>
      <point x="288" y="176" type="line"/>
      <point x="288" y="0" type="line"/>
      <point x="438" y="0" type="line"/>
      <point x="438" y="489" type="line"/>
    </contour>
  </outline>
</glyph>
<glyph name="shadeva" format="2">
  <advance width="634"/>
  <unicode hex="0936"/>
  <outline>
    <contour>
      <point x="580" y="489" type="line"/>
      <point x="646" y="489" type="line"/>
      <point x="646" y="622" type="line"/>
      <point x="386" y="622" type="line"/>
      <point x="386" y="489" type="line"/>
      <point x="430" y="489" type="line"/>
      <point x="430" y="0" type="line"/>
      <point x="580" y="0" type="line"/>
    </contour>
    <contour>
      <point x="125" y="140" type="curve" smooth="yes"/>
      <point x="273" y="141"/>
      <point x="384" y="251"/>
      <point x="384" y="416" type="curve" smooth="yes"/>
      <point x="384" y="552"/>
      <point x="309" y="632"/>
      <point x="195" y="632" type="curve" smooth="yes"/>
      <point x="90" y="632"/>
      <point x="34" y="571"/>
      <point x="34" y="498" type="curve" smooth="yes"/>
      <point x="34" y="406"/>
      <point x="86" y="359"/>
      <point x="182" y="341" type="curve"/>
      <point x="212" y="446" type="line"/>
      <point x="184" y="454"/>
      <point x="163" y="463"/>
      <point x="163" y="493" type="curve" smooth="yes"/>
      <point x="163" y="510"/>
      <point x="176" y="521"/>
      <point x="192" y="521" type="curve" smooth="yes"/>
      <point x="218" y="521"/>
      <point x="234" y="494"/>
      <point x="234" y="434" type="curve" smooth="yes"/>
      <point x="234" y="342"/>
      <point x="191" y="275"/>
      <point x="107" y="262" type="curve"/>
      <point x="107" y="220" type="line"/>
      <point x="163" y="160"/>
      <point x="222" y="78"/>
      <point x="277" y="-8" type="curve"/>
      <point x="396" y="68" type="line"/>
      <point x="351" y="129"/>
      <point x="288" y="202"/>
      <point x="242" y="246" type="curve"/>
      <point x="232" y="257" type="line"/>
      <point x="192" y="300"/>
      <point x="149" y="320"/>
      <point x="106" y="320" type="curve" smooth="yes"/>
      <point x="54" y="320"/>
      <point x="20" y="290"/>
      <point x="20" y="238" type="curve" smooth="yes"/>
      <point x="20" y="171"/>
      <point x="70" y="140"/>
    </contour>
  </outline>
</glyph>
<glyph name="ssadeva" format="2">
  <advance width="516"/>
  <unicode hex="0937"/>
  <outline>
    <contour>
      <point x="528" y="622" type="line"/>
      <point x="0" y="622" type="line"/>
      <point x="0" y="489" type="line"/>
      <point x="44" y="489" type="line"/>
      <point x="44" y="325" type="line" smooth="yes"/>
      <point x="44" y="238"/>
      <point x="57" y="200"/>
      <point x="81" y="171" type="curve" smooth="yes"/>
      <point x="107" y="139"/>
      <point x="147" y="116"/>
      <point x="217" y="116" type="curve" smooth="yes"/>
      <point x="284" y="116"/>
      <point x="315" y="132"/>
      <point x="366" y="179" type="curve"/>
      <point x="313" y="216" type="line"/>
      <point x="313" y="0" type="line"/>
      <point x="462" y="0" type="line"/>
      <point x="462" y="489" type="line"/>
      <point x="528" y="489" type="line"/>
    </contour>
    <contour>
      <point x="312" y="489" type="line"/>
      <point x="312" y="284" type="line"/>
      <point x="301" y="275" type="line"/>
      <point x="278" y="253"/>
      <point x="259" y="248"/>
      <point x="236" y="248" type="curve" smooth="yes"/>
      <point x="214" y="248"/>
      <point x="205" y="254"/>
      <point x="199" y="264" type="curve" smooth="yes"/>
      <point x="192" y="277"/>
      <point x="190" y="291"/>
      <point x="190" y="323" type="curve" smooth="yes"/>
      <point x="190" y="489" type="line"/>
    </contour>
    <contour>
      <point x="155" y="479" type="line"/>
      <point x="276" y="244" type="line"/>
      <point x="332" y="292" type="line"/>
      <point x="212" y="529" type="line"/>
    </contour>
  </outline>
</glyph>
<glyph name="sadeva" format="2">
  <advance width="600"/>
  <unicode hex="0938"/>
  <outline>
    <contour>
      <point x="264" y="489" type="line"/>
      <point x="355" y="489" type="line"/>
      <point x="355" y="622" type="line"/>
      <point x="0" y="622" type="line"/>
      <point x="0" y="489" type="line"/>
      <point x="205" y="489" type="line"/>
      <point x="119" y="534" type="line"/>
      <point x="134" y="512"/>
      <point x="143" y="474"/>
      <point x="143" y="437" type="curve" smooth="yes"/>
      <point x="143" y="397"/>
      <point x="132" y="360"/>
      <point x="113" y="325" type="curve"/>
      <point x="214" y="290" type="line"/>
      <point x="174" y="351"/>
      <point x="145" y="399"/>
      <point x="92" y="399" type="curve" smooth="yes"/>
      <point x="42" y="399"/>
      <point x="20" y="362"/>
      <point x="20" y="319" type="curve" smooth="yes"/>
      <point x="20" y="285"/>
      <point x="34" y="245"/>
      <point x="60" y="203" type="curve" smooth="yes"/>
      <point x="115" y="112"/>
      <point x="149" y="73"/>
      <point x="220" y="-19" type="curve"/>
      <point x="340" y="68" type="line"/>
      <point x="293" y="122"/>
      <point x="233" y="191"/>
      <point x="194" y="244" type="curve"/>
      <point x="177" y="222" type="line"/>
      <point x="200" y="235"/>
      <point x="225" y="253"/>
      <point x="243" y="277" type="curve"/>
      <point x="257" y="302" type="line"/>
      <point x="274" y="328"/>
      <point x="291" y="363"/>
      <point x="291" y="416" type="curve" smooth="yes"/>
      <point x="291" y="467"/>
      <point x="279" y="501"/>
      <point x="269" y="530" type="curve"/>
    </contour>
    <contour>
      <point x="546" y="489" type="line"/>
      <point x="612" y="489" type="line"/>
      <point x="612" y="622" type="line"/>
      <point x="320" y="622" type="line"/>
      <point x="320" y="489" type="line"/>
      <point x="396" y="489" type="line"/>
      <point x="396" y="0" type="line"/>
      <point x="546" y="0" type="line"/>
    </contour>
    <contour>
      <point x="321" y="339" type="curve" smooth="yes"/>
      <point x="280" y="339"/>
      <point x="255" y="345"/>
      <point x="204" y="362" type="curve"/>
      <point x="195" y="250" type="line"/>
      <point x="227" y="227"/>
      <point x="276" y="206"/>
      <point x="335" y="206" type="curve" smooth="yes"/>
      <point x="367" y="206"/>
      <point x="411" y="213"/>
      <point x="454" y="235" type="curve"/>
      <point x="455" y="369" type="line"/>
      <point x="396" y="343"/>
      <point x="373" y="339"/>
    </contour>
  </outline>
</glyph>
<glyph name="hadeva" format="2">
  <advance width="454"/>
  <unicode hex="0939"/>
  <outline>
    <contour>
      <point x="94" y="170" type="curve"/>
      <point x="231" y="223" type="line"/>
      <point x="202" y="245"/>
      <point x="181" y="267"/>
      <point x="181" y="293" type="curve" smooth="yes"/>
      <point x="181" y="301"/>
      <point x="183" y="306"/>
      <point x="187" y="310" type="curve" smooth="yes"/>
      <point x="193" y="316"/>
      <point x="201" y="319"/>
      <point x="222" y="319" type="curve" smooth="yes"/>
      <point x="400" y="319" type="line"/>
      <point x="400" y="489" type="line"/>
      <point x="466" y="489" type="line"/>
      <point x="466" y="622" type="line"/>
      <point x="0" y="622" type="line"/>
      <point x="0" y="489" type="line"/>
      <point x="252" y="489" type="line"/>
      <point x="252" y="446" type="line"/>
      <point x="228" y="446" type="line" smooth="yes"/>
      <point x="137" y="446"/>
      <point x="103" y="434"/>
      <point x="73" y="407" type="curve" smooth="yes"/>
      <point x="50" y="386"/>
      <point x="34" y="355"/>
      <point x="34" y="316" type="curve" smooth="yes"/>
      <point x="34" y="246"/>
      <point x="68" y="203"/>
    </contour>
    <contour>
      <point x="244" y="77" type="curve"/>
      <point x="304" y="-43" type="line"/>
      <point x="387" y="-9"/>
      <point x="431" y="31"/>
      <point x="431" y="112" type="curve" smooth="yes"/>
      <point x="431" y="196"/>
      <point x="379" y="271"/>
      <point x="239" y="271" type="curve" smooth="yes"/>
      <point x="129" y="271"/>
      <point x="26" y="211"/>
      <point x="26" y="87" type="curve" smooth="yes"/>
      <point x="26" y="-6"/>
      <point x="66" y="-71"/>
      <point x="145" y="-163" type="curve"/>
      <point x="261" y="-83" type="line"/>
      <point x="200" y="-18"/>
      <point x="176" y="27"/>
      <point x="176" y="77" type="curve" smooth="yes"/>
      <point x="176" y="119"/>
      <point x="202" y="144"/>
      <point x="242" y="144" type="curve" smooth="yes"/>
      <point x="269" y="144"/>
      <point x="283" y="132"/>
      <point x="283" y="114" type="curve" smooth="yes"/>
      <point x="283" y="95"/>
      <point x="269" y="85"/>
    </contour>
  </outline>
</glyph>
<glyph name="nuktadeva" format="2">
  <unicode hex="093C"/>
  <outline>
    <contour>
      <point x="-278" y="-134" type="curve" smooth="yes"/>
      <point x="-278" y="-180"/>
      <point x="-251" y="-212"/>
      <point x="-205" y="-212" type="curve" smooth="yes"/>
      <point x="-160" y="-212"/>
      <point x="-133" y="-180"/>
      <point x="-133" y="-134" type="curve" smooth="yes"/>
      <point x="-133" y="-89"/>
      <point x="-160" y="-56"/>
      <point x="-205" y="-56" type="curve" smooth="yes"/>
      <point x="-251" y="-56"/>
      <point x="-278" y="-89"/>
    </contour>
  </outline>
</glyph>
<glyph name="avagrahadeva" format="2">
  <advance width="450"/>
  <unicode hex="093D"/>
  <outline>
    <contour>
      <point x="428" y="186" type="curve" smooth="yes"/>
      <point x="428" y="250"/>
      <point x="408" y="303"/>
      <point x="335" y="387" type="curve" smooth="yes"/>
      <point x="290" y="439"/>
      <point x="280" y="452"/>
      <point x="280" y="468" type="curve" smooth="yes"/>
      <point x="280" y="474"/>
      <point x="282" y="479"/>
      <point x="286" y="483" type="curve" smooth="yes"/>
      <point x="291" y="488"/>
      <point x="298" y="489"/>
      <point x="312" y="489" type="curve" smooth="yes"/>
      <point x="410" y="489" type="line"/>
      <point x="410" y="622" type="line"/>
      <point x="334" y="622" type="line" smooth="yes"/>
      <point x="251" y="622"/>
      <point x="215" y="612"/>
      <point x="181" y="587" type="curve" smooth="yes"/>
      <point x="147" y="562"/>
      <point x="129" y="526"/>
      <point x="129" y="475" type="curve" smooth="yes"/>
      <point x="129" y="408"/>
      <point x="165" y="358"/>
      <point x="218" y="295" type="curve" smooth="yes"/>
      <point x="270" y="233"/>
      <point x="276" y="213"/>
      <point x="276" y="191" type="curve" smooth="yes"/>
      <point x="276" y="175"/>
      <point x="266" y="163"/>
      <point x="246" y="163" type="curve" smooth="yes"/>
      <point x="210" y="163"/>
      <point x="181" y="202"/>
      <point x="149" y="303" type="curve"/>
      <point x="18" y="265" type="line"/>
      <point x="73" y="74"/>
      <point x="160" y="27"/>
      <point x="257" y="27" type="curve" smooth="yes"/>
      <point x="369" y="27"/>
      <point x="428" y="85"/>
    </contour>
  </outline>
</glyph>
<glyph name="aavowelsigndeva" format="2">
  <advance width="258"/>
  <unicode hex="093E"/>
  <outline>
    <contour>
      <point x="204" y="489" type="line"/>
      <point x="270" y="489" type="line"/>
      <point x="270" y="622" type="line"/>
      <point x="0" y="622" type="line"/>
      <point x="0" y="489" type="line"/>
      <point x="54" y="489" type="line"/>
      <point x="54" y="0" type="line"/>
      <point x="204" y="0" type="line"/>
    </contour>
  </outline>
</glyph>
<glyph name="iivowelsigndeva" format="2">
  <advance width="258"/>
  <unicode hex="0940"/>
  <outline>
    <contour>
      <point x="-201" y="615" type="curve"/>
      <point x="-60" y="615" type="line"/>
      <point x="-67" y="638"/>
      <point x="-74" y="668"/>
      <point x="-74" y="701" type="curve" smooth="yes"/>
      <point x="-74" y="744"/>
      <point x="-58" y="763"/>
      <point x="-31" y="763" type="curve" smooth="yes"/>
      <point x="12" y="763"/>
      <point x="36" y="703"/>
      <point x="57" y="622" type="curve"/>
      <point x="0" y="622" type="line"/>
      <point x="0" y="489" type="line"/>
      <point x="54" y="489" type="line"/>
      <point x="54" y="0" type="line"/>
      <point x="204" y="0" type="line"/>
      <point x="204" y="489" type="line"/>
      <point x="270" y="489" type="line"/>
      <point x="270" y="622" type="line"/>
      <point x="189" y="622" type="line"/>
      <point x="160" y="778"/>
      <point x="103" y="896"/>
      <point x="-46" y="896" type="curve" smooth="yes"/>
      <point x="-152" y="896"/>
      <point x="-222" y="832"/>
      <point x="-222" y="733" type="curve" smooth="yes"/>
      <point x="-222" y="693"/>
      <point x="-213" y="650"/>
    </contour>
  </outline>
</glyph>
<glyph name="uvowelsigndeva" format="2">
  <unicode hex="0941"/>
  <outline>
    <contour>
      <point x="-242" y="19" type="curve"/>
      <point x="-202" y="-88" type="line"/>
      <point x="-190" y="-83"/>
      <point x="-175" y="-80"/>
      <point x="-164" y="-80" type="curve" smooth="yes"/>
      <point x="-140" y="-80"/>
      <point x="-130" y="-93"/>
      <point x="-130" y="-115" type="curve" smooth="yes"/>
      <point x="-130" y="-134"/>
      <point x="-142" y="-148"/>
      <point x="-170" y="-148" type="curve" smooth="yes"/>
      <point x="-215" y="-148"/>
      <point x="-248" y="-129"/>
      <point x="-304" y="-40" type="curve"/>
      <point x="-412" y="-98" type="line"/>
      <point x="-345" y="-203"/>
      <point x="-272" y="-268"/>
      <point x="-161" y="-268" type="curve" smooth="yes"/>
      <point x="-55" y="-268"/>
      <point x="-1" y="-204"/>
      <point x="-1" y="-117" type="curve" smooth="yes"/>
      <point x="-1" y="-26"/>
      <point x="-55" y="39"/>
      <point x="-143" y="39" type="curve" smooth="yes"/>
      <point x="-180" y="39"/>
      <point x="-210" y="32"/>
    </contour>
  </outline>
</glyph>
<glyph name="uuvowelsigndeva" format="2">
  <unicode hex="0942"/>
  <outline>
    <contour>
      <point x="-66" y="-249" type="curve"/>
      <point x="-107" y="-141" type="line"/>
      <point x="-119" y="-146"/>
      <point x="-133" y="-149"/>
      <point x="-145" y="-149" type="curve" smooth="yes"/>
      <point x="-168" y="-149"/>
      <point x="-178" y="-137"/>
      <point x="-178" y="-115" type="curve" smooth="yes"/>
      <point x="-178" y="-95"/>
      <point x="-164" y="-81"/>
      <point x="-139" y="-81" type="curve" smooth="yes"/>
      <point x="-89" y="-81"/>
      <point x="-58" y="-126"/>
      <point x="2" y="-236" type="curve"/>
      <point x="113" y="-186" type="line"/>
      <point x="42" y="-46"/>
      <point x="-31" y="39"/>
      <point x="-150" y="39" type="curve" smooth="yes"/>
      <point x="-252" y="39"/>
      <point x="-307" y="-25"/>
      <point x="-307" y="-112" type="curve" smooth="yes"/>
      <point x="-307" y="-200"/>
      <point x="-253" y="-268"/>
      <point x="-167" y="-268" type="curve" smooth="yes"/>
      <point x="-126" y="-268"/>
      <point x="-96" y="-262"/>
    </contour>
  </outline>
</glyph>
<glyph name="rvocalicvowelsigndeva" format="2">
  <unicode hex="0943"/>
  <outline>
    <contour>
      <point x="39" y="-237" type="curve"/>
      <point x="-7" y="-129" type="line"/>
      <point x="-35" y="-144"/>
      <point x="-57" y="-149"/>
      <point x="-78" y="-149" type="curve" smooth="yes"/>
      <point x="-95" y="-149"/>
      <point x="-118" y="-143"/>
      <point x="-118" y="-115" type="curve" smooth="yes"/>
      <point x="-118" y="-89"/>
      <point x="-96" y="-70"/>
      <point x="-46" y="-59" type="curve"/>
      <point x="-63" y="59" type="line"/>
      <point x="-183" y="43"/>
      <point x="-253" y="-12"/>
      <point x="-253" y="-112" type="curve" smooth="yes"/>
      <point x="-253" y="-207"/>
      <point x="-190" y="-268"/>
      <point x="-99" y="-268" type="curve" smooth="yes"/>
      <point x="-41" y="-268"/>
      <point x="2" y="-254"/>
    </contour>
  </outline>
</glyph>
<glyph name="rrvocalicvowelsigndeva" format="2">
  <unicode hex="0944"/>
  <outline>
    <contour>
      <point x="39" y="-205" type="curve"/>
      <point x="-5" y="-103" type="line"/>
      <point x="-31" y="-117"/>
      <point x="-54" y="-125"/>
      <point x="-81" y="-125" type="curve" smooth="yes"/>
      <point x="-103" y="-125"/>
      <point x="-118" y="-118"/>
      <point x="-118" y="-97" type="curve" smooth="yes"/>
      <point x="-118" y="-75"/>
      <point x="-99" y="-61"/>
      <point x="-47" y="-50" type="curve"/>
      <point x="-63" y="59" type="line"/>
      <point x="-179" y="45"/>
      <point x="-253" y="-6"/>
      <point x="-253" y="-98" type="curve" smooth="yes"/>
      <point x="-253" y="-182"/>
      <point x="-200" y="-238"/>
      <point x="-98" y="-238" type="curve" smooth="yes"/>
      <point x="-45" y="-238"/>
      <point x="3" y="-222"/>
    </contour>
    <contour>
      <point x="80" y="-361" type="curve"/>
      <point x="36" y="-259" type="line"/>
      <point x="10" y="-273"/>
      <point x="-13" y="-281"/>
      <point x="-41" y="-281" type="curve" smooth="yes"/>
      <point x="-62" y="-281"/>
      <point x="-77" y="-275"/>
      <point x="-77" y="-255" type="curve" smooth="yes"/>
      <point x="-77" y="-243"/>
      <point x="-72" y="-229"/>
      <point x="-60" y="-220" type="curve"/>
      <point x="-158" y="-150" type="line"/>
      <point x="-187" y="-175"/>
      <point x="-212" y="-206"/>
      <point x="-212" y="-254" type="curve" smooth="yes"/>
      <point x="-212" y="-338"/>
      <point x="-159" y="-394"/>
      <point x="-57" y="-394" type="curve" smooth="yes"/>
      <point x="-3" y="-394"/>
      <point x="44" y="-378"/>
    </contour>
  </outline>
</glyph>
<glyph name="ecandravowelsigndeva" format="2">
  <unicode hex="0945"/>
  <outline>
    <contour>
      <point x="48" y="871" type="curve"/>
      <point x="-57" y="896" type="line"/>
      <point x="-63" y="796"/>
      <point x="-88" y="762"/>
      <point x="-143" y="762" type="curve" smooth="yes"/>
      <point x="-193" y="762"/>
      <point x="-219" y="796"/>
      <point x="-241" y="896" type="curve"/>
      <point x="-340" y="865" type="line"/>
      <point x="-306" y="720"/>
      <point x="-250" y="651"/>
      <point x="-143" y="651" type="curve" smooth="yes"/>
      <point x="-25" y="651"/>
      <point x="31" y="714"/>
    </contour>
  </outline>
</glyph>
<glyph name="eshortvowelsigndeva" format="2">
  <unicode hex="0946"/>
  <outline>
    <contour>
      <point x="-199" y="615" type="curve"/>
      <point x="-69" y="615" type="line"/>
      <point x="-102" y="797"/>
      <point x="-144" y="832"/>
      <point x="-202" y="832" type="curve" smooth="yes"/>
      <point x="-226" y="832"/>
      <point x="-243" y="829"/>
      <point x="-256" y="829" type="curve" smooth="yes"/>
      <point x="-285" y="829"/>
      <point x="-300" y="844"/>
      <point x="-315" y="896" type="curve"/>
      <point x="-424" y="865" type="line"/>
      <point x="-394" y="748"/>
      <point x="-354" y="709"/>
      <point x="-301" y="709" type="curve" smooth="yes"/>
      <point x="-291" y="709"/>
      <point x="-272" y="711"/>
      <point x="-261" y="711" type="curve" smooth="yes"/>
      <point x="-230" y="711"/>
      <point x="-217" y="693"/>
    </contour>
  </outline>
</glyph>
<glyph name="evowelsigndeva" format="2">
  <unicode hex="0947"/>
  <outline>
    <contour>
      <point x="-199" y="615" type="curve"/>
      <point x="-69" y="615" type="line"/>
      <point x="-112" y="852"/>
      <point x="-188" y="896"/>
      <point x="-274" y="896" type="curve" smooth="yes"/>
      <point x="-304" y="896"/>
      <point x="-338" y="888"/>
      <point x="-365" y="876" type="curve"/>
      <point x="-327" y="751" type="line"/>
      <point x="-313" y="757"/>
      <point x="-298" y="760"/>
      <point x="-283" y="760" type="curve" smooth="yes"/>
      <point x="-239" y="760"/>
      <point x="-223" y="715"/>
    </contour>
  </outline>
</glyph>
<glyph name="aivowelsigndeva" format="2">
  <unicode hex="0948"/>
  <outline>
    <contour>
      <point x="-204" y="615" type="curve"/>
      <point x="-69" y="615" type="line"/>
      <point x="-112" y="852"/>
      <point x="-188" y="896"/>
      <point x="-274" y="896" type="curve" smooth="yes"/>
      <point x="-304" y="896"/>
      <point x="-338" y="888"/>
      <point x="-365" y="878" type="curve"/>
      <point x="-338" y="786" type="line"/>
      <point x="-321" y="793"/>
      <point x="-302" y="797"/>
      <point x="-284" y="797" type="curve" smooth="yes"/>
      <point x="-254" y="797"/>
      <point x="-234" y="785"/>
      <point x="-204" y="713" type="curve"/>
      <point x="-208" y="713" type="line"/>
      <point x="-241" y="761"/>
      <point x="-266" y="766"/>
      <point x="-299" y="766" type="curve" smooth="yes"/>
      <point x="-322" y="766"/>
      <point x="-351" y="759"/>
      <point x="-376" y="748" type="curve"/>
      <point x="-346" y="653" type="line"/>
      <point x="-325" y="662"/>
      <point x="-303" y="667"/>
      <point x="-288" y="667" type="curve" smooth="yes"/>
      <point x="-262" y="667"/>
      <point x="-239" y="661"/>
    </contour>
  </outline>
</glyph>
<glyph name="viramadeva" format="2">
  <unicode hex="094D"/>
  <outline>
    <contour>
      <point x="-213" y="-29" type="curve"/>
      <point x="-189" y="-152" type="line"/>
      <point x="-175" y="-148"/>
      <point x="-159" y="-147"/>
      <point x="-146" y="-147" type="curve" smooth="yes"/>
      <point x="-94" y="-147"/>
      <point x="-67" y="-173"/>
      <point x="-10" y="-268" type="curve"/>
      <point x="99" y="-213" type="line"/>
      <point x="33" y="-89"/>
      <point x="-28" y="-20"/>
      <point x="-135" y="-20" type="curve" smooth="yes"/>
      <point x="-167" y="-20"/>
      <point x="-190" y="-23"/>
    </contour>
  </outline>
</glyph>
<glyph name="uni094E" format="2">
  <advance width="272"/>
  <unicode hex="094E"/>
  <outline>
    <contour>
      <point x="218" y="489" type="line"/>
      <point x="284" y="489" type="line"/>
      <point x="284" y="622" type="line"/>
      <point x="68" y="622" type="line"/>
      <point x="68" y="0" type="line"/>
      <point x="218" y="0" type="line"/>
    </contour>
  </outline>
</glyph>
<glyph name="omdeva" format="2">
  <advance width="858"/>
  <unicode hex="0950"/>
  <outline>
    <contour>
      <point x="354" y="400" type="curve"/>
      <point x="302" y="333" type="line"/>
      <point x="318" y="242"/>
      <point x="382" y="208"/>
      <point x="448" y="208" type="curve" smooth="yes"/>
      <point x="506" y="208"/>
      <point x="545" y="235"/>
      <point x="582" y="313" type="curve" smooth="yes"/>
      <point x="614" y="381" type="line" smooth="yes"/>
      <point x="626" y="407"/>
      <point x="637" y="414"/>
      <point x="648" y="414" type="curve" smooth="yes"/>
      <point x="666" y="414"/>
      <point x="677" y="398"/>
      <point x="677" y="350" type="curve" smooth="yes"/>
      <point x="677" y="298"/>
      <point x="663" y="276"/>
      <point x="637" y="276" type="curve" smooth="yes"/>
      <point x="623" y="276"/>
      <point x="609" y="281"/>
      <point x="595" y="291" type="curve"/>
      <point x="524" y="181" type="line"/>
      <point x="554" y="160"/>
      <point x="600" y="142"/>
      <point x="657" y="142" type="curve" smooth="yes"/>
      <point x="774" y="142"/>
      <point x="827" y="215"/>
      <point x="827" y="349" type="curve" smooth="yes"/>
      <point x="827" y="468"/>
      <point x="763" y="547"/>
      <point x="650" y="547" type="curve" smooth="yes"/>
      <point x="569" y="547"/>
      <point x="520" y="513"/>
      <point x="477" y="426" type="curve" smooth="yes"/>
      <point x="450" y="371" type="line" smooth="yes"/>
      <point x="436" y="341"/>
      <point x="424" y="331"/>
      <point x="403" y="331" type="curve" smooth="yes"/>
      <point x="385" y="331"/>
      <point x="368" y="356"/>
    </contour>
    <contour>
      <point x="121" y="602" type="curve"/>
      <point x="167" y="478" type="line"/>
      <point x="192" y="492"/>
      <point x="217" y="498"/>
      <point x="237" y="498" type="curve" smooth="yes"/>
      <point x="268" y="498"/>
      <point x="281" y="482"/>
      <point x="281" y="459" type="curve" smooth="yes"/>
      <point x="281" y="432"/>
      <point x="259" y="416"/>
      <point x="213" y="412" type="curve"/>
      <point x="229" y="286" type="line"/>
      <point x="350" y="301"/>
      <point x="430" y="354"/>
      <point x="430" y="467" type="curve" smooth="yes"/>
      <point x="430" y="563"/>
      <point x="367" y="632"/>
      <point x="262" y="632" type="curve" smooth="yes"/>
      <point x="205" y="632"/>
      <point x="164" y="619"/>
    </contour>
    <contour>
      <point x="441" y="210" type="curve" smooth="yes"/>
      <point x="441" y="260"/>
      <point x="420" y="309"/>
      <point x="374" y="343" type="curve"/>
      <point x="312" y="365" type="line"/>
      <point x="241" y="326" type="line"/>
      <point x="268" y="293"/>
      <point x="292" y="268"/>
      <point x="292" y="222" type="curve" smooth="yes"/>
      <point x="292" y="204"/>
      <point x="284" y="188"/>
      <point x="260" y="188" type="curve" smooth="yes"/>
      <point x="218" y="188"/>
      <point x="183" y="243"/>
      <point x="151" y="381" type="curve"/>
      <point x="15" y="346" type="line"/>
      <point x="71" y="124"/>
      <point x="146" y="53"/>
      <point x="271" y="53" type="curve" smooth="yes"/>
      <point x="382" y="53"/>
      <point x="441" y="108"/>
    </contour>
    <contour>
      <point x="433" y="822" type="curve" smooth="yes"/>
      <point x="433" y="785"/>
      <point x="455" y="760"/>
      <point x="489" y="760" type="curve" smooth="yes"/>
      <point x="525" y="760"/>
      <point x="546" y="783"/>
      <point x="546" y="820" type="curve" smooth="yes"/>
      <point x="546" y="855"/>
      <point x="525" y="878"/>
      <point x="489" y="878" type="curve" smooth="yes"/>
      <point x="453" y="878"/>
      <point x="433" y="855"/>
    </contour>
    <contour>
      <point x="679" y="853" type="curve"/>
      <point x="576" y="878" type="line"/>
      <point x="567" y="774"/>
      <point x="547" y="730"/>
      <point x="488" y="730" type="curve" smooth="yes"/>
      <point x="437" y="730"/>
      <point x="412" y="773"/>
      <point x="386" y="878" type="curve"/>
      <point x="291" y="847" type="line"/>
      <point x="326" y="698"/>
      <point x="385" y="628"/>
      <point x="488" y="628" type="curve" smooth="yes"/>
      <point x="599" y="628"/>
      <point x="662" y="688"/>
    </contour>
  </outline>
</glyph>
<glyph name="anudattadeva" format="2">
  <unicode hex="0952"/>
  <outline>
    <contour>
      <point x="-377" y="-61" type="line"/>
      <point x="-377" y="-164" type="line"/>
      <point x="-53" y="-164" type="line"/>
      <point x="-53" y="-61" type="line"/>
    </contour>
  </outline>
</glyph>
<glyph name="uni0953" format="2">
  <unicode hex="0953"/>
  <outline>
    <contour>
      <point x="-181" y="683" type="line"/>
      <point x="-68" y="683" type="line"/>
      <point x="-123" y="889" type="line"/>
      <point x="-269" y="889" type="line"/>
    </contour>
  </outline>
</glyph>
<glyph name="uni0954" format="2">
  <unicode hex="0954"/>
  <outline>
    <contour>
      <point x="10" y="889" type="line"/>
      <point x="-136" y="889" type="line"/>
      <point x="-191" y="683" type="line"/>
      <point x="-77" y="683" type="line"/>
    </contour>
  </outline>
</glyph>
<glyph name="candralongevowelsigndeva" format="2">
  <unicode hex="0955"/>
  <outline>
    <contour>
      <point x="-305" y="735" type="line"/>
      <point x="-305" y="648" type="line"/>
      <point x="9" y="648" type="line"/>
      <point x="9" y="735" type="line"/>
    </contour>
    <contour>
      <point x="11" y="873" type="curve"/>
      <point x="-86" y="896" type="line"/>
      <point x="-95" y="826"/>
      <point x="-115" y="805"/>
      <point x="-145" y="805" type="curve" smooth="yes"/>
      <point x="-176" y="805"/>
      <point x="-197" y="823"/>
      <point x="-216" y="897" type="curve"/>
      <point x="-308" y="866" type="line"/>
      <point x="-282" y="782"/>
      <point x="-233" y="724"/>
      <point x="-145" y="724" type="curve" smooth="yes"/>
      <point x="-53" y="724"/>
      <point x="-7" y="772"/>
    </contour>
  </outline>
</glyph>
<glyph name="uevowelsigndeva" format="2">
  <unicode hex="0956"/>
  <outline>
    <contour>
      <point x="-245" y="-212" type="curve" smooth="yes"/>
      <point x="-169" y="-212"/>
      <point x="-109" y="-186"/>
      <point x="-64" y="-150" type="curve"/>
      <point x="-106" y="-38" type="line"/>
      <point x="-157" y="-72"/>
      <point x="-199" y="-81"/>
      <point x="-245" y="-81" type="curve" smooth="yes"/>
      <point x="-300" y="-81"/>
      <point x="-342" y="-67"/>
      <point x="-385" y="-38" type="curve"/>
      <point x="-427" y="-150" type="line"/>
      <point x="-382" y="-187"/>
      <point x="-320" y="-212"/>
    </contour>
  </outline>
</glyph>
<glyph name="uuevowelsigndeva" format="2">
  <unicode hex="0957"/>
  <outline>
    <contour>
      <point x="-236" y="-146" type="curve" smooth="yes"/>
      <point x="-175" y="-146"/>
      <point x="-124" y="-132"/>
      <point x="-64" y="-96" type="curve"/>
      <point x="-91" y="-10" type="line"/>
      <point x="-136" y="-35"/>
      <point x="-174" y="-49"/>
      <point x="-236" y="-49" type="curve" smooth="yes"/>
      <point x="-295" y="-49"/>
      <point x="-333" y="-35"/>
      <point x="-378" y="-10" type="curve"/>
      <point x="-405" y="-96" type="line"/>
      <point x="-345" y="-132"/>
      <point x="-295" y="-146"/>
    </contour>
    <contour>
      <point x="-236" y="-268" type="curve" smooth="yes"/>
      <point x="-164" y="-268"/>
      <point x="-114" y="-252"/>
      <point x="-64" y="-221" type="curve"/>
      <point x="-87" y="-136" type="line"/>
      <point x="-137" y="-161"/>
      <point x="-181" y="-171"/>
      <point x="-236" y="-171" type="curve" smooth="yes"/>
      <point x="-288" y="-171"/>
      <point x="-332" y="-161"/>
      <point x="-382" y="-136" type="curve"/>
      <point x="-405" y="-221" type="line"/>
      <point x="-360" y="-250"/>
      <point x="-304" y="-268"/>
    </contour>
  </outline>
</glyph>
<glyph name="rrvocalicdeva" format="2">
  <advance width="757"/>
  <unicode hex="0960"/>
  <outline>
    <contour>
      <point x="444" y="489" type="line"/>
      <point x="769" y="489" type="line"/>
      <point x="769" y="622" type="line"/>
      <point x="0" y="622" type="line"/>
      <point x="0" y="489" type="line"/>
      <point x="295" y="489" type="line"/>
      <point x="295" y="0" type="line"/>
      <point x="444" y="0" type="line"/>
    </contour>
    <contour>
      <point x="16" y="395" type="curve"/>
      <point x="62" y="266" type="line"/>
      <point x="91" y="282"/>
      <point x="118" y="294"/>
      <point x="147" y="294" type="curve" smooth="yes"/>
      <point x="173" y="294"/>
      <point x="189" y="287"/>
      <point x="220" y="239" type="curve"/>
      <point x="315" y="268" type="line"/>
      <point x="311" y="301" type="line"/>
      <point x="257" y="391"/>
      <point x="224" y="431"/>
      <point x="147" y="431" type="curve" smooth="yes"/>
      <point x="102" y="431"/>
      <point x="60" y="417"/>
    </contour>
    <contour>
      <point x="118" y="26" type="line"/>
      <point x="363" y="219" type="line"/>
      <point x="268" y="290" type="line"/>
      <point x="34" y="135" type="line"/>
    </contour>
    <contour>
      <point x="419" y="326" type="curve"/>
      <point x="413" y="203" type="line"/>
      <point x="468" y="206"/>
      <point x="504" y="212"/>
      <point x="545" y="228" type="curve"/>
      <point x="554" y="204"/>
      <point x="566" y="174"/>
      <point x="581" y="142" type="curve"/>
      <point x="660" y="140" type="line"/>
      <point x="686" y="181" type="line"/>
      <point x="667" y="215"/>
      <point x="655" y="241"/>
      <point x="642" y="269" type="curve"/>
      <point x="660" y="283"/>
      <point x="671" y="311"/>
      <point x="671" y="343" type="curve" smooth="yes"/>
      <point x="671" y="388"/>
      <point x="647" y="436"/>
      <point x="583" y="436" type="curve" smooth="yes"/>
      <point x="543" y="436"/>
      <point x="504" y="408"/>
      <point x="504" y="352" type="curve" smooth="yes"/>
      <point x="504" y="337"/>
      <point x="507" y="322"/>
      <point x="510" y="312" type="curve"/>
      <point x="529" y="349" type="line"/>
      <point x="499" y="333"/>
      <point x="450" y="328"/>
    </contour>
    <contour>
      <point x="773" y="-8" type="curve"/>
      <point x="729" y="94" type="line"/>
      <point x="703" y="80"/>
      <point x="680" y="72"/>
      <point x="653" y="72" type="curve" smooth="yes"/>
      <point x="631" y="72"/>
      <point x="616" y="79"/>
      <point x="616" y="100" type="curve" smooth="yes"/>
      <point x="616" y="122"/>
      <point x="635" y="132"/>
      <point x="660" y="140" type="curve"/>
      <point x="597" y="240" type="line"/>
      <point x="525" y="216"/>
      <point x="481" y="169"/>
      <point x="481" y="99" type="curve" smooth="yes"/>
      <point x="481" y="15"/>
      <point x="534" y="-41"/>
      <point x="636" y="-41" type="curve" smooth="yes"/>
      <point x="689" y="-41"/>
      <point x="737" y="-25"/>
    </contour>
    <contour>
      <point x="814" y="-164" type="curve"/>
      <point x="770" y="-62" type="line"/>
      <point x="744" y="-76"/>
      <point x="721" y="-84"/>
      <point x="693" y="-84" type="curve" smooth="yes"/>
      <point x="672" y="-84"/>
      <point x="657" y="-78"/>
      <point x="657" y="-58" type="curve" smooth="yes"/>
      <point x="657" y="-46"/>
      <point x="662" y="-32"/>
      <point x="674" y="-23" type="curve"/>
      <point x="576" y="47" type="line"/>
      <point x="547" y="22"/>
      <point x="522" y="-9"/>
      <point x="522" y="-57" type="curve" smooth="yes"/>
      <point x="522" y="-141"/>
      <point x="575" y="-197"/>
      <point x="677" y="-197" type="curve" smooth="yes"/>
      <point x="731" y="-197"/>
      <point x="778" y="-181"/>
    </contour>
  </outline>
</glyph>
<glyph name="llvocalicdeva" format="2">
  <advance width="618"/>
  <unicode hex="0961"/>
  <outline>
    <contour>
      <point x="682" y="-200" type="curve"/>
      <point x="638" y="-98" type="line"/>
      <point x="612" y="-112"/>
      <point x="589" y="-120"/>
      <point x="561" y="-120" type="curve" smooth="yes"/>
      <point x="540" y="-120"/>
      <point x="525" y="-114"/>
      <point x="525" y="-94" type="curve" smooth="yes"/>
      <point x="525" y="-82"/>
      <point x="530" y="-68"/>
      <point x="542" y="-59" type="curve"/>
      <point x="444" y="11" type="line"/>
      <point x="415" y="-14"/>
      <point x="390" y="-45"/>
      <point x="390" y="-93" type="curve" smooth="yes"/>
      <point x="390" y="-177"/>
      <point x="443" y="-233"/>
      <point x="545" y="-233" type="curve" smooth="yes"/>
      <point x="599" y="-233"/>
      <point x="646" y="-217"/>
    </contour>
    <contour>
      <point x="641" y="-44" type="curve"/>
      <point x="597" y="58" type="line"/>
      <point x="571" y="44"/>
      <point x="548" y="36"/>
      <point x="521" y="36" type="curve" smooth="yes"/>
      <point x="499" y="36"/>
      <point x="484" y="43"/>
      <point x="484" y="64" type="curve" smooth="yes"/>
      <point x="484" y="86"/>
      <point x="503" y="101"/>
      <point x="561" y="112" type="curve"/>
      <point x="539" y="220" type="line"/>
      <point x="423" y="206"/>
      <point x="349" y="155"/>
      <point x="349" y="63" type="curve" smooth="yes"/>
      <point x="349" y="-21"/>
      <point x="402" y="-77"/>
      <point x="504" y="-77" type="curve" smooth="yes"/>
      <point x="557" y="-77"/>
      <point x="605" y="-61"/>
    </contour>
    <contour>
      <point x="588" y="257" type="curve" smooth="yes"/>
      <point x="588" y="351"/>
      <point x="541" y="422"/>
      <point x="422" y="422" type="curve" smooth="yes"/>
      <point x="315" y="422"/>
      <point x="243" y="357"/>
      <point x="216" y="211" type="curve"/>
      <point x="348" y="175" type="line"/>
      <point x="365" y="276"/>
      <point x="392" y="292"/>
      <point x="411" y="292" type="curve" smooth="yes"/>
      <point x="425" y="292"/>
      <point x="441" y="282"/>
      <point x="441" y="250" type="curve" smooth="yes"/>
      <point x="441" y="208"/>
      <point x="428" y="171"/>
      <point x="414" y="133" type="curve"/>
      <point x="561" y="112" type="line"/>
      <point x="575" y="156"/>
      <point x="588" y="196"/>
    </contour>
    <contour>
      <point x="176" y="424" type="curve" smooth="yes"/>
      <point x="111" y="424"/>
      <point x="23" y="383"/>
      <point x="23" y="255" type="curve" smooth="yes"/>
      <point x="23" y="174"/>
      <point x="75" y="77"/>
      <point x="156" y="-19" type="curve"/>
      <point x="272" y="61" type="line"/>
      <point x="216" y="129"/>
      <point x="173" y="189"/>
      <point x="173" y="248" type="curve" smooth="yes"/>
      <point x="173" y="269"/>
      <point x="180" y="290"/>
      <point x="202" y="290" type="curve" smooth="yes"/>
      <point x="220" y="290"/>
      <point x="236" y="272"/>
      <point x="258" y="236" type="curve"/>
      <point x="331" y="354" type="line"/>
      <point x="278" y="402"/>
      <point x="242" y="424"/>
    </contour>
    <contour>
      <point x="357" y="489" type="line"/>
      <point x="357" y="404" type="line"/>
      <point x="504" y="366" type="line"/>
      <point x="504" y="489" type="line"/>
      <point x="630" y="489" type="line"/>
      <point x="630" y="622" type="line"/>
      <point x="0" y="622" type="line"/>
      <point x="0" y="489" type="line"/>
    </contour>
  </outline>
</glyph>
<glyph name="lvocalicvowelsigndeva" format="2">
  <unicode hex="0962"/>
  <outline>
    <contour>
      <point x="-219" y="-117" type="curve"/>
      <point x="-171" y="-28" type="line"/>
      <point x="-211" y="4"/>
      <point x="-245" y="14"/>
      <point x="-286" y="14" type="curve" smooth="yes"/>
      <point x="-357" y="14"/>
      <point x="-414" y="-30"/>
      <point x="-414" y="-115" type="curve" smooth="yes"/>
      <point x="-414" y="-189"/>
      <point x="-382" y="-253"/>
      <point x="-304" y="-349" type="curve"/>
      <point x="-210" y="-279" type="line"/>
      <point x="-262" y="-218"/>
      <point x="-292" y="-173"/>
      <point x="-292" y="-131" type="curve" smooth="yes"/>
      <point x="-292" y="-114"/>
      <point x="-284" y="-95"/>
      <point x="-263" y="-95" type="curve" smooth="yes"/>
      <point x="-249" y="-95"/>
      <point x="-234" y="-103"/>
    </contour>
    <contour>
      <point x="-89" y="14" type="curve" smooth="yes"/>
      <point x="-184" y="14"/>
      <point x="-224" y="-44"/>
      <point x="-250" y="-149" type="curve"/>
      <point x="-154" y="-180" type="line"/>
      <point x="-135" y="-116"/>
      <point x="-122" y="-96"/>
      <point x="-102" y="-96" type="curve" smooth="yes"/>
      <point x="-85" y="-96"/>
      <point x="-82" y="-113"/>
      <point x="-82" y="-129" type="curve" smooth="yes"/>
      <point x="-82" y="-161"/>
      <point x="-100" y="-199"/>
      <point x="-113" y="-222" type="curve"/>
      <point x="-45" y="-146" type="line"/>
      <point x="-93" y="-155"/>
      <point x="-151" y="-193"/>
      <point x="-151" y="-272" type="curve" smooth="yes"/>
      <point x="-151" y="-351"/>
      <point x="-96" y="-394"/>
      <point x="-28" y="-394" type="curve" smooth="yes"/>
      <point x="14" y="-394"/>
      <point x="41" y="-385"/>
      <point x="69" y="-370" type="curve"/>
      <point x="40" y="-285" type="line"/>
      <point x="18" y="-295"/>
      <point x="6" y="-298"/>
      <point x="-11" y="-298" type="curve" smooth="yes"/>
      <point x="-33" y="-298"/>
      <point x="-44" y="-288"/>
      <point x="-44" y="-268" type="curve" smooth="yes"/>
      <point x="-44" y="-244"/>
      <point x="-26" y="-226"/>
      <point x="30" y="-218" type="curve"/>
      <point x="37" y="-191"/>
      <point x="40" y="-171"/>
      <point x="40" y="-128" type="curve" smooth="yes"/>
      <point x="40" y="-49"/>
      <point x="1" y="14"/>
    </contour>
  </outline>
</glyph>
<glyph name="llvocalicvowelsigndeva" format="2">
  <unicode hex="0963"/>
  <outline>
    <contour>
      <point x="4" y="-282" type="curve" smooth="yes"/>
      <point x="43" y="-282"/>
      <point x="74" y="-273"/>
      <point x="95" y="-261" type="curve"/>
      <point x="68" y="-188" type="line"/>
      <point x="47" y="-199"/>
      <point x="29" y="-202"/>
      <point x="12" y="-202" type="curve" smooth="yes"/>
      <point x="-8" y="-202"/>
      <point x="-16" y="-194"/>
      <point x="-16" y="-181" type="curve" smooth="yes"/>
      <point x="-16" y="-167"/>
      <point x="-4" y="-154"/>
      <point x="39" y="-152" type="curve"/>
      <point x="39" y="-145"/>
      <point x="40" y="-136"/>
      <point x="40" y="-128" type="curve" smooth="yes"/>
      <point x="40" y="-49"/>
      <point x="1" y="14"/>
      <point x="-89" y="14" type="curve" smooth="yes"/>
      <point x="-184" y="14"/>
      <point x="-224" y="-44"/>
      <point x="-250" y="-149" type="curve"/>
      <point x="-154" y="-180" type="line"/>
      <point x="-135" y="-116"/>
      <point x="-122" y="-96"/>
      <point x="-102" y="-96" type="curve" smooth="yes"/>
      <point x="-84" y="-96"/>
      <point x="-80" y="-113"/>
      <point x="-82" y="-140" type="curve"/>
      <point x="-26" y="-88" type="line"/>
      <point x="-73" y="-99"/>
      <point x="-112" y="-128"/>
      <point x="-112" y="-185" type="curve" smooth="yes"/>
      <point x="-112" y="-246"/>
      <point x="-60" y="-282"/>
    </contour>
    <contour>
      <point x="-286" y="14" type="curve" smooth="yes"/>
      <point x="-357" y="14"/>
      <point x="-414" y="-30"/>
      <point x="-414" y="-115" type="curve" smooth="yes"/>
      <point x="-414" y="-190"/>
      <point x="-382" y="-253"/>
      <point x="-304" y="-349" type="curve"/>
      <point x="-210" y="-279" type="line"/>
      <point x="-262" y="-218"/>
      <point x="-292" y="-173"/>
      <point x="-292" y="-131" type="curve" smooth="yes"/>
      <point x="-292" y="-114"/>
      <point x="-284" y="-95"/>
      <point x="-263" y="-95" type="curve" smooth="yes"/>
      <point x="-249" y="-95"/>
      <point x="-234" y="-103"/>
      <point x="-219" y="-117" type="curve"/>
      <point x="-171" y="-28" type="line"/>
      <point x="-211" y="4"/>
      <point x="-245" y="14"/>
    </contour>
    <contour>
      <point x="36" y="-394" type="curve" smooth="yes"/>
      <point x="75" y="-394"/>
      <point x="106" y="-385"/>
      <point x="127" y="-373" type="curve"/>
      <point x="100" y="-300" type="line"/>
      <point x="79" y="-311"/>
      <point x="61" y="-314"/>
      <point x="44" y="-314" type="curve" smooth="yes"/>
      <point x="24" y="-314"/>
      <point x="16" y="-306"/>
      <point x="16" y="-293" type="curve" smooth="yes"/>
      <point x="16" y="-284"/>
      <point x="21" y="-275"/>
      <point x="31" y="-268" type="curve"/>
      <point x="-37" y="-219" type="line"/>
      <point x="-63" y="-237"/>
      <point x="-80" y="-260"/>
      <point x="-80" y="-297" type="curve" smooth="yes"/>
      <point x="-80" y="-358"/>
      <point x="-28" y="-394"/>
    </contour>
  </outline>
</glyph>
<glyph name="dandadeva" format="2">
  <advance width="378"/>
  <unicode hex="0964"/>
  <outline>
    <contour>
      <point x="153" y="622" type="line"/>
      <point x="153" y="0" type="line"/>
      <point x="303" y="0" type="line"/>
      <point x="303" y="622" type="line"/>
    </contour>
  </outline>
</glyph>
<glyph name="dbldandadeva" format="2">
  <advance width="595"/>
  <unicode hex="0965"/>
  <outline>
    <contour>
      <point x="370" y="622" type="line"/>
      <point x="370" y="0" type="line"/>
      <point x="520" y="0" type="line"/>
      <point x="520" y="622" type="line"/>
    </contour>
    <contour>
      <point x="153" y="622" type="line"/>
      <point x="153" y="0" type="line"/>
      <point x="303" y="0" type="line"/>
      <point x="303" y="622" type="line"/>
    </contour>
  </outline>
</glyph>
<glyph name="zerodeva" format="2">
  <advance width="490"/>
  <unicode hex="0966"/>
  <outline>
    <contour>
      <point x="246" y="93" type="curve" smooth="yes"/>
      <point x="376" y="93"/>
      <point x="452" y="177"/>
      <point x="452" y="319" type="curve" smooth="yes"/>
      <point x="452" y="462"/>
      <point x="367" y="546"/>
      <point x="243" y="546" type="curve" smooth="yes"/>
      <point x="122" y="546"/>
      <point x="37" y="461"/>
      <point x="37" y="321" type="curve" smooth="yes"/>
      <point x="37" y="179"/>
      <point x="122" y="93"/>
    </contour>
    <contour>
      <point x="243" y="227" type="curve" smooth="yes"/>
      <point x="211" y="227"/>
      <point x="190" y="257"/>
      <point x="190" y="318" type="curve" smooth="yes"/>
      <point x="190" y="380"/>
      <point x="211" y="412"/>
      <point x="244" y="412" type="curve" smooth="yes"/>
      <point x="282" y="412"/>
      <point x="298" y="382"/>
      <point x="298" y="322" type="curve" smooth="yes"/>
      <point x="298" y="258"/>
      <point x="278" y="227"/>
    </contour>
  </outline>
</glyph>
<glyph name="onedeva" format="2">
  <advance width="490"/>
  <unicode hex="0967"/>
  <outline>
    <contour>
      <point x="244" y="632" type="curve" smooth="yes"/>
      <point x="138" y="632"/>
      <point x="75" y="572"/>
      <point x="75" y="495" type="curve" smooth="yes"/>
      <point x="75" y="433"/>
      <point x="105" y="392"/>
      <point x="156" y="359" type="curve"/>
      <point x="237" y="440" type="line"/>
      <point x="222" y="451"/>
      <point x="212" y="463"/>
      <point x="212" y="481" type="curve" smooth="yes"/>
      <point x="212" y="494"/>
      <point x="221" y="508"/>
      <point x="240" y="508" type="curve" smooth="yes"/>
      <point x="261" y="508"/>
      <point x="268" y="491"/>
      <point x="268" y="473" type="curve" smooth="yes"/>
      <point x="268" y="422"/>
      <point x="192" y="353"/>
      <point x="85" y="278" type="curve"/>
      <point x="78" y="224" type="line"/>
      <point x="229" y="84" type="line" smooth="yes"/>
      <point x="261" y="55"/>
      <point x="270" y="42"/>
      <point x="270" y="15" type="curve" smooth="yes"/>
      <point x="270" y="-6"/>
      <point x="257" y="-22"/>
      <point x="246" y="-34" type="curve"/>
      <point x="358" y="-120" type="line"/>
      <point x="401" y="-74"/>
      <point x="424" y="-25"/>
      <point x="424" y="24" type="curve" smooth="yes"/>
      <point x="424" y="84"/>
      <point x="402" y="132"/>
      <point x="332" y="195" type="curve" smooth="yes"/>
      <point x="211" y="302" type="line"/>
      <point x="209" y="193" type="line"/>
      <point x="383" y="302"/>
      <point x="420" y="380"/>
      <point x="420" y="466" type="curve" smooth="yes"/>
      <point x="420" y="560"/>
      <point x="361" y="632"/>
    </contour>
  </outline>
</glyph>
<glyph name="twodeva" format="2">
  <advance width="490"/>
  <unicode hex="0968"/>
  <outline>
    <contour>
      <point x="159" y="297" type="curve"/>
      <point x="128" y="244" type="line"/>
      <point x="186" y="183"/>
      <point x="272" y="81"/>
      <point x="337" y="-17" type="curve"/>
      <point x="455" y="59" type="line"/>
      <point x="388" y="149"/>
      <point x="317" y="220"/>
      <point x="255" y="276" type="curve"/>
      <point x="252" y="289" type="line"/>
      <point x="223" y="338"/>
      <point x="177" y="350"/>
      <point x="152" y="350" type="curve" smooth="yes"/>
      <point x="102" y="350"/>
      <point x="67" y="318"/>
      <point x="67" y="267" type="curve" smooth="yes"/>
      <point x="67" y="197"/>
      <point x="127" y="169"/>
      <point x="184" y="169" type="curve" smooth="yes"/>
      <point x="326" y="169"/>
      <point x="419" y="273"/>
      <point x="419" y="420" type="curve" smooth="yes"/>
      <point x="419" y="561"/>
      <point x="337" y="632"/>
      <point x="211" y="632" type="curve" smooth="yes"/>
      <point x="150" y="632"/>
      <point x="101" y="620"/>
      <point x="52" y="601" type="curve"/>
      <point x="96" y="478" type="line"/>
      <point x="122" y="489"/>
      <point x="153" y="499"/>
      <point x="189" y="499" type="curve" smooth="yes"/>
      <point x="236" y="499"/>
      <point x="265" y="471"/>
      <point x="265" y="416" type="curve" smooth="yes"/>
      <point x="265" y="343"/>
      <point x="211" y="306"/>
    </contour>
  </outline>
</glyph>
<glyph name="threedeva" format="2">
  <advance width="490"/>
  <unicode hex="0969"/>
  <outline>
    <contour>
      <point x="160" y="194" type="curve"/>
      <point x="122" y="134" type="line"/>
      <point x="168" y="91"/>
      <point x="250" y="-9"/>
      <point x="312" y="-92" type="curve"/>
      <point x="427" y="-18" type="line"/>
      <point x="371" y="52"/>
      <point x="295" y="126"/>
      <point x="249" y="166" type="curve"/>
      <point x="246" y="179" type="line"/>
      <point x="217" y="228"/>
      <point x="171" y="240"/>
      <point x="146" y="240" type="curve" smooth="yes"/>
      <point x="94" y="240"/>
      <point x="61" y="209"/>
      <point x="61" y="157" type="curve" smooth="yes"/>
      <point x="61" y="93"/>
      <point x="109" y="59"/>
      <point x="179" y="59" type="curve" smooth="yes"/>
      <point x="339" y="59"/>
      <point x="418" y="142"/>
      <point x="418" y="250" type="curve" smooth="yes"/>
      <point x="418" y="323"/>
      <point x="372" y="381"/>
      <point x="308" y="404" type="curve"/>
      <point x="200" y="304" type="line"/>
      <point x="243" y="304"/>
      <point x="267" y="290"/>
      <point x="267" y="254" type="curve" smooth="yes"/>
      <point x="267" y="218"/>
      <point x="245" y="195"/>
    </contour>
    <contour>
      <point x="61" y="602" type="curve"/>
      <point x="100" y="478" type="line"/>
      <point x="132" y="491"/>
      <point x="160" y="499"/>
      <point x="191" y="499" type="curve" smooth="yes"/>
      <point x="221" y="499"/>
      <point x="239" y="490"/>
      <point x="239" y="460" type="curve" smooth="yes"/>
      <point x="239" y="433"/>
      <point x="219" y="412"/>
      <point x="156" y="409" type="curve"/>
      <point x="161" y="283" type="line"/>
      <point x="236" y="286"/>
      <point x="284" y="303"/>
      <point x="323" y="333" type="curve"/>
      <point x="332" y="343" type="line"/>
      <point x="359" y="371"/>
      <point x="390" y="412"/>
      <point x="390" y="477" type="curve" smooth="yes"/>
      <point x="390" y="559"/>
      <point x="340" y="632"/>
      <point x="218" y="632" type="curve" smooth="yes"/>
      <point x="158" y="632"/>
      <point x="112" y="620"/>
    </contour>
  </outline>
</glyph>
<glyph name="fourdeva" format="2">
  <advance width="490"/>
  <unicode hex="096A"/>
  <outline>
    <contour>
      <point x="150" y="331" type="curve"/>
      <point x="200" y="286" type="line"/>
      <point x="260" y="231"/>
      <point x="274" y="204"/>
      <point x="274" y="175" type="curve" smooth="yes"/>
      <point x="274" y="142"/>
      <point x="256" y="131"/>
      <point x="240" y="131" type="curve" smooth="yes"/>
      <point x="221" y="131"/>
      <point x="207" y="145"/>
      <point x="207" y="174" type="curve" smooth="yes"/>
      <point x="207" y="206"/>
      <point x="224" y="233"/>
      <point x="281" y="288" type="curve"/>
      <point x="328" y="321" type="line"/>
      <point x="452" y="430"/>
      <point x="460" y="510"/>
      <point x="460" y="560" type="curve" smooth="yes"/>
      <point x="460" y="590"/>
      <point x="455" y="613"/>
      <point x="448" y="632" type="curve"/>
      <point x="300" y="610" type="line"/>
      <point x="303" y="598"/>
      <point x="307" y="581"/>
      <point x="307" y="562" type="curve" smooth="yes"/>
      <point x="307" y="525"/>
      <point x="304" y="478"/>
      <point x="222" y="402" type="curve"/>
      <point x="174" y="368" type="line"/>
      <point x="82" y="284"/>
      <point x="61" y="221"/>
      <point x="61" y="159" type="curve" smooth="yes"/>
      <point x="61" y="63"/>
      <point x="121" y="-2"/>
      <point x="243" y="-2" type="curve" smooth="yes"/>
      <point x="360" y="-2"/>
      <point x="417" y="60"/>
      <point x="417" y="153" type="curve" smooth="yes"/>
      <point x="417" y="227"/>
      <point x="394" y="284"/>
      <point x="303" y="371" type="curve"/>
      <point x="249" y="418" type="line"/>
      <point x="199" y="472"/>
      <point x="185" y="515"/>
      <point x="185" y="562" type="curve" smooth="yes"/>
      <point x="185" y="582"/>
      <point x="189" y="598"/>
      <point x="192" y="609" type="curve"/>
      <point x="44" y="632" type="line"/>
      <point x="39" y="615"/>
      <point x="32" y="590"/>
      <point x="32" y="560" type="curve" smooth="yes"/>
      <point x="32" y="511"/>
      <point x="37" y="438"/>
    </contour>
  </outline>
</glyph>
<glyph name="fivedeva" format="2">
  <advance width="490"/>
  <unicode hex="096B"/>
  <outline>
    <contour>
      <point x="367" y="-68" type="curve"/>
      <point x="496" y="-11" type="line"/>
      <point x="459" y="56"/>
      <point x="408" y="166"/>
      <point x="382" y="232" type="curve"/>
      <point x="282" y="298" type="line"/>
      <point x="286" y="298"/>
      <point x="277" y="299"/>
      <point x="276" y="299" type="curve" smooth="yes"/>
      <point x="223" y="299"/>
      <point x="195" y="339"/>
      <point x="195" y="401" type="curve" smooth="yes"/>
      <point x="195" y="463"/>
      <point x="215" y="509"/>
      <point x="253" y="579" type="curve"/>
      <point x="98" y="632" type="line"/>
      <point x="62" y="551"/>
      <point x="43" y="479"/>
      <point x="43" y="416" type="curve" smooth="yes"/>
      <point x="43" y="222"/>
      <point x="159" y="169"/>
      <point x="261" y="169" type="curve" smooth="yes"/>
      <point x="363" y="169"/>
      <point x="435" y="201"/>
      <point x="435" y="286" type="curve" smooth="yes"/>
      <point x="435" y="343"/>
      <point x="398" y="393"/>
      <point x="337" y="393" type="curve" smooth="yes"/>
      <point x="282" y="393"/>
      <point x="252" y="363"/>
      <point x="252" y="306" type="curve" smooth="yes"/>
      <point x="252" y="268"/>
      <point x="256" y="228"/>
      <point x="262" y="207" type="curve" smooth="yes"/>
      <point x="285" y="123"/>
      <point x="324" y="24"/>
    </contour>
  </outline>
</glyph>
<glyph name="sixdeva" format="2">
  <advance width="490"/>
  <unicode hex="096C"/>
  <outline>
    <contour>
      <point x="359" y="-122" type="curve"/>
      <point x="486" y="-69" type="line"/>
      <point x="451" y="0"/>
      <point x="413" y="78"/>
      <point x="396" y="122" type="curve"/>
      <point x="332" y="201" type="line"/>
      <point x="326" y="199"/>
      <point x="319" y="199"/>
      <point x="303" y="199" type="curve" smooth="yes"/>
      <point x="242" y="199"/>
      <point x="218" y="219"/>
      <point x="218" y="255" type="curve" smooth="yes"/>
      <point x="218" y="291"/>
      <point x="248" y="304"/>
      <point x="280" y="304" type="curve" smooth="yes"/>
      <point x="297" y="304"/>
      <point x="310" y="303"/>
      <point x="323" y="301" type="curve"/>
      <point x="336" y="430" type="line"/>
      <point x="325" y="433"/>
      <point x="294" y="437"/>
      <point x="270" y="437" type="curve" smooth="yes"/>
      <point x="222" y="437"/>
      <point x="187" y="427"/>
      <point x="147" y="402" type="curve"/>
      <point x="137" y="388" type="line"/>
      <point x="88" y="353"/>
      <point x="68" y="312"/>
      <point x="68" y="257" type="curve" smooth="yes"/>
      <point x="68" y="149"/>
      <point x="146" y="65"/>
      <point x="276" y="65" type="curve" smooth="yes"/>
      <point x="397" y="65"/>
      <point x="451" y="101"/>
      <point x="451" y="176" type="curve" smooth="yes"/>
      <point x="451" y="237"/>
      <point x="415" y="279"/>
      <point x="350" y="279" type="curve" smooth="yes"/>
      <point x="305" y="279"/>
      <point x="267" y="254"/>
      <point x="267" y="201" type="curve" smooth="yes"/>
      <point x="267" y="194"/>
      <point x="264" y="187"/>
      <point x="261" y="179" type="curve"/>
      <point x="283" y="80" type="line"/>
      <point x="299" y="29"/>
      <point x="324" y="-44"/>
    </contour>
    <contour>
      <point x="223" y="304" type="curve"/>
      <point x="250" y="419" type="line"/>
      <point x="214" y="428"/>
      <point x="199" y="448"/>
      <point x="199" y="465" type="curve" smooth="yes"/>
      <point x="199" y="486"/>
      <point x="213" y="500"/>
      <point x="252" y="500" type="curve" smooth="yes"/>
      <point x="282" y="500"/>
      <point x="308" y="496"/>
      <point x="333" y="491" type="curve"/>
      <point x="347" y="621" type="line"/>
      <point x="308" y="628"/>
      <point x="269" y="632"/>
      <point x="230" y="632" type="curve" smooth="yes"/>
      <point x="118" y="632"/>
      <point x="49" y="577"/>
      <point x="49" y="477" type="curve" smooth="yes"/>
      <point x="49" y="386"/>
      <point x="101" y="323"/>
    </contour>
  </outline>
</glyph>
<glyph name="sevendeva" format="2">
  <advance width="490"/>
  <unicode hex="096D"/>
  <outline>
    <contour>
      <point x="464" y="271" type="curve" smooth="yes"/>
      <point x="464" y="443"/>
      <point x="395" y="559"/>
      <point x="279" y="559" type="curve" smooth="yes"/>
      <point x="198" y="559"/>
      <point x="147" y="504"/>
      <point x="147" y="425" type="curve" smooth="yes"/>
      <point x="147" y="334"/>
      <point x="200" y="279"/>
      <point x="290" y="256" type="curve"/>
      <point x="309" y="364" type="line"/>
      <point x="287" y="370"/>
      <point x="259" y="381"/>
      <point x="259" y="411" type="curve" smooth="yes"/>
      <point x="259" y="425"/>
      <point x="265" y="435"/>
      <point x="278" y="435" type="curve" smooth="yes"/>
      <point x="306" y="435"/>
      <point x="316" y="376"/>
      <point x="316" y="283" type="curve" smooth="yes"/>
      <point x="316" y="193"/>
      <point x="308" y="162"/>
      <point x="273" y="162" type="curve" smooth="yes"/>
      <point x="205" y="162"/>
      <point x="163" y="299"/>
      <point x="152" y="612" type="curve"/>
      <point x="19" y="597" type="line"/>
      <point x="34" y="141"/>
      <point x="133" y="27"/>
      <point x="285" y="27" type="curve" smooth="yes"/>
      <point x="399" y="27"/>
      <point x="464" y="97"/>
    </contour>
  </outline>
</glyph>
<glyph name="eightdeva" format="2">
  <advance width="490"/>
  <unicode hex="096E"/>
  <outline>
    <contour>
      <point x="242" y="0" type="curve" smooth="yes"/>
      <point x="335" y="0"/>
      <point x="394" y="19"/>
      <point x="467" y="58" type="curve"/>
      <point x="408" y="191" type="line"/>
      <point x="343" y="149"/>
      <point x="306" y="136"/>
      <point x="260" y="136" type="curve" smooth="yes"/>
      <point x="224" y="136"/>
      <point x="207" y="157"/>
      <point x="207" y="183" type="curve" smooth="yes"/>
      <point x="207" y="202"/>
      <point x="216" y="220"/>
      <point x="236" y="250" type="curve" smooth="yes"/>
      <point x="425" y="538" type="line"/>
      <point x="274" y="633" type="line"/>
      <point x="136" y="412" type="line" smooth="yes"/>
      <point x="73" y="312"/>
      <point x="52" y="258"/>
      <point x="52" y="188" type="curve" smooth="yes"/>
      <point x="52" y="59"/>
      <point x="146" y="0"/>
    </contour>
  </outline>
</glyph>
<glyph name="ninedeva" format="2">
  <advance width="490"/>
  <unicode hex="096F"/>
  <outline>
    <contour>
      <point x="43" y="438" type="curve" smooth="yes"/>
      <point x="43" y="349"/>
      <point x="82" y="273"/>
      <point x="170" y="192" type="curve" smooth="yes"/>
      <point x="277" y="92" type="line" smooth="yes"/>
      <point x="308" y="62"/>
      <point x="318" y="50"/>
      <point x="318" y="23" type="curve" smooth="yes"/>
      <point x="318" y="1"/>
      <point x="305" y="-14"/>
      <point x="294" y="-26" type="curve"/>
      <point x="406" y="-112" type="line"/>
      <point x="446" y="-71"/>
      <point x="472" y="-19"/>
      <point x="472" y="31" type="curve" smooth="yes"/>
      <point x="472" y="90"/>
      <point x="451" y="141"/>
      <point x="380" y="203" type="curve" smooth="yes"/>
      <point x="333" y="244" type="line" smooth="yes"/>
      <point x="316" y="260"/>
      <point x="281" y="289"/>
      <point x="258" y="302" type="curve"/>
      <point x="223" y="277" type="line"/>
      <point x="226" y="275"/>
      <point x="238" y="270"/>
      <point x="246" y="270" type="curve" smooth="yes"/>
      <point x="382" y="279"/>
      <point x="417" y="358"/>
      <point x="417" y="445" type="curve" smooth="yes"/>
      <point x="417" y="558"/>
      <point x="344" y="632"/>
      <point x="232" y="632" type="curve" smooth="yes"/>
      <point x="107" y="632"/>
      <point x="43" y="546"/>
    </contour>
    <contour>
      <point x="181" y="445" type="curve" smooth="yes"/>
      <point x="181" y="480"/>
      <point x="199" y="497"/>
      <point x="226" y="497" type="curve" smooth="yes"/>
      <point x="250" y="497"/>
      <point x="268" y="481"/>
      <point x="268" y="447" type="curve" smooth="yes"/>
      <point x="268" y="413"/>
      <point x="250" y="393"/>
      <point x="223" y="393" type="curve" smooth="yes"/>
      <point x="196" y="393"/>
      <point x="181" y="412"/>
    </contour>
  </outline>
</glyph>
<glyph name="abbreviationsigndeva" format="2">
  <advance width="393"/>
  <unicode hex="0970"/>
  <outline>
    <contour>
      <point x="202" y="257" type="curve" smooth="yes"/>
      <point x="296" y="257"/>
      <point x="355" y="321"/>
      <point x="355" y="419" type="curve" smooth="yes"/>
      <point x="355" y="518"/>
      <point x="293" y="580"/>
      <point x="202" y="580" type="curve" smooth="yes"/>
      <point x="107" y="580"/>
      <point x="49" y="514"/>
      <point x="49" y="419" type="curve" smooth="yes"/>
      <point x="49" y="315"/>
      <point x="114" y="257"/>
    </contour>
    <contour>
      <point x="202" y="361" type="curve" smooth="yes"/>
      <point x="178" y="361"/>
      <point x="159" y="381"/>
      <point x="159" y="419" type="curve" smooth="yes"/>
      <point x="159" y="451"/>
      <point x="175" y="476"/>
      <point x="202" y="476" type="curve" smooth="yes"/>
      <point x="229" y="476"/>
      <point x="245" y="453"/>
      <point x="245" y="419" type="curve" smooth="yes"/>
      <point x="245" y="384"/>
      <point x="230" y="361"/>
    </contour>
  </outline>
</glyph>
<glyph name="uni0971" format="2">
  <advance width="279"/>
  <unicode hex="0971"/>
  <outline>
    <contour>
      <point x="73" y="562" type="curve" smooth="yes"/>
      <point x="73" y="516"/>
      <point x="102" y="482"/>
      <point x="148" y="482" type="curve" smooth="yes"/>
      <point x="194" y="482"/>
      <point x="222" y="515"/>
      <point x="222" y="562" type="curve" smooth="yes"/>
      <point x="222" y="608"/>
      <point x="193" y="642"/>
      <point x="148" y="642" type="curve" smooth="yes"/>
      <point x="102" y="642"/>
      <point x="73" y="609"/>
    </contour>
  </outline>
</glyph>
<glyph name="marwariddadeva" format="2">
  <advance width="495"/>
  <unicode hex="0978"/>
  <outline>
    <contour>
      <point x="228" y="489" type="line"/>
      <point x="507" y="489" type="line"/>
      <point x="507" y="622" type="line"/>
      <point x="0" y="622" type="line"/>
      <point x="0" y="489" type="line"/>
      <point x="78" y="489" type="line"/>
      <point x="78" y="357" type="line"/>
      <point x="172" y="263" type="line"/>
      <point x="204" y="276"/>
      <point x="235" y="284"/>
      <point x="265" y="284" type="curve" smooth="yes"/>
      <point x="303" y="284"/>
      <point x="322" y="260"/>
      <point x="322" y="219" type="curve" smooth="yes"/>
      <point x="322" y="167"/>
      <point x="306" y="119"/>
      <point x="286" y="76" type="curve"/>
      <point x="417" y="13" type="line"/>
      <point x="457" y="91"/>
      <point x="472" y="157"/>
      <point x="472" y="228" type="curve" smooth="yes"/>
      <point x="472" y="323"/>
      <point x="433" y="417"/>
      <point x="284" y="417" type="curve" smooth="yes"/>
      <point x="246" y="417"/>
      <point x="211" y="411"/>
      <point x="181" y="405" type="curve"/>
      <point x="151" y="404" type="line"/>
      <point x="47" y="394"/>
      <point x="22" y="371"/>
      <point x="22" y="317" type="curve" smooth="yes"/>
      <point x="22" y="250"/>
      <point x="88" y="153"/>
      <point x="163" y="153" type="curve" smooth="yes"/>
      <point x="208" y="153"/>
      <point x="228" y="181"/>
      <point x="228" y="236" type="curve" smooth="yes"/>
    </contour>
  </outline>
</glyph>
<glyph name="heavyyadeva" format="2">
  <advance width="527"/>
  <unicode hex="097A"/>
  <outline>
    <contour>
      <point x="473" y="489" type="line"/>
      <point x="539" y="489" type="line"/>
      <point x="539" y="622" type="line"/>
      <point x="0" y="622" type="line"/>
      <point x="0" y="489" type="line"/>
      <point x="171" y="489" type="line"/>
      <point x="72" y="523" type="line"/>
      <point x="85" y="502"/>
      <point x="94" y="466"/>
      <point x="94" y="440" type="curve" smooth="yes"/>
      <point x="94" y="390"/>
      <point x="74" y="362"/>
      <point x="17" y="341" type="curve"/>
      <point x="41" y="182"/>
      <point x="101" y="89"/>
      <point x="220" y="89" type="curve" smooth="yes"/>
      <point x="280" y="89"/>
      <point x="318" y="99"/>
      <point x="368" y="150" type="curve"/>
      <point x="324" y="196" type="line"/>
      <point x="324" y="0" type="line"/>
      <point x="473" y="0" type="line"/>
    </contour>
    <contour>
      <point x="147" y="489" type="line"/>
      <point x="323" y="489" type="line"/>
      <point x="323" y="259" type="line"/>
      <point x="318" y="264" type="line"/>
      <point x="293" y="232"/>
      <point x="267" y="221"/>
      <point x="238" y="221" type="curve" smooth="yes"/>
      <point x="206" y="221"/>
      <point x="183" y="247"/>
      <point x="173" y="291" type="curve"/>
      <point x="173" y="281" type="line"/>
      <point x="203" y="303"/>
      <point x="231" y="332"/>
      <point x="239" y="382" type="curve"/>
      <point x="241" y="412" type="line"/>
      <point x="241" y="463"/>
      <point x="221" y="500"/>
      <point x="203" y="535" type="curve"/>
    </contour>
    <contour>
      <point x="349" y="255" type="line"/>
      <point x="209" y="532" type="line"/>
      <point x="172" y="491" type="line"/>
      <point x="193" y="427"/>
      <point x="228" y="337"/>
      <point x="249" y="296" type="curve" smooth="yes"/>
      <point x="287" y="221" type="line"/>
    </contour>
  </outline>
</glyph>
<glyph name="gabardeva" format="2">
  <advance width="511"/>
  <unicode hex="097B"/>
  <outline>
    <contour>
      <point x="228" y="489" type="line"/>
      <point x="307" y="489" type="line"/>
      <point x="307" y="-22" type="line"/>
      <point x="457" y="-22" type="line"/>
      <point x="457" y="489" type="line"/>
      <point x="523" y="489" type="line"/>
      <point x="523" y="622" type="line"/>
      <point x="0" y="622" type="line"/>
      <point x="0" y="489" type="line"/>
      <point x="78" y="489" type="line"/>
      <point x="78" y="383" type="line"/>
      <point x="95" y="390" type="line"/>
      <point x="38" y="390"/>
      <point x="22" y="359"/>
      <point x="22" y="317" type="curve" smooth="yes"/>
      <point x="22" y="247"/>
      <point x="88" y="150"/>
      <point x="163" y="150" type="curve" smooth="yes"/>
      <point x="208" y="150"/>
      <point x="228" y="178"/>
      <point x="228" y="233" type="curve" smooth="yes"/>
    </contour>
    <contour>
      <point x="67" y="80" type="line"/>
      <point x="67" y="-22" type="line"/>
      <point x="326" y="-22" type="line"/>
      <point x="326" y="80" type="line"/>
    </contour>
  </outline>
</glyph>
<glyph name="jabardeva" format="2">
  <advance width="686"/>
  <unicode hex="097C"/>
  <outline>
    <contour>
      <point x="632" y="489" type="line"/>
      <point x="698" y="489" type="line"/>
      <point x="698" y="622" type="line"/>
      <point x="0" y="622" type="line"/>
      <point x="0" y="489" type="line"/>
      <point x="482" y="489" type="line"/>
      <point x="482" y="439" type="line"/>
      <point x="273" y="439" type="line"/>
      <point x="228" y="353" type="line"/>
      <point x="260" y="324"/>
      <point x="290" y="285"/>
      <point x="290" y="247" type="curve" smooth="yes"/>
      <point x="290" y="229"/>
      <point x="281" y="218"/>
      <point x="261" y="218" type="curve" smooth="yes"/>
      <point x="212" y="218"/>
      <point x="183" y="290"/>
      <point x="149" y="427" type="curve"/>
      <point x="13" y="392" type="line"/>
      <point x="67" y="164"/>
      <point x="145" y="85"/>
      <point x="282" y="85" type="curve" smooth="yes"/>
      <point x="367" y="85"/>
      <point x="436" y="127"/>
      <point x="436" y="215" type="curve" smooth="yes"/>
      <point x="436" y="277"/>
      <point x="395" y="327"/>
      <point x="324" y="372" type="curve"/>
      <point x="364" y="316" type="line"/>
      <point x="387" y="311"/>
      <point x="425" y="310"/>
      <point x="447" y="310" type="curve" smooth="yes"/>
      <point x="482" y="310" type="line"/>
      <point x="482" y="-22" type="line"/>
      <point x="632" y="-22" type="line"/>
    </contour>
    <contour>
      <point x="68" y="80" type="line"/>
      <point x="68" y="-22" type="line"/>
      <point x="514" y="-22" type="line"/>
      <point x="514" y="80" type="line"/>
    </contour>
  </outline>
</glyph>
<glyph name="uni097D" format="2">
  <advance width="410"/>
  <unicode hex="097D"/>
  <outline>
    <contour>
      <point x="190" y="632" type="curve" smooth="yes"/>
      <point x="128" y="632"/>
      <point x="85" y="620"/>
      <point x="35" y="601" type="curve"/>
      <point x="81" y="477" type="line"/>
      <point x="105" y="488"/>
      <point x="132" y="497"/>
      <point x="160" y="497" type="curve" smooth="yes"/>
      <point x="207" y="497"/>
      <point x="228" y="468"/>
      <point x="228" y="429" type="curve" smooth="yes"/>
      <point x="228" y="370"/>
      <point x="183" y="337"/>
      <point x="103" y="329" type="curve"/>
      <point x="103" y="0" type="line"/>
      <point x="253" y="0" type="line"/>
      <point x="253" y="224" type="line"/>
      <point x="317" y="255"/>
      <point x="379" y="309"/>
      <point x="379" y="430" type="curve" smooth="yes"/>
      <point x="379" y="539"/>
      <point x="319" y="632"/>
    </contour>
  </outline>
</glyph>
<glyph name="ddabardeva" format="2">
  <advance width="512"/>
  <unicode hex="097E"/>
  <outline>
    <contour>
      <point x="290" y="235" type="curve" smooth="yes"/>
      <point x="327" y="235"/>
      <point x="342" y="228"/>
      <point x="342" y="212" type="curve" smooth="yes"/>
      <point x="342" y="197"/>
      <point x="331" y="187"/>
      <point x="287" y="187" type="curve" smooth="yes"/>
      <point x="219" y="187"/>
      <point x="161" y="221"/>
      <point x="104" y="279" type="curve"/>
      <point x="9" y="194" type="line"/>
      <point x="100" y="111"/>
      <point x="184" y="83"/>
      <point x="294" y="83" type="curve" smooth="yes"/>
      <point x="440" y="83"/>
      <point x="487" y="140"/>
      <point x="487" y="210" type="curve" smooth="yes"/>
      <point x="487" y="277"/>
      <point x="446" y="333"/>
      <point x="333" y="333" type="curve" smooth="yes"/>
      <point x="317" y="333"/>
      <point x="295" y="331"/>
      <point x="277" y="327" type="curve"/>
      <point x="273" y="333"/>
      <point x="269" y="341"/>
      <point x="269" y="348" type="curve" smooth="yes"/>
      <point x="269" y="361"/>
      <point x="280" y="363"/>
      <point x="296" y="363" type="curve" smooth="yes"/>
      <point x="449" y="363" type="line"/>
      <point x="449" y="489" type="line"/>
      <point x="524" y="489" type="line"/>
      <point x="524" y="622" type="line"/>
      <point x="0" y="622" type="line"/>
      <point x="0" y="489" type="line"/>
      <point x="302" y="489" type="line"/>
      <point x="302" y="455" type="line"/>
      <point x="273" y="455" type="line" smooth="yes"/>
      <point x="205" y="455"/>
      <point x="172" y="444"/>
      <point x="152" y="425" type="curve" smooth="yes"/>
      <point x="131" y="405"/>
      <point x="125" y="384"/>
      <point x="125" y="355" type="curve" smooth="yes"/>
      <point x="125" y="308"/>
      <point x="160" y="258"/>
      <point x="204" y="224" type="curve"/>
      <point x="229" y="230"/>
      <point x="254" y="235"/>
    </contour>
    <contour>
      <point x="63" y="80" type="line"/>
      <point x="63" y="-22" type="line"/>
      <point x="486" y="-22" type="line"/>
      <point x="486" y="80" type="line"/>
    </contour>
  </outline>
</glyph>
<glyph name="babardeva" format="2">
  <advance width="503"/>
  <unicode hex="097F"/>
  <outline>
    <contour>
      <point x="515" y="489" type="line"/>
      <point x="515" y="622" type="line"/>
      <point x="0" y="622" type="line"/>
      <point x="0" y="489" type="line"/>
      <point x="299" y="489" type="line"/>
      <point x="299" y="218" type="line"/>
      <point x="327" y="312" type="line"/>
      <point x="303" y="258"/>
      <point x="267" y="222"/>
      <point x="216" y="222" type="curve" smooth="yes"/>
      <point x="181" y="222"/>
      <point x="156" y="237"/>
      <point x="156" y="284" type="curve" smooth="yes"/>
      <point x="156" y="325"/>
      <point x="186" y="345"/>
      <point x="220" y="345" type="curve" smooth="yes"/>
      <point x="240" y="345"/>
      <point x="254" y="343"/>
      <point x="266" y="340" type="curve"/>
      <point x="277" y="455" type="line"/>
      <point x="252" y="461"/>
      <point x="230" y="463"/>
      <point x="203" y="463" type="curve" smooth="yes"/>
      <point x="82" y="463"/>
      <point x="23" y="394"/>
      <point x="23" y="288" type="curve" smooth="yes"/>
      <point x="23" y="167"/>
      <point x="91" y="105"/>
      <point x="207" y="105" type="curve" smooth="yes"/>
      <point x="260" y="105"/>
      <point x="309" y="120"/>
      <point x="354" y="167" type="curve"/>
      <point x="299" y="201" type="line"/>
      <point x="299" y="-22" type="line"/>
      <point x="449" y="-22" type="line"/>
      <point x="449" y="489" type="line"/>
    </contour>
    <contour>
      <point x="185" y="422" type="line"/>
      <point x="114" y="396" type="line"/>
      <point x="253" y="163" type="line"/>
      <point x="311" y="207" type="line"/>
    </contour>
    <contour>
      <point x="67" y="80" type="line"/>
      <point x="67" y="-22" type="line"/>
      <point x="326" y="-22" type="line"/>
      <point x="326" y="80" type="line"/>
    </contour>
  </outline>
</glyph>
<glyph name="uni1CD0" format="2">
  <unicode hex="1CD0"/>
  <outline>
    <contour>
      <point x="-342" y="981" type="line"/>
      <point x="-224" y="946" type="line"/>
      <point x="-166" y="1108" type="line"/>
      <point x="-97" y="946" type="line"/>
      <point x="6" y="980" type="line"/>
      <point x="-103" y="1222" type="line"/>
      <point x="-239" y="1222" type="line"/>
    </contour>
  </outline>
</glyph>
<glyph name="uni1CD1" format="2">
  <unicode hex="1CD1"/>
  <outline>
    <contour>
      <point x="-346" y="1033" type="line"/>
      <point x="-234" y="998" type="line"/>
      <point x="-166" y="1159" type="line"/>
      <point x="-87" y="998" type="line"/>
      <point x="10" y="1032" type="line"/>
      <point x="-100" y="1238" type="line"/>
      <point x="-241" y="1238" type="line"/>
    </contour>
    <contour>
      <point x="-212" y="1058" type="line"/>
      <point x="-212" y="901" type="line"/>
      <point x="-114" y="901" type="line"/>
      <point x="-114" y="1058" type="line"/>
    </contour>
  </outline>
</glyph>
<glyph name="uni1CD2" format="2">
  <unicode hex="1CD2"/>
  <outline>
    <contour>
      <point x="-335" y="1076" type="line"/>
      <point x="-335" y="973" type="line"/>
      <point x="-10" y="973" type="line"/>
      <point x="-10" y="1076" type="line"/>
    </contour>
  </outline>
</glyph>
<glyph name="uni1CD3" format="2">
  <advance width="330"/>
  <unicode hex="1CD3"/>
  <outline>
    <contour>
      <point x="209" y="896" type="line"/>
      <point x="178" y="659" type="line"/>
      <point x="276" y="659" type="line"/>
      <point x="304" y="896" type="line"/>
    </contour>
    <contour>
      <point x="72" y="896" type="line"/>
      <point x="43" y="659" type="line"/>
      <point x="136" y="659" type="line"/>
      <point x="165" y="896" type="line"/>
    </contour>
  </outline>
</glyph>
<glyph name="uni1CD4" format="2">
  <unicode hex="1CD4"/>
  <outline>
    <contour>
      <point x="-264" y="335" type="line"/>
      <point x="-264" y="232" type="line"/>
      <point x="1" y="232" type="line"/>
      <point x="1" y="335" type="line"/>
    </contour>
  </outline>
</glyph>
<glyph name="uni1CD5" format="2">
  <unicode hex="1CD5"/>
  <outline>
    <contour>
      <point x="-171" y="-62" type="curve"/>
      <point x="-250" y="-62" type="line"/>
      <point x="-252" y="-116"/>
      <point x="-259" y="-140"/>
      <point x="-284" y="-140" type="curve" smooth="yes"/>
      <point x="-304" y="-140"/>
      <point x="-314" y="-130"/>
      <point x="-317" y="-60" type="curve"/>
      <point x="-411" y="-61" type="line"/>
      <point x="-408" y="-204"/>
      <point x="-360" y="-251"/>
      <point x="-297" y="-251" type="curve" smooth="yes"/>
      <point x="-211" y="-251"/>
      <point x="-193" y="-190"/>
    </contour>
    <contour>
      <point x="-170" y="-62" type="curve"/>
      <point x="-249" y="-62" type="line"/>
      <point x="-228" y="-190"/>
      <point x="-213" y="-251"/>
      <point x="-124" y="-251" type="curve" smooth="yes"/>
      <point x="-59" y="-251"/>
      <point x="-10" y="-204"/>
      <point x="-9" y="-61" type="curve"/>
      <point x="-102" y="-60" type="line"/>
      <point x="-107" y="-130"/>
      <point x="-117" y="-140"/>
      <point x="-138" y="-140" type="curve" smooth="yes"/>
      <point x="-162" y="-140"/>
      <point x="-168" y="-116"/>
    </contour>
  </outline>
</glyph>
<glyph name="uni1CD6" format="2">
  <unicode hex="1CD6"/>
  <outline>
    <contour>
      <point x="-390" y="-55" type="line"/>
      <point x="-390" y="-251" type="line"/>
      <point x="-53" y="-251" type="line"/>
      <point x="-53" y="-148" type="line"/>
      <point x="-286" y="-148" type="line"/>
      <point x="-286" y="-55" type="line"/>
    </contour>
  </outline>
</glyph>
<glyph name="uni1CD7" format="2">
  <unicode hex="1CD7"/>
  <outline>
    <contour>
      <point x="-394" y="-139" type="curve" smooth="yes"/>
      <point x="-394" y="-179"/>
      <point x="-379" y="-211"/>
      <point x="-350" y="-234" type="curve" smooth="yes"/>
      <point x="-324" y="-255"/>
      <point x="-295" y="-268"/>
      <point x="-215" y="-268" type="curve" smooth="yes"/>
      <point x="-53" y="-268" type="line"/>
      <point x="-53" y="-165" type="line"/>
      <point x="-242" y="-165" type="line" smooth="yes"/>
      <point x="-255" y="-165"/>
      <point x="-265" y="-163"/>
      <point x="-271" y="-158" type="curve" smooth="yes"/>
      <point x="-276" y="-154"/>
      <point x="-278" y="-147"/>
      <point x="-278" y="-140" type="curve" smooth="yes"/>
      <point x="-278" y="-121"/>
      <point x="-262" y="-117"/>
      <point x="-237" y="-117" type="curve" smooth="yes"/>
      <point x="-215" y="-117" type="line"/>
      <point x="-220" y="-14" type="line"/>
      <point x="-316" y="-15"/>
      <point x="-394" y="-57"/>
    </contour>
  </outline>
</glyph>
<glyph name="uni1CD9" format="2">
  <unicode hex="1CD9"/>
  <outline>
    <contour>
      <point x="-122" y="-138" type="line"/>
      <point x="3" y="-260" type="line"/>
      <point x="91" y="-165" type="line"/>
      <point x="-81" y="-23" type="line"/>
      <point x="-191" y="-23" type="line"/>
      <point x="-306" y="-198" type="line"/>
      <point x="-192" y="-259" type="line"/>
    </contour>
  </outline>
</glyph>
<glyph name="uni1CDA" format="2">
  <unicode hex="1CDA"/>
  <outline>
    <contour>
      <point x="-116" y="885" type="line"/>
      <point x="-116" y="669" type="line"/>
      <point x="-36" y="669" type="line"/>
      <point x="-36" y="885" type="line"/>
    </contour>
    <contour>
      <point x="-230" y="885" type="line"/>
      <point x="-230" y="669" type="line"/>
      <point x="-150" y="669" type="line"/>
      <point x="-150" y="885" type="line"/>
    </contour>
  </outline>
</glyph>
<glyph name="uni1CDB" format="2">
  <unicode hex="1CDB"/>
  <outline>
    <contour>
      <point x="-275" y="885" type="line"/>
      <point x="-275" y="669" type="line"/>
      <point x="-201" y="669" type="line"/>
      <point x="-201" y="885" type="line"/>
    </contour>
    <contour>
      <point x="-169" y="885" type="line"/>
      <point x="-169" y="669" type="line"/>
      <point x="-95" y="669" type="line"/>
      <point x="-95" y="885" type="line"/>
    </contour>
    <contour>
      <point x="-63" y="885" type="line"/>
      <point x="-63" y="669" type="line"/>
      <point x="11" y="669" type="line"/>
      <point x="11" y="885" type="line"/>
    </contour>
  </outline>
</glyph>
<glyph name="uni1CDD" format="2">
  <unicode hex="1CDD"/>
  <outline>
    <contour>
      <point x="-21" y="-145" type="line"/>
      <point x="-130" y="-36" type="line"/>
      <point x="-239" y="-145" type="line"/>
      <point x="-130" y="-254" type="line"/>
    </contour>
  </outline>
</glyph>
<glyph name="uni1CDE" format="2">
  <unicode hex="1CDE"/>
  <outline>
    <contour>
      <point x="-196" y="-120" type="curve" smooth="yes"/>
      <point x="-196" y="-162"/>
      <point x="-171" y="-192"/>
      <point x="-129" y="-192" type="curve" smooth="yes"/>
      <point x="-87" y="-192"/>
      <point x="-62" y="-162"/>
      <point x="-62" y="-120" type="curve" smooth="yes"/>
      <point x="-62" y="-78"/>
      <point x="-87" y="-47"/>
      <point x="-129" y="-47" type="curve" smooth="yes"/>
      <point x="-171" y="-47"/>
      <point x="-196" y="-78"/>
    </contour>
    <contour>
      <point x="-354" y="-120" type="curve" smooth="yes"/>
      <point x="-354" y="-162"/>
      <point x="-329" y="-192"/>
      <point x="-287" y="-192" type="curve" smooth="yes"/>
      <point x="-245" y="-192"/>
      <point x="-220" y="-162"/>
      <point x="-220" y="-120" type="curve" smooth="yes"/>
      <point x="-220" y="-78"/>
      <point x="-245" y="-47"/>
      <point x="-287" y="-47" type="curve" smooth="yes"/>
      <point x="-329" y="-47"/>
      <point x="-354" y="-78"/>
    </contour>
  </outline>
</glyph>
<glyph name="uni1CDF" format="2">
  <unicode hex="1CDF"/>
  <outline>
    <contour>
      <point x="-193" y="-120" type="curve" smooth="yes"/>
      <point x="-193" y="-162"/>
      <point x="-168" y="-192"/>
      <point x="-126" y="-192" type="curve" smooth="yes"/>
      <point x="-84" y="-192"/>
      <point x="-59" y="-162"/>
      <point x="-59" y="-120" type="curve" smooth="yes"/>
      <point x="-59" y="-78"/>
      <point x="-84" y="-47"/>
      <point x="-126" y="-47" type="curve" smooth="yes"/>
      <point x="-168" y="-47"/>
      <point x="-193" y="-78"/>
    </contour>
    <contour>
      <point x="-347" y="-120" type="curve" smooth="yes"/>
      <point x="-347" y="-162"/>
      <point x="-322" y="-192"/>
      <point x="-280" y="-192" type="curve" smooth="yes"/>
      <point x="-238" y="-192"/>
      <point x="-213" y="-162"/>
      <point x="-213" y="-120" type="curve" smooth="yes"/>
      <point x="-213" y="-78"/>
      <point x="-238" y="-47"/>
      <point x="-280" y="-47" type="curve" smooth="yes"/>
      <point x="-322" y="-47"/>
      <point x="-347" y="-78"/>
    </contour>
    <contour>
      <point x="-501" y="-120" type="curve" smooth="yes"/>
      <point x="-501" y="-162"/>
      <point x="-476" y="-192"/>
      <point x="-434" y="-192" type="curve" smooth="yes"/>
      <point x="-392" y="-192"/>
      <point x="-367" y="-162"/>
      <point x="-367" y="-120" type="curve" smooth="yes"/>
      <point x="-367" y="-78"/>
      <point x="-392" y="-47"/>
      <point x="-434" y="-47" type="curve" smooth="yes"/>
      <point x="-476" y="-47"/>
      <point x="-501" y="-78"/>
    </contour>
  </outline>
</glyph>
<glyph name="uni1CE0" format="2">
  <unicode hex="1CE0"/>
  <outline>
    <contour>
      <point x="32" y="658" type="curve" smooth="yes"/>
      <point x="32" y="551"/>
      <point x="128" y="500"/>
      <point x="222" y="500" type="curve" smooth="yes"/>
      <point x="229" y="500" type="line"/>
      <point x="236" y="621" type="line"/>
      <point x="209" y="621" type="line" smooth="yes"/>
      <point x="184" y="621"/>
      <point x="169" y="628"/>
      <point x="169" y="649" type="curve" smooth="yes"/>
      <point x="169" y="656"/>
      <point x="171" y="663"/>
      <point x="175" y="667" type="curve" smooth="yes"/>
      <point x="180" y="673"/>
      <point x="189" y="675"/>
      <point x="202" y="675" type="curve" smooth="yes"/>
      <point x="360" y="675" type="line"/>
      <point x="360" y="808" type="line"/>
      <point x="247" y="808" type="line" smooth="yes"/>
      <point x="155" y="808"/>
      <point x="110" y="791"/>
      <point x="82" y="768" type="curve" smooth="yes"/>
      <point x="44" y="738"/>
      <point x="32" y="701"/>
    </contour>
  </outline>
</glyph>
<glyph name="uni1CE1" format="2">
  <advance width="383"/>
  <unicode hex="1CE1"/>
  <outline>
    <contour>
      <point x="316" y="714" type="curve"/>
      <point x="428" y="781" type="line"/>
      <point x="386" y="845"/>
      <point x="335" y="879"/>
      <point x="261" y="879" type="curve" smooth="yes"/>
      <point x="173" y="879"/>
      <point x="95" y="822"/>
      <point x="95" y="684" type="curve" smooth="yes"/>
      <point x="95" y="513"/>
      <point x="136" y="303"/>
      <point x="136" y="72" type="curve" smooth="yes"/>
      <point x="136" y="-27"/>
      <point x="111" y="-73"/>
      <point x="34" y="-73" type="curve" smooth="yes"/>
      <point x="14" y="-73"/>
      <point x="-4" y="-72"/>
      <point x="-15" y="-70" type="curve"/>
      <point x="-20" y="-201" type="line"/>
      <point x="-6" y="-204"/>
      <point x="16" y="-206"/>
      <point x="51" y="-206" type="curve" smooth="yes"/>
      <point x="233" y="-206"/>
      <point x="288" y="-90"/>
      <point x="288" y="71" type="curve" smooth="yes"/>
      <point x="288" y="309"/>
      <point x="246" y="527"/>
      <point x="246" y="684" type="curve" smooth="yes"/>
      <point x="246" y="724"/>
      <point x="256" y="745"/>
      <point x="278" y="745" type="curve" smooth="yes"/>
      <point x="292" y="745"/>
      <point x="304" y="733"/>
    </contour>
  </outline>
</glyph>
<glyph name="uni1CE2" format="2">
  <unicode hex="1CE2"/>
  <outline>
    <contour>
      <point x="-249" y="330" type="line"/>
      <point x="-249" y="224" type="line"/>
      <point x="-6" y="224" type="line"/>
      <point x="-6" y="330" type="line"/>
    </contour>
  </outline>
</glyph>
<glyph name="uni1CE3" format="2">
  <unicode hex="1CE3"/>
  <outline>
    <contour>
      <point x="63" y="601" type="curve"/>
      <point x="-47" y="522" type="line"/>
      <point x="-21" y="491"/>
      <point x="-3" y="471"/>
      <point x="26" y="430" type="curve" smooth="yes"/>
      <point x="59" y="384"/>
      <point x="66" y="371"/>
      <point x="66" y="353" type="curve" smooth="yes"/>
      <point x="66" y="346"/>
      <point x="64" y="341"/>
      <point x="61" y="338" type="curve" smooth="yes"/>
      <point x="56" y="333"/>
      <point x="50" y="330"/>
      <point x="33" y="330" type="curve" smooth="yes"/>
      <point x="-100" y="330" type="line"/>
      <point x="-100" y="224" type="line"/>
      <point x="19" y="224" type="line" smooth="yes"/>
      <point x="93" y="224"/>
      <point x="128" y="232"/>
      <point x="157" y="253" type="curve" smooth="yes"/>
      <point x="183" y="272"/>
      <point x="201" y="306"/>
      <point x="201" y="346" type="curve" smooth="yes"/>
      <point x="201" y="410"/>
      <point x="176" y="452"/>
      <point x="141" y="502" type="curve" smooth="yes"/>
      <point x="111" y="544"/>
      <point x="82" y="579"/>
    </contour>
  </outline>
</glyph>
<glyph name="uni1CE4" format="2">
  <unicode hex="1CE4"/>
  <outline>
    <contour>
      <point x="277" y="522" type="curve"/>
      <point x="167" y="601" type="line"/>
      <point x="148" y="579"/>
      <point x="119" y="544"/>
      <point x="89" y="502" type="curve" smooth="yes"/>
      <point x="54" y="452"/>
      <point x="29" y="410"/>
      <point x="29" y="346" type="curve" smooth="yes"/>
      <point x="29" y="306"/>
      <point x="47" y="272"/>
      <point x="73" y="253" type="curve" smooth="yes"/>
      <point x="102" y="232"/>
      <point x="137" y="224"/>
      <point x="211" y="224" type="curve" smooth="yes"/>
      <point x="330" y="224" type="line"/>
      <point x="330" y="330" type="line"/>
      <point x="197" y="330" type="line" smooth="yes"/>
      <point x="180" y="330"/>
      <point x="174" y="333"/>
      <point x="169" y="338" type="curve" smooth="yes"/>
      <point x="166" y="341"/>
      <point x="164" y="346"/>
      <point x="164" y="353" type="curve" smooth="yes"/>
      <point x="164" y="371"/>
      <point x="171" y="384"/>
      <point x="204" y="430" type="curve" smooth="yes"/>
      <point x="233" y="471"/>
      <point x="251" y="491"/>
    </contour>
  </outline>
</glyph>
<glyph name="uni1CE5" format="2">
  <unicode hex="1CE5"/>
  <outline>
    <contour>
      <point x="167" y="-47" type="curve"/>
      <point x="277" y="32" type="line"/>
      <point x="251" y="63"/>
      <point x="233" y="83"/>
      <point x="204" y="124" type="curve" smooth="yes"/>
      <point x="171" y="170"/>
      <point x="164" y="183"/>
      <point x="164" y="201" type="curve" smooth="yes"/>
      <point x="164" y="208"/>
      <point x="166" y="213"/>
      <point x="169" y="216" type="curve" smooth="yes"/>
      <point x="174" y="221"/>
      <point x="180" y="224"/>
      <point x="197" y="224" type="curve" smooth="yes"/>
      <point x="330" y="224" type="line"/>
      <point x="330" y="330" type="line"/>
      <point x="211" y="330" type="line" smooth="yes"/>
      <point x="137" y="330"/>
      <point x="102" y="322"/>
      <point x="73" y="301" type="curve" smooth="yes"/>
      <point x="47" y="282"/>
      <point x="29" y="248"/>
      <point x="29" y="208" type="curve" smooth="yes"/>
      <point x="29" y="144"/>
      <point x="54" y="102"/>
      <point x="89" y="52" type="curve" smooth="yes"/>
      <point x="119" y="10"/>
      <point x="148" y="-25"/>
    </contour>
  </outline>
</glyph>
<glyph name="uni1CE6" format="2">
  <unicode hex="1CE6"/>
  <outline>
    <contour>
      <point x="-47" y="32" type="curve"/>
      <point x="63" y="-47" type="line"/>
      <point x="82" y="-25"/>
      <point x="111" y="10"/>
      <point x="141" y="52" type="curve" smooth="yes"/>
      <point x="176" y="102"/>
      <point x="201" y="144"/>
      <point x="201" y="208" type="curve" smooth="yes"/>
      <point x="201" y="248"/>
      <point x="183" y="282"/>
      <point x="157" y="301" type="curve" smooth="yes"/>
      <point x="128" y="322"/>
      <point x="93" y="330"/>
      <point x="19" y="330" type="curve" smooth="yes"/>
      <point x="-100" y="330" type="line"/>
      <point x="-100" y="224" type="line"/>
      <point x="33" y="224" type="line" smooth="yes"/>
      <point x="50" y="224"/>
      <point x="56" y="221"/>
      <point x="61" y="216" type="curve" smooth="yes"/>
      <point x="64" y="213"/>
      <point x="66" y="208"/>
      <point x="66" y="201" type="curve" smooth="yes"/>
      <point x="66" y="183"/>
      <point x="59" y="170"/>
      <point x="26" y="124" type="curve" smooth="yes"/>
      <point x="-3" y="83"/>
      <point x="-21" y="63"/>
    </contour>
  </outline>
</glyph>
<glyph name="uni1CE7" format="2">
  <unicode hex="1CE7"/>
  <outline>
    <contour>
      <point x="-100" y="330" type="line"/>
      <point x="-100" y="224" type="line"/>
      <point x="19" y="224" type="line" smooth="yes"/>
      <point x="93" y="224"/>
      <point x="128" y="232"/>
      <point x="157" y="253" type="curve" smooth="yes"/>
      <point x="183" y="272"/>
      <point x="201" y="306"/>
      <point x="201" y="346" type="curve" smooth="yes"/>
      <point x="201" y="411"/>
      <point x="175" y="453"/>
      <point x="133" y="508" type="curve" smooth="yes"/>
      <point x="80" y="576"/>
      <point x="66" y="596"/>
      <point x="66" y="616" type="curve" smooth="yes"/>
      <point x="66" y="634"/>
      <point x="77" y="641"/>
      <point x="91" y="641" type="curve" smooth="yes"/>
      <point x="119" y="641"/>
      <point x="142" y="614"/>
      <point x="165" y="563" type="curve"/>
      <point x="279" y="605" type="line"/>
      <point x="235" y="716"/>
      <point x="173" y="762"/>
      <point x="85" y="762" type="curve" smooth="yes"/>
      <point x="-1" y="762"/>
      <point x="-66" y="715"/>
      <point x="-66" y="620" type="curve" smooth="yes"/>
      <point x="-66" y="546"/>
      <point x="-31" y="495"/>
      <point x="11" y="440" type="curve" smooth="yes"/>
      <point x="52" y="386"/>
      <point x="66" y="366"/>
      <point x="66" y="351" type="curve" smooth="yes"/>
      <point x="66" y="346"/>
      <point x="65" y="341"/>
      <point x="62" y="338" type="curve" smooth="yes"/>
      <point x="57" y="333"/>
      <point x="51" y="330"/>
      <point x="34" y="330" type="curve"/>
    </contour>
  </outline>
</glyph>
<glyph name="uni1CE8" format="2">
  <unicode hex="1CE8"/>
  <outline>
    <contour>
      <point x="353" y="224" type="line"/>
      <point x="353" y="330" type="line"/>
      <point x="234" y="330" type="line" smooth="yes"/>
      <point x="160" y="330"/>
      <point x="125" y="322"/>
      <point x="96" y="301" type="curve" smooth="yes"/>
      <point x="70" y="282"/>
      <point x="52" y="248"/>
      <point x="52" y="208" type="curve" smooth="yes"/>
      <point x="52" y="143"/>
      <point x="78" y="101"/>
      <point x="120" y="46" type="curve" smooth="yes"/>
      <point x="173" y="-22"/>
      <point x="187" y="-42"/>
      <point x="187" y="-62" type="curve" smooth="yes"/>
      <point x="187" y="-80"/>
      <point x="176" y="-87"/>
      <point x="162" y="-87" type="curve" smooth="yes"/>
      <point x="134" y="-87"/>
      <point x="111" y="-60"/>
      <point x="88" y="-9" type="curve"/>
      <point x="-26" y="-51" type="line"/>
      <point x="18" y="-162"/>
      <point x="80" y="-208"/>
      <point x="168" y="-208" type="curve" smooth="yes"/>
      <point x="254" y="-208"/>
      <point x="319" y="-161"/>
      <point x="319" y="-66" type="curve" smooth="yes"/>
      <point x="319" y="8"/>
      <point x="284" y="59"/>
      <point x="242" y="114" type="curve" smooth="yes"/>
      <point x="201" y="168"/>
      <point x="187" y="188"/>
      <point x="187" y="203" type="curve" smooth="yes"/>
      <point x="187" y="208"/>
      <point x="188" y="213"/>
      <point x="191" y="216" type="curve" smooth="yes"/>
      <point x="196" y="221"/>
      <point x="202" y="224"/>
      <point x="219" y="224" type="curve" smooth="yes"/>
    </contour>
  </outline>
</glyph>
<glyph name="uni1CE9" format="2">
  <advance width="739"/>
  <unicode hex="1CE9"/>
  <outline>
    <contour>
      <point x="373" y="0" type="curve" smooth="yes"/>
      <point x="606" y="0"/>
      <point x="708" y="138"/>
      <point x="708" y="361" type="curve" smooth="yes"/>
      <point x="708" y="548"/>
      <point x="628" y="632"/>
      <point x="520" y="632" type="curve" smooth="yes"/>
      <point x="414" y="632"/>
      <point x="377" y="562"/>
      <point x="377" y="483" type="curve" smooth="yes"/>
      <point x="377" y="366"/>
      <point x="446" y="329"/>
      <point x="513" y="329" type="curve" smooth="yes"/>
      <point x="526" y="329"/>
      <point x="536" y="330"/>
      <point x="545" y="332" type="curve"/>
      <point x="541" y="446" type="line"/>
      <point x="536" y="445"/>
      <point x="532" y="445"/>
      <point x="528" y="445" type="curve" smooth="yes"/>
      <point x="508" y="445"/>
      <point x="497" y="458"/>
      <point x="497" y="487" type="curve" smooth="yes"/>
      <point x="497" y="509"/>
      <point x="503" y="522"/>
      <point x="519" y="522" type="curve" smooth="yes"/>
      <point x="547" y="522"/>
      <point x="558" y="454"/>
      <point x="558" y="383" type="curve" smooth="yes"/>
      <point x="558" y="373" type="line" smooth="yes"/>
      <point x="558" y="243"/>
      <point x="506" y="135"/>
      <point x="372" y="135" type="curve" smooth="yes"/>
      <point x="231" y="135"/>
      <point x="191" y="254"/>
      <point x="191" y="363" type="curve" smooth="yes"/>
      <point x="191" y="382" type="line" smooth="yes"/>
      <point x="191" y="456"/>
      <point x="205" y="522"/>
      <point x="233" y="522" type="curve" smooth="yes"/>
      <point x="246" y="522"/>
      <point x="252" y="510"/>
      <point x="252" y="486" type="curve" smooth="yes"/>
      <point x="252" y="460"/>
      <point x="243" y="445"/>
      <point x="225" y="445" type="curve" smooth="yes"/>
      <point x="220" y="445"/>
      <point x="216" y="445"/>
      <point x="211" y="446" type="curve"/>
      <point x="204" y="333" type="line"/>
      <point x="217" y="330"/>
      <point x="228" y="329"/>
      <point x="242" y="329" type="curve" smooth="yes"/>
      <point x="327" y="329"/>
      <point x="372" y="379"/>
      <point x="372" y="483" type="curve" smooth="yes"/>
      <point x="372" y="554"/>
      <point x="332" y="632"/>
      <point x="231" y="632" type="curve" smooth="yes"/>
      <point x="115" y="632"/>
      <point x="41" y="540"/>
      <point x="41" y="373" type="curve" smooth="yes"/>
      <point x="41" y="144"/>
      <point x="154" y="0"/>
    </contour>
  </outline>
</glyph>
<glyph name="uni1CEA" format="2">
  <advance width="685"/>
  <unicode hex="1CEA"/>
  <outline>
    <contour>
      <point x="348" y="-1" type="curve" smooth="yes"/>
      <point x="514" y="-1"/>
      <point x="591" y="79"/>
      <point x="591" y="199" type="curve" smooth="yes"/>
      <point x="591" y="258"/>
      <point x="573" y="302"/>
      <point x="535" y="376" type="curve" smooth="yes"/>
      <point x="513" y="419"/>
      <point x="495" y="457"/>
      <point x="495" y="485" type="curve" smooth="yes"/>
      <point x="495" y="505"/>
      <point x="501" y="524"/>
      <point x="521" y="524" type="curve" smooth="yes"/>
      <point x="534" y="524"/>
      <point x="543" y="515"/>
      <point x="543" y="499" type="curve" smooth="yes"/>
      <point x="543" y="477"/>
      <point x="530" y="466"/>
      <point x="517" y="458" type="curve"/>
      <point x="569" y="359" type="line"/>
      <point x="630" y="385"/>
      <point x="666" y="428"/>
      <point x="666" y="491" type="curve" smooth="yes"/>
      <point x="666" y="572"/>
      <point x="611" y="632"/>
      <point x="506" y="632" type="curve" smooth="yes"/>
      <point x="392" y="632"/>
      <point x="353" y="561"/>
      <point x="353" y="489" type="curve" smooth="yes"/>
      <point x="353" y="427"/>
      <point x="369" y="374"/>
      <point x="396" y="320" type="curve" smooth="yes"/>
      <point x="425" y="262"/>
      <point x="436" y="237"/>
      <point x="436" y="207" type="curve" smooth="yes"/>
      <point x="436" y="157"/>
      <point x="396" y="137"/>
      <point x="348" y="137" type="curve" smooth="yes"/>
      <point x="299" y="137"/>
      <point x="261" y="157"/>
      <point x="261" y="207" type="curve" smooth="yes"/>
      <point x="261" y="237"/>
      <point x="272" y="262"/>
      <point x="298" y="312" type="curve" smooth="yes"/>
      <point x="330" y="373"/>
      <point x="345" y="427"/>
      <point x="345" y="482" type="curve" smooth="yes"/>
      <point x="345" y="561"/>
      <point x="301" y="632"/>
      <point x="182" y="632" type="curve" smooth="yes"/>
      <point x="86" y="632"/>
      <point x="32" y="574"/>
      <point x="32" y="498" type="curve" smooth="yes"/>
      <point x="32" y="428"/>
      <point x="72" y="384"/>
      <point x="129" y="359" type="curve"/>
      <point x="181" y="458" type="line"/>
      <point x="165" y="466"/>
      <point x="155" y="477"/>
      <point x="155" y="497" type="curve" smooth="yes"/>
      <point x="155" y="514"/>
      <point x="166" y="524"/>
      <point x="178" y="524" type="curve" smooth="yes"/>
      <point x="198" y="524"/>
      <point x="203" y="505"/>
      <point x="203" y="485" type="curve" smooth="yes"/>
      <point x="203" y="457"/>
      <point x="188" y="425"/>
      <point x="162" y="376" type="curve" smooth="yes"/>
      <point x="123" y="302"/>
      <point x="106" y="263"/>
      <point x="106" y="208" type="curve" smooth="yes"/>
      <point x="106" y="83"/>
      <point x="187" y="-1"/>
    </contour>
  </outline>
</glyph>
<glyph name="uni1CEB" format="2">
  <advance width="718"/>
  <unicode hex="1CEB"/>
  <outline>
    <contour>
      <point x="348" y="-1" type="curve" smooth="yes"/>
      <point x="540" y="-1"/>
      <point x="689" y="123"/>
      <point x="689" y="345" type="curve" smooth="yes"/>
      <point x="689" y="472"/>
      <point x="636" y="590"/>
      <point x="502" y="590" type="curve" smooth="yes"/>
      <point x="399" y="590"/>
      <point x="358" y="523"/>
      <point x="358" y="441" type="curve" smooth="yes"/>
      <point x="358" y="324"/>
      <point x="427" y="287"/>
      <point x="494" y="287" type="curve" smooth="yes"/>
      <point x="507" y="287"/>
      <point x="517" y="288"/>
      <point x="526" y="290" type="curve"/>
      <point x="522" y="404" type="line"/>
      <point x="517" y="403"/>
      <point x="513" y="403"/>
      <point x="509" y="403" type="curve" smooth="yes"/>
      <point x="489" y="403"/>
      <point x="478" y="416"/>
      <point x="478" y="445" type="curve" smooth="yes"/>
      <point x="478" y="467"/>
      <point x="484" y="480"/>
      <point x="500" y="480" type="curve" smooth="yes"/>
      <point x="520" y="480"/>
      <point x="541" y="443"/>
      <point x="541" y="346" type="curve" smooth="yes"/>
      <point x="541" y="248"/>
      <point x="478" y="137"/>
      <point x="348" y="137" type="curve" smooth="yes"/>
      <point x="299" y="137"/>
      <point x="261" y="157"/>
      <point x="261" y="207" type="curve" smooth="yes"/>
      <point x="261" y="237"/>
      <point x="272" y="262"/>
      <point x="298" y="312" type="curve" smooth="yes"/>
      <point x="330" y="373"/>
      <point x="345" y="427"/>
      <point x="345" y="482" type="curve" smooth="yes"/>
      <point x="345" y="561"/>
      <point x="301" y="632"/>
      <point x="180" y="632" type="curve" smooth="yes"/>
      <point x="86" y="632"/>
      <point x="32" y="574"/>
      <point x="32" y="498" type="curve" smooth="yes"/>
      <point x="32" y="428"/>
      <point x="72" y="384"/>
      <point x="129" y="359" type="curve"/>
      <point x="181" y="458" type="line"/>
      <point x="165" y="466"/>
      <point x="155" y="477"/>
      <point x="155" y="497" type="curve" smooth="yes"/>
      <point x="155" y="514"/>
      <point x="166" y="524"/>
      <point x="178" y="524" type="curve" smooth="yes"/>
      <point x="198" y="524"/>
      <point x="203" y="505"/>
      <point x="203" y="485" type="curve" smooth="yes"/>
      <point x="203" y="457"/>
      <point x="188" y="425"/>
      <point x="162" y="376" type="curve" smooth="yes"/>
      <point x="123" y="302"/>
      <point x="106" y="263"/>
      <point x="106" y="208" type="curve" smooth="yes"/>
      <point x="106" y="83"/>
      <point x="187" y="-1"/>
    </contour>
  </outline>
</glyph>
<glyph name="uni1CEC" format="2">
  <advance width="818"/>
  <unicode hex="1CEC"/>
  <outline>
    <contour>
      <point x="526" y="378" type="curve" smooth="yes"/>
      <point x="526" y="262"/>
      <point x="476" y="137"/>
      <point x="348" y="137" type="curve" smooth="yes"/>
      <point x="299" y="137"/>
      <point x="261" y="157"/>
      <point x="261" y="207" type="curve" smooth="yes"/>
      <point x="261" y="237"/>
      <point x="272" y="262"/>
      <point x="298" y="312" type="curve" smooth="yes"/>
      <point x="330" y="373"/>
      <point x="345" y="427"/>
      <point x="345" y="482" type="curve" smooth="yes"/>
      <point x="345" y="561"/>
      <point x="301" y="632"/>
      <point x="180" y="632" type="curve" smooth="yes"/>
      <point x="86" y="632"/>
      <point x="32" y="574"/>
      <point x="32" y="498" type="curve" smooth="yes"/>
      <point x="32" y="428"/>
      <point x="72" y="384"/>
      <point x="129" y="359" type="curve"/>
      <point x="181" y="458" type="line"/>
      <point x="165" y="466"/>
      <point x="155" y="477"/>
      <point x="155" y="497" type="curve" smooth="yes"/>
      <point x="155" y="514"/>
      <point x="166" y="524"/>
      <point x="178" y="524" type="curve" smooth="yes"/>
      <point x="198" y="524"/>
      <point x="203" y="505"/>
      <point x="203" y="485" type="curve" smooth="yes"/>
      <point x="203" y="457"/>
      <point x="188" y="425"/>
      <point x="162" y="376" type="curve" smooth="yes"/>
      <point x="123" y="302"/>
      <point x="106" y="263"/>
      <point x="106" y="208" type="curve" smooth="yes"/>
      <point x="106" y="83"/>
      <point x="187" y="-1"/>
      <point x="348" y="-1" type="curve" smooth="yes"/>
      <point x="539" y="-1"/>
      <point x="665" y="126"/>
      <point x="665" y="362" type="curve" smooth="yes"/>
      <point x="665" y="516"/>
      <point x="591" y="590"/>
      <point x="491" y="590" type="curve" smooth="yes"/>
      <point x="391" y="590"/>
      <point x="352" y="512"/>
      <point x="352" y="441" type="curve" smooth="yes"/>
      <point x="352" y="333"/>
      <point x="429" y="270"/>
      <point x="550" y="249" type="curve"/>
      <point x="654" y="232"/>
      <point x="666" y="206"/>
      <point x="666" y="161" type="curve" smooth="yes"/>
      <point x="666" y="131"/>
      <point x="648" y="99"/>
      <point x="632" y="74" type="curve"/>
      <point x="745" y="10" type="line"/>
      <point x="775" y="56"/>
      <point x="799" y="107"/>
      <point x="799" y="165" type="curve" smooth="yes"/>
      <point x="799" y="276"/>
      <point x="744" y="342"/>
      <point x="600" y="360" type="curve"/>
      <point x="493" y="370"/>
      <point x="472" y="400"/>
      <point x="472" y="445" type="curve" smooth="yes"/>
      <point x="472" y="460"/>
      <point x="476" y="480"/>
      <point x="494" y="480" type="curve" smooth="yes"/>
      <point x="517" y="480"/>
      <point x="526" y="438"/>
    </contour>
  </outline>
</glyph>
<glyph name="uni1CED" format="2">
  <unicode hex="1CED"/>
  <outline>
    <contour>
      <point x="-198" y="-107" type="line"/>
      <point x="-18" y="-268" type="line"/>
      <point x="60" y="-180" type="line"/>
      <point x="-120" y="-19" type="line"/>
    </contour>
  </outline>
</glyph>
<glyph name="uni1CEE" format="2">
  <advance width="474"/>
  <unicode hex="1CEE"/>
  <outline>
    <contour>
      <point x="267" y="0" type="curve" smooth="yes"/>
      <point x="374" y="0"/>
      <point x="427" y="51"/>
      <point x="427" y="124" type="curve" smooth="yes"/>
      <point x="427" y="173"/>
      <point x="397" y="206"/>
      <point x="351" y="206" type="curve" smooth="yes"/>
      <point x="313" y="206"/>
      <point x="276" y="182"/>
      <point x="276" y="125" type="curve" smooth="yes"/>
      <point x="276" y="98"/>
      <point x="285" y="70"/>
      <point x="309" y="54" type="curve"/>
      <point x="323" y="137" type="line"/>
      <point x="303" y="129"/>
      <point x="286" y="129"/>
      <point x="273" y="129" type="curve" smooth="yes"/>
      <point x="235" y="129"/>
      <point x="211" y="153"/>
      <point x="211" y="198" type="curve" smooth="yes"/>
      <point x="211" y="235"/>
      <point x="230" y="259"/>
      <point x="266" y="259" type="curve" smooth="yes"/>
      <point x="270" y="259"/>
      <point x="276" y="259"/>
      <point x="283" y="258" type="curve"/>
      <point x="294" y="390" type="line"/>
      <point x="290" y="391"/>
      <point x="280" y="392"/>
      <point x="256" y="392" type="curve" smooth="yes"/>
      <point x="139" y="392"/>
      <point x="61" y="313"/>
      <point x="61" y="195" type="curve" smooth="yes"/>
      <point x="61" y="91"/>
      <point x="120" y="0"/>
    </contour>
    <contour>
      <point x="134" y="301" type="curve"/>
      <point x="246" y="383" type="line"/>
      <point x="215" y="399"/>
      <point x="192" y="423"/>
      <point x="192" y="456" type="curve" smooth="yes"/>
      <point x="192" y="484"/>
      <point x="212" y="499"/>
      <point x="244" y="499" type="curve" smooth="yes"/>
      <point x="260" y="499"/>
      <point x="274" y="498"/>
      <point x="288" y="495" type="curve"/>
      <point x="306" y="624" type="line"/>
      <point x="284" y="628"/>
      <point x="251" y="632"/>
      <point x="218" y="632" type="curve" smooth="yes"/>
      <point x="101" y="632"/>
      <point x="42" y="570"/>
      <point x="42" y="465" type="curve" smooth="yes"/>
      <point x="42" y="412"/>
      <point x="68" y="344"/>
    </contour>
    <contour>
      <point x="381" y="254" type="curve" smooth="yes"/>
      <point x="426" y="254"/>
      <point x="453" y="286"/>
      <point x="453" y="332" type="curve" smooth="yes"/>
      <point x="453" y="377"/>
      <point x="426" y="410"/>
      <point x="381" y="410" type="curve" smooth="yes"/>
      <point x="335" y="410"/>
      <point x="308" y="377"/>
      <point x="308" y="332" type="curve" smooth="yes"/>
      <point x="308" y="286"/>
      <point x="335" y="254"/>
    </contour>
  </outline>
</glyph>
<glyph name="uni1CEF" format="2">
  <advance width="389"/>
  <unicode hex="1CEF"/>
  <outline>
    <contour>
      <point x="365" y="257" type="curve"/>
      <point x="334" y="371" type="line"/>
      <point x="307" y="361"/>
      <point x="290" y="358"/>
      <point x="264" y="358" type="curve" smooth="yes"/>
      <point x="220" y="358"/>
      <point x="194" y="385"/>
      <point x="194" y="431" type="curve" smooth="yes"/>
      <point x="194" y="484"/>
      <point x="225" y="508"/>
      <point x="276" y="508" type="curve" smooth="yes"/>
      <point x="291" y="508"/>
      <point x="313" y="506"/>
      <point x="333" y="502" type="curve"/>
      <point x="344" y="624" type="line"/>
      <point x="318" y="629"/>
      <point x="289" y="632"/>
      <point x="246" y="632" type="curve" smooth="yes"/>
      <point x="116" y="632"/>
      <point x="43" y="556"/>
      <point x="43" y="436" type="curve" smooth="yes"/>
      <point x="43" y="338"/>
      <point x="95" y="270"/>
      <point x="195" y="254" type="curve" smooth="yes"/>
      <point x="207" y="252"/>
      <point x="215" y="241"/>
      <point x="216" y="241" type="curve" smooth="yes"/>
      <point x="274" y="240"/>
      <point x="323" y="243"/>
    </contour>
    <contour>
      <point x="326" y="287" type="line"/>
      <point x="210" y="303" type="line"/>
      <point x="119" y="277"/>
      <point x="65" y="217"/>
      <point x="65" y="133" type="curve" smooth="yes"/>
      <point x="65" y="41"/>
      <point x="126" y="-12"/>
      <point x="224" y="-12" type="curve" smooth="yes"/>
      <point x="321" y="-12"/>
      <point x="365" y="36"/>
      <point x="365" y="109" type="curve" smooth="yes"/>
      <point x="365" y="170"/>
      <point x="321" y="213"/>
      <point x="270" y="226" type="curve"/>
      <point x="228" y="142" type="line"/>
      <point x="244" y="137"/>
      <point x="252" y="126"/>
      <point x="252" y="116" type="curve" smooth="yes"/>
      <point x="252" y="101"/>
      <point x="242" y="95"/>
      <point x="230" y="95" type="curve" smooth="yes"/>
      <point x="214" y="95"/>
      <point x="205" y="110"/>
      <point x="205" y="132" type="curve" smooth="yes"/>
      <point x="205" y="198"/>
      <point x="254" y="238"/>
      <point x="309" y="247" type="curve"/>
    </contour>
    <contour>
      <point x="224" y="433" type="curve" smooth="yes"/>
      <point x="224" y="396"/>
      <point x="244" y="380"/>
      <point x="272" y="380" type="curve" smooth="yes"/>
      <point x="301" y="380"/>
      <point x="321" y="396"/>
      <point x="321" y="433" type="curve" smooth="yes"/>
      <point x="321" y="469"/>
      <point x="301" y="486"/>
      <point x="274" y="486" type="curve" smooth="yes"/>
      <point x="244" y="486"/>
      <point x="224" y="468"/>
    </contour>
  </outline>
</glyph>
<glyph name="uni1CF0" format="2">
  <advance width="514"/>
  <unicode hex="1CF0"/>
  <outline>
    <contour>
      <point x="261" y="220" type="curve" smooth="yes"/>
      <point x="303" y="220" type="line"/>
      <point x="322" y="250"/>
      <point x="331" y="278"/>
      <point x="331" y="322" type="curve" smooth="yes"/>
      <point x="331" y="367"/>
      <point x="315" y="397"/>
      <point x="278" y="449" type="curve" smooth="yes"/>
      <point x="252" y="485"/>
      <point x="244" y="497"/>
      <point x="244" y="512" type="curve" smooth="yes"/>
      <point x="244" y="524"/>
      <point x="251" y="531"/>
      <point x="263" y="531" type="curve" smooth="yes"/>
      <point x="280" y="531"/>
      <point x="295" y="514"/>
      <point x="320" y="475" type="curve"/>
      <point x="418" y="529" type="line"/>
      <point x="374" y="592"/>
      <point x="327" y="632"/>
      <point x="248" y="632" type="curve" smooth="yes"/>
      <point x="163" y="632"/>
      <point x="114" y="580"/>
      <point x="114" y="518" type="curve" smooth="yes"/>
      <point x="114" y="467"/>
      <point x="134" y="430"/>
      <point x="160" y="387" type="curve" smooth="yes"/>
      <point x="180" y="354"/>
      <point x="188" y="343"/>
      <point x="188" y="331" type="curve" smooth="yes"/>
      <point x="188" y="318"/>
      <point x="184" y="310"/>
      <point x="180" y="300" type="curve"/>
      <point x="220" y="344" type="line"/>
      <point x="117" y="344"/>
      <point x="25" y="290"/>
      <point x="25" y="176" type="curve" smooth="yes"/>
      <point x="25" y="56"/>
      <point x="134" y="0"/>
      <point x="255" y="0" type="curve" smooth="yes"/>
      <point x="366" y="0"/>
      <point x="482" y="35"/>
      <point x="482" y="161" type="curve" smooth="yes"/>
      <point x="482" y="236"/>
      <point x="423" y="329"/>
      <point x="264" y="350" type="curve"/>
      <point x="242" y="272" type="line"/>
      <point x="287" y="220" type="line"/>
      <point x="314" y="210"/>
      <point x="331" y="190"/>
      <point x="331" y="167" type="curve" smooth="yes"/>
      <point x="331" y="139"/>
      <point x="302" y="126"/>
      <point x="251" y="126" type="curve" smooth="yes"/>
      <point x="207" y="126"/>
      <point x="176" y="139"/>
      <point x="176" y="174" type="curve" smooth="yes"/>
      <point x="176" y="205"/>
      <point x="198" y="220"/>
    </contour>
    <contour>
      <point x="342" y="413" type="curve" smooth="yes"/>
      <point x="342" y="367"/>
      <point x="369" y="335"/>
      <point x="415" y="335" type="curve" smooth="yes"/>
      <point x="460" y="335"/>
      <point x="487" y="367"/>
      <point x="487" y="413" type="curve" smooth="yes"/>
      <point x="487" y="458"/>
      <point x="460" y="491"/>
      <point x="415" y="491" type="curve" smooth="yes"/>
      <point x="369" y="491"/>
      <point x="342" y="458"/>
    </contour>
  </outline>
</glyph>
<glyph name="uni1CF1" format="2">
  <advance width="502"/>
  <unicode hex="1CF1"/>
  <outline>
    <contour>
      <point x="225" y="32" type="curve"/>
      <point x="335" y="-47" type="line"/>
      <point x="354" y="-25"/>
      <point x="383" y="10"/>
      <point x="413" y="52" type="curve" smooth="yes"/>
      <point x="448" y="102"/>
      <point x="473" y="144"/>
      <point x="473" y="208" type="curve" smooth="yes"/>
      <point x="473" y="248"/>
      <point x="455" y="282"/>
      <point x="429" y="301" type="curve" smooth="yes"/>
      <point x="400" y="322"/>
      <point x="365" y="330"/>
      <point x="291" y="330" type="curve" smooth="yes"/>
      <point x="231" y="330" type="line"/>
      <point x="231" y="224" type="line"/>
      <point x="305" y="224" type="line" smooth="yes"/>
      <point x="322" y="224"/>
      <point x="328" y="221"/>
      <point x="333" y="216" type="curve" smooth="yes"/>
      <point x="336" y="213"/>
      <point x="338" y="208"/>
      <point x="338" y="201" type="curve" smooth="yes"/>
      <point x="338" y="183"/>
      <point x="331" y="170"/>
      <point x="298" y="124" type="curve" smooth="yes"/>
      <point x="269" y="83"/>
      <point x="251" y="63"/>
    </contour>
    <contour>
      <point x="79" y="118" type="curve" smooth="yes"/>
      <point x="79" y="70"/>
      <point x="107" y="36"/>
      <point x="156" y="36" type="curve" smooth="yes"/>
      <point x="204" y="36"/>
      <point x="232" y="70"/>
      <point x="232" y="118" type="curve" smooth="yes"/>
      <point x="232" y="165"/>
      <point x="204" y="200"/>
      <point x="156" y="200" type="curve" smooth="yes"/>
      <point x="107" y="200"/>
      <point x="79" y="165"/>
    </contour>
    <contour>
      <point x="277" y="522" type="curve"/>
      <point x="167" y="601" type="line"/>
      <point x="148" y="579"/>
      <point x="119" y="544"/>
      <point x="89" y="502" type="curve" smooth="yes"/>
      <point x="54" y="452"/>
      <point x="29" y="410"/>
      <point x="29" y="346" type="curve" smooth="yes"/>
      <point x="29" y="306"/>
      <point x="47" y="272"/>
      <point x="73" y="253" type="curve" smooth="yes"/>
      <point x="102" y="232"/>
      <point x="137" y="224"/>
      <point x="211" y="224" type="curve" smooth="yes"/>
      <point x="274" y="224" type="line"/>
      <point x="274" y="330" type="line"/>
      <point x="197" y="330" type="line" smooth="yes"/>
      <point x="180" y="330"/>
      <point x="174" y="333"/>
      <point x="169" y="338" type="curve" smooth="yes"/>
      <point x="166" y="341"/>
      <point x="164" y="346"/>
      <point x="164" y="353" type="curve" smooth="yes"/>
      <point x="164" y="371"/>
      <point x="171" y="384"/>
      <point x="204" y="430" type="curve" smooth="yes"/>
      <point x="233" y="471"/>
      <point x="251" y="491"/>
    </contour>
    <contour>
      <point x="270" y="437" type="curve" smooth="yes"/>
      <point x="270" y="389"/>
      <point x="298" y="355"/>
      <point x="347" y="355" type="curve" smooth="yes"/>
      <point x="395" y="355"/>
      <point x="423" y="389"/>
      <point x="423" y="437" type="curve" smooth="yes"/>
      <point x="423" y="484"/>
      <point x="395" y="519"/>
      <point x="347" y="519" type="curve" smooth="yes"/>
      <point x="298" y="519"/>
      <point x="270" y="484"/>
    </contour>
  </outline>
</glyph>
<glyph name="uni1CF2" format="2">
  <advance width="479"/>
  <unicode hex="1CF2"/>
  <outline>
    <contour>
      <point x="247" y="286" type="curve" smooth="yes"/>
      <point x="371" y="286"/>
      <point x="430" y="352"/>
      <point x="448" y="517" type="curve"/>
      <point x="338" y="543" type="line"/>
      <point x="331" y="438"/>
      <point x="305" y="402"/>
      <point x="247" y="402" type="curve" smooth="yes"/>
      <point x="195" y="402"/>
      <point x="167" y="438"/>
      <point x="144" y="543" type="curve"/>
      <point x="40" y="511" type="line"/>
      <point x="76" y="358"/>
      <point x="135" y="286"/>
    </contour>
    <contour>
      <point x="241" y="270" type="curve" smooth="yes"/>
      <point x="117" y="270"/>
      <point x="58" y="204"/>
      <point x="40" y="39" type="curve"/>
      <point x="150" y="13" type="line"/>
      <point x="157" y="118"/>
      <point x="183" y="154"/>
      <point x="241" y="154" type="curve" smooth="yes"/>
      <point x="293" y="154"/>
      <point x="321" y="118"/>
      <point x="344" y="13" type="curve"/>
      <point x="448" y="45" type="line"/>
      <point x="412" y="198"/>
      <point x="353" y="270"/>
    </contour>
  </outline>
</glyph>
<glyph name="uni1CF3" format="2">
  <advance width="577"/>
  <unicode hex="1CF3"/>
  <outline>
    <contour>
      <point x="30" y="177" type="curve"/>
      <point x="48" y="74" type="line"/>
      <point x="210" y="92"/>
      <point x="282" y="149"/>
      <point x="282" y="275" type="curve" smooth="yes"/>
      <point x="282" y="387"/>
      <point x="207" y="446"/>
      <point x="57" y="482" type="curve"/>
      <point x="30" y="381" type="line"/>
      <point x="127" y="355"/>
      <point x="161" y="325"/>
      <point x="161" y="272" type="curve" smooth="yes"/>
      <point x="161" y="215"/>
      <point x="127" y="187"/>
    </contour>
    <contour>
      <point x="550" y="379" type="curve"/>
      <point x="532" y="482" type="line"/>
      <point x="370" y="464"/>
      <point x="298" y="407"/>
      <point x="298" y="281" type="curve" smooth="yes"/>
      <point x="298" y="169"/>
      <point x="373" y="110"/>
      <point x="523" y="74" type="curve"/>
      <point x="550" y="175" type="line"/>
      <point x="453" y="201"/>
      <point x="419" y="231"/>
      <point x="419" y="284" type="curve" smooth="yes"/>
      <point x="419" y="341"/>
      <point x="453" y="369"/>
    </contour>
  </outline>
</glyph>
